<?xml version="1.0" encoding="utf-8" standalone="no"?>
<!DOCTYPE svg PUBLIC "-//W3C//DTD SVG 1.1//EN"
  "http://www.w3.org/Graphics/SVG/1.1/DTD/svg11.dtd">
<!-- Created with matplotlib (http://matplotlib.org/) -->
<svg height="571pt" version="1.1" viewBox="0 0 794 571" width="794pt" xmlns="http://www.w3.org/2000/svg" xmlns:xlink="http://www.w3.org/1999/xlink">
 <defs>
  <style type="text/css">
*{stroke-linecap:butt;stroke-linejoin:round;stroke-miterlimit:100000;}
  </style>
 </defs>
 <g id="figure_1">
  <g id="patch_1">
   <path d="M 0 571.778 
L 794.7165 571.778 
L 794.7165 0 
L 0 0 
L 0 571.778 
z
" style="fill:none;"/>
  </g>
  <g id="axes_1">
   <g id="patch_2">
    <path d="M 62.1565 517.229 
L 776.3965 517.229 
L 776.3965 26.189 
L 62.1565 26.189 
L 62.1565 517.229 
z
" style="fill:none;"/>
   </g>
   <g id="matplotlib.axis_1">
    <g id="xtick_1">
     <g id="line2d_1">
      <defs>
       <path d="M 0 0 
L 0 0 
" id="m99ec394b54" style="stroke:#262626;stroke-width:1.6;"/>
      </defs>
      <g>
       <use style="fill:#262626;stroke:#262626;stroke-width:1.6;" x="62.1565" xlink:href="#m99ec394b54" y="517.229"/>
      </g>
     </g>
     <g id="line2d_2">
      <g>
       <use style="fill:#262626;stroke:#262626;stroke-width:1.6;" x="62.1565" xlink:href="#m99ec394b54" y="26.189"/>
      </g>
     </g>
     <g id="text_1">
      <!-- 0.0 -->
      <defs>
       <path d="M 9.078125 0 
L 9.078125 10.015625 
L 19.09375 10.015625 
L 19.09375 0 
z
" id="ArialMT-2e"/>
       <path d="M 4.15625 35.296875 
Q 4.15625 48 6.765625 55.734375 
Q 9.375 63.484375 14.515625 67.671875 
Q 19.671875 71.875 27.484375 71.875 
Q 33.25 71.875 37.59375 69.546875 
Q 41.9375 67.234375 44.765625 62.859375 
Q 47.609375 58.5 49.21875 52.21875 
Q 50.828125 45.953125 50.828125 35.296875 
Q 50.828125 22.703125 48.234375 14.96875 
Q 45.65625 7.234375 40.5 3 
Q 35.359375 -1.21875 27.484375 -1.21875 
Q 17.140625 -1.21875 11.234375 6.203125 
Q 4.15625 15.140625 4.15625 35.296875 
M 13.1875 35.296875 
Q 13.1875 17.671875 17.3125 11.828125 
Q 21.4375 6 27.484375 6 
Q 33.546875 6 37.671875 11.859375 
Q 41.796875 17.71875 41.796875 35.296875 
Q 41.796875 52.984375 37.671875 58.78125 
Q 33.546875 64.59375 27.390625 64.59375 
Q 21.34375 64.59375 17.71875 59.46875 
Q 13.1875 52.9375 13.1875 35.296875 
" id="ArialMT-30"/>
      </defs>
      <g style="fill:#262626;" transform="translate(51.0365 539.8815)scale(0.16 -0.16)">
       <use xlink:href="#ArialMT-30"/>
       <use x="55.615234375" xlink:href="#ArialMT-2e"/>
       <use x="83.3984375" xlink:href="#ArialMT-30"/>
      </g>
     </g>
    </g>
    <g id="xtick_2">
     <g id="line2d_3">
      <g>
       <use style="fill:#262626;stroke:#262626;stroke-width:1.6;" x="205.0045" xlink:href="#m99ec394b54" y="517.229"/>
      </g>
     </g>
     <g id="line2d_4">
      <g>
       <use style="fill:#262626;stroke:#262626;stroke-width:1.6;" x="205.0045" xlink:href="#m99ec394b54" y="26.189"/>
      </g>
     </g>
     <g id="text_2">
      <!-- 0.2 -->
      <defs>
       <path d="M 50.34375 8.453125 
L 50.34375 0 
L 3.03125 0 
Q 2.9375 3.171875 4.046875 6.109375 
Q 5.859375 10.9375 9.828125 15.625 
Q 13.8125 20.3125 21.34375 26.46875 
Q 33.015625 36.03125 37.109375 41.625 
Q 41.21875 47.21875 41.21875 52.203125 
Q 41.21875 57.421875 37.46875 61 
Q 33.734375 64.59375 27.734375 64.59375 
Q 21.390625 64.59375 17.578125 60.78125 
Q 13.765625 56.984375 13.71875 50.25 
L 4.6875 51.171875 
Q 5.609375 61.28125 11.65625 66.578125 
Q 17.71875 71.875 27.9375 71.875 
Q 38.234375 71.875 44.234375 66.15625 
Q 50.25 60.453125 50.25 52 
Q 50.25 47.703125 48.484375 43.546875 
Q 46.734375 39.40625 42.65625 34.8125 
Q 38.578125 30.21875 29.109375 22.21875 
Q 21.1875 15.578125 18.9375 13.203125 
Q 16.703125 10.84375 15.234375 8.453125 
z
" id="ArialMT-32"/>
      </defs>
      <g style="fill:#262626;" transform="translate(193.8845 539.8815)scale(0.16 -0.16)">
       <use xlink:href="#ArialMT-30"/>
       <use x="55.615234375" xlink:href="#ArialMT-2e"/>
       <use x="83.3984375" xlink:href="#ArialMT-32"/>
      </g>
     </g>
    </g>
    <g id="xtick_3">
     <g id="line2d_5">
      <g>
       <use style="fill:#262626;stroke:#262626;stroke-width:1.6;" x="347.8525" xlink:href="#m99ec394b54" y="517.229"/>
      </g>
     </g>
     <g id="line2d_6">
      <g>
       <use style="fill:#262626;stroke:#262626;stroke-width:1.6;" x="347.8525" xlink:href="#m99ec394b54" y="26.189"/>
      </g>
     </g>
     <g id="text_3">
      <!-- 0.4 -->
      <defs>
       <path d="M 32.328125 0 
L 32.328125 17.140625 
L 1.265625 17.140625 
L 1.265625 25.203125 
L 33.9375 71.578125 
L 41.109375 71.578125 
L 41.109375 25.203125 
L 50.78125 25.203125 
L 50.78125 17.140625 
L 41.109375 17.140625 
L 41.109375 0 
z
M 32.328125 25.203125 
L 32.328125 57.46875 
L 9.90625 25.203125 
z
" id="ArialMT-34"/>
      </defs>
      <g style="fill:#262626;" transform="translate(336.7325 539.8815)scale(0.16 -0.16)">
       <use xlink:href="#ArialMT-30"/>
       <use x="55.615234375" xlink:href="#ArialMT-2e"/>
       <use x="83.3984375" xlink:href="#ArialMT-34"/>
      </g>
     </g>
    </g>
    <g id="xtick_4">
     <g id="line2d_7">
      <g>
       <use style="fill:#262626;stroke:#262626;stroke-width:1.6;" x="490.7005" xlink:href="#m99ec394b54" y="517.229"/>
      </g>
     </g>
     <g id="line2d_8">
      <g>
       <use style="fill:#262626;stroke:#262626;stroke-width:1.6;" x="490.7005" xlink:href="#m99ec394b54" y="26.189"/>
      </g>
     </g>
     <g id="text_4">
      <!-- 0.6 -->
      <defs>
       <path d="M 49.75 54.046875 
L 41.015625 53.375 
Q 39.84375 58.546875 37.703125 60.890625 
Q 34.125 64.65625 28.90625 64.65625 
Q 24.703125 64.65625 21.53125 62.3125 
Q 17.390625 59.28125 14.984375 53.46875 
Q 12.59375 47.65625 12.5 36.921875 
Q 15.671875 41.75 20.265625 44.09375 
Q 24.859375 46.4375 29.890625 46.4375 
Q 38.671875 46.4375 44.84375 39.96875 
Q 51.03125 33.5 51.03125 23.25 
Q 51.03125 16.5 48.125 10.71875 
Q 45.21875 4.9375 40.140625 1.859375 
Q 35.0625 -1.21875 28.609375 -1.21875 
Q 17.625 -1.21875 10.6875 6.859375 
Q 3.765625 14.9375 3.765625 33.5 
Q 3.765625 54.25 11.421875 63.671875 
Q 18.109375 71.875 29.4375 71.875 
Q 37.890625 71.875 43.28125 67.140625 
Q 48.6875 62.40625 49.75 54.046875 
M 13.875 23.1875 
Q 13.875 18.65625 15.796875 14.5 
Q 17.71875 10.359375 21.1875 8.171875 
Q 24.65625 6 28.46875 6 
Q 34.03125 6 38.03125 10.484375 
Q 42.046875 14.984375 42.046875 22.703125 
Q 42.046875 30.125 38.078125 34.390625 
Q 34.125 38.671875 28.125 38.671875 
Q 22.171875 38.671875 18.015625 34.390625 
Q 13.875 30.125 13.875 23.1875 
" id="ArialMT-36"/>
      </defs>
      <g style="fill:#262626;" transform="translate(479.5805 539.8815)scale(0.16 -0.16)">
       <use xlink:href="#ArialMT-30"/>
       <use x="55.615234375" xlink:href="#ArialMT-2e"/>
       <use x="83.3984375" xlink:href="#ArialMT-36"/>
      </g>
     </g>
    </g>
    <g id="xtick_5">
     <g id="line2d_9">
      <g>
       <use style="fill:#262626;stroke:#262626;stroke-width:1.6;" x="633.5485" xlink:href="#m99ec394b54" y="517.229"/>
      </g>
     </g>
     <g id="line2d_10">
      <g>
       <use style="fill:#262626;stroke:#262626;stroke-width:1.6;" x="633.5485" xlink:href="#m99ec394b54" y="26.189"/>
      </g>
     </g>
     <g id="text_5">
      <!-- 0.8 -->
      <defs>
       <path d="M 17.671875 38.8125 
Q 12.203125 40.828125 9.5625 44.53125 
Q 6.9375 48.25 6.9375 53.421875 
Q 6.9375 61.234375 12.546875 66.546875 
Q 18.171875 71.875 27.484375 71.875 
Q 36.859375 71.875 42.578125 66.421875 
Q 48.296875 60.984375 48.296875 53.171875 
Q 48.296875 48.1875 45.671875 44.5 
Q 43.0625 40.828125 37.75 38.8125 
Q 44.34375 36.671875 47.78125 31.875 
Q 51.21875 27.09375 51.21875 20.453125 
Q 51.21875 11.28125 44.71875 5.03125 
Q 38.234375 -1.21875 27.640625 -1.21875 
Q 17.046875 -1.21875 10.546875 5.046875 
Q 4.046875 11.328125 4.046875 20.703125 
Q 4.046875 27.6875 7.59375 32.390625 
Q 11.140625 37.109375 17.671875 38.8125 
M 15.921875 53.71875 
Q 15.921875 48.640625 19.1875 45.40625 
Q 22.46875 42.1875 27.6875 42.1875 
Q 32.765625 42.1875 36.015625 45.375 
Q 39.265625 48.578125 39.265625 53.21875 
Q 39.265625 58.0625 35.90625 61.359375 
Q 32.5625 64.65625 27.59375 64.65625 
Q 22.5625 64.65625 19.234375 61.421875 
Q 15.921875 58.203125 15.921875 53.71875 
M 13.09375 20.65625 
Q 13.09375 16.890625 14.875 13.375 
Q 16.65625 9.859375 20.171875 7.921875 
Q 23.6875 6 27.734375 6 
Q 34.03125 6 38.125 10.046875 
Q 42.234375 14.109375 42.234375 20.359375 
Q 42.234375 26.703125 38.015625 30.859375 
Q 33.796875 35.015625 27.4375 35.015625 
Q 21.234375 35.015625 17.15625 30.90625 
Q 13.09375 26.8125 13.09375 20.65625 
" id="ArialMT-38"/>
      </defs>
      <g style="fill:#262626;" transform="translate(622.4285 539.8815)scale(0.16 -0.16)">
       <use xlink:href="#ArialMT-30"/>
       <use x="55.615234375" xlink:href="#ArialMT-2e"/>
       <use x="83.3984375" xlink:href="#ArialMT-38"/>
      </g>
     </g>
    </g>
    <g id="xtick_6">
     <g id="line2d_11">
      <g>
       <use style="fill:#262626;stroke:#262626;stroke-width:1.6;" x="776.3965" xlink:href="#m99ec394b54" y="517.229"/>
      </g>
     </g>
     <g id="line2d_12">
      <g>
       <use style="fill:#262626;stroke:#262626;stroke-width:1.6;" x="776.3965" xlink:href="#m99ec394b54" y="26.189"/>
      </g>
     </g>
     <g id="text_6">
      <!-- 1.0 -->
      <defs>
       <path d="M 37.25 0 
L 28.46875 0 
L 28.46875 56 
Q 25.296875 52.984375 20.140625 49.953125 
Q 14.984375 46.921875 10.890625 45.40625 
L 10.890625 53.90625 
Q 18.265625 57.375 23.78125 62.296875 
Q 29.296875 67.234375 31.59375 71.875 
L 37.25 71.875 
z
" id="ArialMT-31"/>
      </defs>
      <g style="fill:#262626;" transform="translate(765.2765 539.8815)scale(0.16 -0.16)">
       <use xlink:href="#ArialMT-31"/>
       <use x="55.615234375" xlink:href="#ArialMT-2e"/>
       <use x="83.3984375" xlink:href="#ArialMT-30"/>
      </g>
     </g>
    </g>
    <g id="text_7">
     <!-- False Positive Rate or (1 - Specifity) -->
     <defs>
      <path d="M 4.5 23 
L 13.421875 23.78125 
Q 14.0625 18.40625 16.375 14.96875 
Q 18.703125 11.53125 23.578125 9.40625 
Q 28.46875 7.28125 34.578125 7.28125 
Q 39.984375 7.28125 44.140625 8.890625 
Q 48.296875 10.5 50.3125 13.296875 
Q 52.34375 16.109375 52.34375 19.4375 
Q 52.34375 22.796875 50.390625 25.3125 
Q 48.4375 27.828125 43.953125 29.546875 
Q 41.0625 30.671875 31.203125 33.03125 
Q 21.34375 35.40625 17.390625 37.5 
Q 12.25 40.1875 9.734375 44.15625 
Q 7.234375 48.140625 7.234375 53.078125 
Q 7.234375 58.5 10.296875 63.203125 
Q 13.375 67.921875 19.28125 70.359375 
Q 25.203125 72.796875 32.421875 72.796875 
Q 40.375 72.796875 46.453125 70.234375 
Q 52.546875 67.671875 55.8125 62.6875 
Q 59.078125 57.71875 59.328125 51.421875 
L 50.25 50.734375 
Q 49.515625 57.515625 45.28125 60.984375 
Q 41.0625 64.453125 32.8125 64.453125 
Q 24.21875 64.453125 20.28125 61.296875 
Q 16.359375 58.15625 16.359375 53.71875 
Q 16.359375 49.859375 19.140625 47.359375 
Q 21.875 44.875 33.421875 42.265625 
Q 44.96875 39.65625 49.265625 37.703125 
Q 55.515625 34.8125 58.484375 30.390625 
Q 61.46875 25.984375 61.46875 20.21875 
Q 61.46875 14.5 58.203125 9.4375 
Q 54.9375 4.390625 48.796875 1.578125 
Q 42.671875 -1.21875 35.015625 -1.21875 
Q 25.296875 -1.21875 18.71875 1.609375 
Q 12.15625 4.4375 8.421875 10.125 
Q 4.6875 15.828125 4.5 23 
" id="ArialMT-53"/>
      <path d="M 23.390625 -21.046875 
Q 16.109375 -11.859375 11.078125 0.4375 
Q 6.0625 12.75 6.0625 25.921875 
Q 6.0625 37.546875 9.8125 48.1875 
Q 14.203125 60.546875 23.390625 72.796875 
L 29.6875 72.796875 
Q 23.78125 62.640625 21.875 58.296875 
Q 18.890625 51.5625 17.1875 44.234375 
Q 15.09375 35.109375 15.09375 25.875 
Q 15.09375 2.390625 29.6875 -21.046875 
z
" id="ArialMT-28"/>
      <path d="M 25.78125 7.859375 
L 27.046875 0.09375 
Q 23.34375 -0.6875 20.40625 -0.6875 
Q 15.625 -0.6875 12.984375 0.828125 
Q 10.359375 2.34375 9.28125 4.8125 
Q 8.203125 7.28125 8.203125 15.1875 
L 8.203125 45.015625 
L 1.765625 45.015625 
L 1.765625 51.859375 
L 8.203125 51.859375 
L 8.203125 64.703125 
L 16.9375 69.96875 
L 16.9375 51.859375 
L 25.78125 51.859375 
L 25.78125 45.015625 
L 16.9375 45.015625 
L 16.9375 14.703125 
Q 16.9375 10.9375 17.40625 9.859375 
Q 17.875 8.796875 18.921875 8.15625 
Q 19.96875 7.515625 21.921875 7.515625 
Q 23.390625 7.515625 25.78125 7.859375 
" id="ArialMT-74"/>
      <path d="M 6.640625 61.46875 
L 6.640625 71.578125 
L 15.4375 71.578125 
L 15.4375 61.46875 
z
M 6.640625 0 
L 6.640625 51.859375 
L 15.4375 51.859375 
L 15.4375 0 
z
" id="ArialMT-69"/>
      <path d="M 42.09375 16.703125 
L 51.171875 15.578125 
Q 49.03125 7.625 43.21875 3.21875 
Q 37.40625 -1.171875 28.375 -1.171875 
Q 17 -1.171875 10.328125 5.828125 
Q 3.65625 12.84375 3.65625 25.484375 
Q 3.65625 38.578125 10.390625 45.796875 
Q 17.140625 53.03125 27.875 53.03125 
Q 38.28125 53.03125 44.875 45.953125 
Q 51.46875 38.875 51.46875 26.03125 
Q 51.46875 25.25 51.421875 23.6875 
L 12.75 23.6875 
Q 13.234375 15.140625 17.578125 10.59375 
Q 21.921875 6.0625 28.421875 6.0625 
Q 33.25 6.0625 36.671875 8.59375 
Q 40.09375 11.140625 42.09375 16.703125 
M 13.234375 30.90625 
L 42.1875 30.90625 
Q 41.609375 37.453125 38.875 40.71875 
Q 34.671875 45.796875 27.984375 45.796875 
Q 21.921875 45.796875 17.796875 41.75 
Q 13.671875 37.703125 13.234375 30.90625 
" id="ArialMT-65"/>
      <path d="M 6.203125 -19.96875 
L 5.21875 -11.71875 
Q 8.109375 -12.5 10.25 -12.5 
Q 13.1875 -12.5 14.9375 -11.515625 
Q 16.703125 -10.546875 17.828125 -8.796875 
Q 18.65625 -7.46875 20.515625 -2.25 
Q 20.75 -1.515625 21.296875 -0.09375 
L 1.609375 51.859375 
L 11.078125 51.859375 
L 21.875 21.828125 
Q 23.96875 16.109375 25.640625 9.8125 
Q 27.15625 15.875 29.25 21.625 
L 40.328125 51.859375 
L 49.125 51.859375 
L 29.390625 -0.875 
Q 26.21875 -9.421875 24.46875 -12.640625 
Q 22.125 -17 19.09375 -19.015625 
Q 16.0625 -21.046875 11.859375 -21.046875 
Q 9.328125 -21.046875 6.203125 -19.96875 
" id="ArialMT-79"/>
      <path d="M 6.59375 -19.875 
L 6.59375 51.859375 
L 14.59375 51.859375 
L 14.59375 45.125 
Q 17.4375 49.078125 21 51.046875 
Q 24.5625 53.03125 29.640625 53.03125 
Q 36.28125 53.03125 41.359375 49.609375 
Q 46.4375 46.1875 49.015625 39.953125 
Q 51.609375 33.734375 51.609375 26.3125 
Q 51.609375 18.359375 48.75 11.984375 
Q 45.90625 5.609375 40.453125 2.21875 
Q 35.015625 -1.171875 29 -1.171875 
Q 24.609375 -1.171875 21.109375 0.6875 
Q 17.625 2.546875 15.375 5.375 
L 15.375 -19.875 
z
M 14.546875 25.640625 
Q 14.546875 15.625 18.59375 10.84375 
Q 22.65625 6.0625 28.421875 6.0625 
Q 34.28125 6.0625 38.453125 11.015625 
Q 42.625 15.96875 42.625 26.375 
Q 42.625 36.28125 38.546875 41.203125 
Q 34.46875 46.140625 28.8125 46.140625 
Q 23.1875 46.140625 18.859375 40.890625 
Q 14.546875 35.640625 14.546875 25.640625 
" id="ArialMT-70"/>
      <path d="M 7.71875 0 
L 7.71875 71.578125 
L 34.71875 71.578125 
Q 41.84375 71.578125 45.609375 70.90625 
Q 50.875 70.015625 54.4375 67.546875 
Q 58.015625 65.09375 60.1875 60.640625 
Q 62.359375 56.203125 62.359375 50.875 
Q 62.359375 41.75 56.546875 35.421875 
Q 50.734375 29.109375 35.546875 29.109375 
L 17.1875 29.109375 
L 17.1875 0 
z
M 17.1875 37.546875 
L 35.6875 37.546875 
Q 44.875 37.546875 48.734375 40.96875 
Q 52.59375 44.390625 52.59375 50.59375 
Q 52.59375 55.078125 50.3125 58.265625 
Q 48.046875 61.46875 44.34375 62.5 
Q 41.9375 63.140625 35.5 63.140625 
L 17.1875 63.140625 
z
" id="ArialMT-50"/>
      <path d="M 6.5 0 
L 6.5 51.859375 
L 14.40625 51.859375 
L 14.40625 44 
Q 17.4375 49.515625 20 51.265625 
Q 22.5625 53.03125 25.640625 53.03125 
Q 30.078125 53.03125 34.671875 50.203125 
L 31.640625 42.046875 
Q 28.421875 43.953125 25.203125 43.953125 
Q 22.3125 43.953125 20.015625 42.21875 
Q 17.71875 40.484375 16.75 37.40625 
Q 15.28125 32.71875 15.28125 27.15625 
L 15.28125 0 
z
" id="ArialMT-72"/>
      <path d="M 3.171875 21.484375 
L 3.171875 30.328125 
L 30.171875 30.328125 
L 30.171875 21.484375 
z
" id="ArialMT-2d"/>
      <path d="M 3.078125 15.484375 
L 11.765625 16.84375 
Q 12.5 11.625 15.84375 8.84375 
Q 19.1875 6.0625 25.203125 6.0625 
Q 31.25 6.0625 34.171875 8.515625 
Q 37.109375 10.984375 37.109375 14.3125 
Q 37.109375 17.28125 34.515625 19 
Q 32.71875 20.171875 25.53125 21.96875 
Q 15.875 24.421875 12.140625 26.203125 
Q 8.40625 27.984375 6.46875 31.125 
Q 4.546875 34.28125 4.546875 38.09375 
Q 4.546875 41.546875 6.125 44.5 
Q 7.71875 47.46875 10.453125 49.421875 
Q 12.5 50.921875 16.03125 51.96875 
Q 19.578125 53.03125 23.640625 53.03125 
Q 29.734375 53.03125 34.34375 51.265625 
Q 38.96875 49.515625 41.15625 46.5 
Q 43.359375 43.5 44.1875 38.484375 
L 35.59375 37.3125 
Q 35.015625 41.3125 32.203125 43.546875 
Q 29.390625 45.796875 24.265625 45.796875 
Q 18.21875 45.796875 15.625 43.796875 
Q 13.03125 41.796875 13.03125 39.109375 
Q 13.03125 37.40625 14.109375 36.03125 
Q 15.1875 34.625 17.484375 33.6875 
Q 18.796875 33.203125 25.25 31.453125 
Q 34.578125 28.953125 38.25 27.359375 
Q 41.9375 25.78125 44.03125 22.75 
Q 46.140625 19.734375 46.140625 15.234375 
Q 46.140625 10.84375 43.578125 6.953125 
Q 41.015625 3.078125 36.171875 0.953125 
Q 31.34375 -1.171875 25.25 -1.171875 
Q 15.140625 -1.171875 9.84375 3.03125 
Q 4.546875 7.234375 3.078125 15.484375 
" id="ArialMT-73"/>
      <path d="M 21 0 
L 1.265625 51.859375 
L 10.546875 51.859375 
L 21.6875 20.796875 
Q 23.484375 15.765625 25 10.359375 
Q 26.171875 14.453125 28.265625 20.21875 
L 39.796875 51.859375 
L 48.828125 51.859375 
L 29.203125 0 
z
" id="ArialMT-76"/>
      <path d="M 3.328125 25.921875 
Q 3.328125 40.328125 11.328125 47.265625 
Q 18.015625 53.03125 27.640625 53.03125 
Q 38.328125 53.03125 45.109375 46.015625 
Q 51.90625 39.015625 51.90625 26.65625 
Q 51.90625 16.65625 48.90625 10.90625 
Q 45.90625 5.171875 40.15625 2 
Q 34.421875 -1.171875 27.640625 -1.171875 
Q 16.75 -1.171875 10.03125 5.8125 
Q 3.328125 12.796875 3.328125 25.921875 
M 12.359375 25.921875 
Q 12.359375 15.96875 16.703125 11.015625 
Q 21.046875 6.0625 27.640625 6.0625 
Q 34.1875 6.0625 38.53125 11.03125 
Q 42.875 16.015625 42.875 26.21875 
Q 42.875 35.84375 38.5 40.796875 
Q 34.125 45.75 27.640625 45.75 
Q 21.046875 45.75 16.703125 40.8125 
Q 12.359375 35.890625 12.359375 25.921875 
" id="ArialMT-6f"/>
      <path d="M 6.390625 0 
L 6.390625 71.578125 
L 15.1875 71.578125 
L 15.1875 0 
z
" id="ArialMT-6c"/>
      <path d="M 8.6875 0 
L 8.6875 45.015625 
L 0.921875 45.015625 
L 0.921875 51.859375 
L 8.6875 51.859375 
L 8.6875 57.375 
Q 8.6875 62.59375 9.625 65.140625 
Q 10.890625 68.5625 14.078125 70.671875 
Q 17.28125 72.796875 23.046875 72.796875 
Q 26.765625 72.796875 31.25 71.921875 
L 29.9375 64.265625 
Q 27.203125 64.75 24.75 64.75 
Q 20.75 64.75 19.09375 63.03125 
Q 17.4375 61.328125 17.4375 56.640625 
L 17.4375 51.859375 
L 27.546875 51.859375 
L 27.546875 45.015625 
L 17.4375 45.015625 
L 17.4375 0 
z
" id="ArialMT-66"/>
      <path d="M 8.203125 0 
L 8.203125 71.578125 
L 56.5 71.578125 
L 56.5 63.140625 
L 17.671875 63.140625 
L 17.671875 40.96875 
L 51.265625 40.96875 
L 51.265625 32.515625 
L 17.671875 32.515625 
L 17.671875 0 
z
" id="ArialMT-46"/>
      <path d="M 40.4375 6.390625 
Q 35.546875 2.25 31.03125 0.53125 
Q 26.515625 -1.171875 21.34375 -1.171875 
Q 12.796875 -1.171875 8.203125 3 
Q 3.609375 7.171875 3.609375 13.671875 
Q 3.609375 17.484375 5.34375 20.625 
Q 7.078125 23.78125 9.890625 25.6875 
Q 12.703125 27.59375 16.21875 28.5625 
Q 18.796875 29.25 24.03125 29.890625 
Q 34.671875 31.15625 39.703125 32.90625 
Q 39.75 34.71875 39.75 35.203125 
Q 39.75 40.578125 37.25 42.78125 
Q 33.890625 45.75 27.25 45.75 
Q 21.046875 45.75 18.09375 43.578125 
Q 15.140625 41.40625 13.71875 35.890625 
L 5.125 37.0625 
Q 6.296875 42.578125 8.984375 45.96875 
Q 11.671875 49.359375 16.75 51.1875 
Q 21.828125 53.03125 28.515625 53.03125 
Q 35.15625 53.03125 39.296875 51.46875 
Q 43.453125 49.90625 45.40625 47.53125 
Q 47.359375 45.171875 48.140625 41.546875 
Q 48.578125 39.3125 48.578125 33.453125 
L 48.578125 21.734375 
Q 48.578125 9.46875 49.140625 6.21875 
Q 49.703125 2.984375 51.375 0 
L 42.1875 0 
Q 40.828125 2.734375 40.4375 6.390625 
M 39.703125 26.03125 
Q 34.90625 24.078125 25.34375 22.703125 
Q 19.921875 21.921875 17.671875 20.9375 
Q 15.4375 19.96875 14.203125 18.09375 
Q 12.984375 16.21875 12.984375 13.921875 
Q 12.984375 10.40625 15.640625 8.0625 
Q 18.3125 5.71875 23.4375 5.71875 
Q 28.515625 5.71875 32.46875 7.9375 
Q 36.421875 10.15625 38.28125 14.015625 
Q 39.703125 17 39.703125 22.796875 
z
" id="ArialMT-61"/>
      <path id="ArialMT-20"/>
      <path d="M 40.4375 19 
L 49.078125 17.875 
Q 47.65625 8.9375 41.8125 3.875 
Q 35.984375 -1.171875 27.484375 -1.171875 
Q 16.84375 -1.171875 10.375 5.78125 
Q 3.90625 12.75 3.90625 25.734375 
Q 3.90625 34.125 6.6875 40.421875 
Q 9.46875 46.734375 15.15625 49.875 
Q 20.84375 53.03125 27.546875 53.03125 
Q 35.984375 53.03125 41.359375 48.75 
Q 46.734375 44.484375 48.25 36.625 
L 39.703125 35.296875 
Q 38.484375 40.53125 35.375 43.15625 
Q 32.28125 45.796875 27.875 45.796875 
Q 21.234375 45.796875 17.078125 41.03125 
Q 12.9375 36.28125 12.9375 25.984375 
Q 12.9375 15.53125 16.9375 10.796875 
Q 20.953125 6.0625 27.390625 6.0625 
Q 32.5625 6.0625 36.03125 9.234375 
Q 39.5 12.40625 40.4375 19 
" id="ArialMT-63"/>
      <path d="M 7.859375 0 
L 7.859375 71.578125 
L 39.59375 71.578125 
Q 49.171875 71.578125 54.140625 69.640625 
Q 59.125 67.71875 62.109375 62.828125 
Q 65.09375 57.953125 65.09375 52.046875 
Q 65.09375 44.4375 60.15625 39.203125 
Q 55.21875 33.984375 44.921875 32.5625 
Q 48.6875 30.765625 50.640625 29 
Q 54.78125 25.203125 58.5 19.484375 
L 70.953125 0 
L 59.03125 0 
L 49.5625 14.890625 
Q 45.40625 21.34375 42.71875 24.75 
Q 40.046875 28.171875 37.921875 29.53125 
Q 35.796875 30.90625 33.59375 31.453125 
Q 31.984375 31.78125 28.328125 31.78125 
L 17.328125 31.78125 
L 17.328125 0 
z
M 17.328125 39.984375 
L 37.703125 39.984375 
Q 44.1875 39.984375 47.84375 41.328125 
Q 51.515625 42.671875 53.421875 45.625 
Q 55.328125 48.578125 55.328125 52.046875 
Q 55.328125 57.125 51.640625 60.390625 
Q 47.953125 63.671875 39.984375 63.671875 
L 17.328125 63.671875 
z
" id="ArialMT-52"/>
      <path d="M 12.359375 -21.046875 
L 6.0625 -21.046875 
Q 20.65625 2.390625 20.65625 25.875 
Q 20.65625 35.0625 18.5625 44.09375 
Q 16.890625 51.421875 13.921875 58.15625 
Q 12.015625 62.546875 6.0625 72.796875 
L 12.359375 72.796875 
Q 21.53125 60.546875 25.921875 48.1875 
Q 29.6875 37.546875 29.6875 25.921875 
Q 29.6875 12.75 24.625 0.4375 
Q 19.578125 -11.859375 12.359375 -21.046875 
" id="ArialMT-29"/>
     </defs>
     <g style="fill:#262626;" transform="translate(278.926125 560.87375)scale(0.17600000000000002 -0.17600000000000002)">
      <use xlink:href="#ArialMT-46"/>
      <use x="61.083984375" xlink:href="#ArialMT-61"/>
      <use x="116.69921875" xlink:href="#ArialMT-6c"/>
      <use x="138.916015625" xlink:href="#ArialMT-73"/>
      <use x="188.916015625" xlink:href="#ArialMT-65"/>
      <use x="244.53125" xlink:href="#ArialMT-20"/>
      <use x="272.314453125" xlink:href="#ArialMT-50"/>
      <use x="339.013671875" xlink:href="#ArialMT-6f"/>
      <use x="394.62890625" xlink:href="#ArialMT-73"/>
      <use x="444.62890625" xlink:href="#ArialMT-69"/>
      <use x="466.845703125" xlink:href="#ArialMT-74"/>
      <use x="494.62890625" xlink:href="#ArialMT-69"/>
      <use x="516.845703125" xlink:href="#ArialMT-76"/>
      <use x="566.845703125" xlink:href="#ArialMT-65"/>
      <use x="622.4609375" xlink:href="#ArialMT-20"/>
      <use x="650.244140625" xlink:href="#ArialMT-52"/>
      <use x="722.4609375" xlink:href="#ArialMT-61"/>
      <use x="778.076171875" xlink:href="#ArialMT-74"/>
      <use x="805.859375" xlink:href="#ArialMT-65"/>
      <use x="861.474609375" xlink:href="#ArialMT-20"/>
      <use x="889.2578125" xlink:href="#ArialMT-6f"/>
      <use x="944.873046875" xlink:href="#ArialMT-72"/>
      <use x="978.173828125" xlink:href="#ArialMT-20"/>
      <use x="1005.95703125" xlink:href="#ArialMT-28"/>
      <use x="1039.2578125" xlink:href="#ArialMT-31"/>
      <use x="1094.873046875" xlink:href="#ArialMT-20"/>
      <use x="1122.65625" xlink:href="#ArialMT-2d"/>
      <use x="1155.95703125" xlink:href="#ArialMT-20"/>
      <use x="1183.740234375" xlink:href="#ArialMT-53"/>
      <use x="1250.439453125" xlink:href="#ArialMT-70"/>
      <use x="1306.0546875" xlink:href="#ArialMT-65"/>
      <use x="1361.669921875" xlink:href="#ArialMT-63"/>
      <use x="1411.669921875" xlink:href="#ArialMT-69"/>
      <use x="1433.88671875" xlink:href="#ArialMT-66"/>
      <use x="1461.669921875" xlink:href="#ArialMT-69"/>
      <use x="1483.88671875" xlink:href="#ArialMT-74"/>
      <use x="1511.669921875" xlink:href="#ArialMT-79"/>
      <use x="1561.669921875" xlink:href="#ArialMT-29"/>
     </g>
    </g>
   </g>
   <g id="matplotlib.axis_2">
    <g id="ytick_1">
     <g id="line2d_13">
      <g>
       <use style="fill:#262626;stroke:#262626;stroke-width:1.6;" x="62.1565" xlink:href="#m99ec394b54" y="517.229"/>
      </g>
     </g>
     <g id="line2d_14">
      <g>
       <use style="fill:#262626;stroke:#262626;stroke-width:1.6;" x="776.3965" xlink:href="#m99ec394b54" y="517.229"/>
      </g>
     </g>
     <g id="text_8">
      <!-- 0.0 -->
      <g style="fill:#262626;" transform="translate(28.7165 521.36525)scale(0.16 -0.16)">
       <use xlink:href="#ArialMT-30"/>
       <use x="55.615234375" xlink:href="#ArialMT-2e"/>
       <use x="83.3984375" xlink:href="#ArialMT-30"/>
      </g>
     </g>
    </g>
    <g id="ytick_2">
     <g id="line2d_15">
      <g>
       <use style="fill:#262626;stroke:#262626;stroke-width:1.6;" x="62.1565" xlink:href="#m99ec394b54" y="419.021"/>
      </g>
     </g>
     <g id="line2d_16">
      <g>
       <use style="fill:#262626;stroke:#262626;stroke-width:1.6;" x="776.3965" xlink:href="#m99ec394b54" y="419.021"/>
      </g>
     </g>
     <g id="text_9">
      <!-- 0.2 -->
      <g style="fill:#262626;" transform="translate(28.7165 423.15725)scale(0.16 -0.16)">
       <use xlink:href="#ArialMT-30"/>
       <use x="55.615234375" xlink:href="#ArialMT-2e"/>
       <use x="83.3984375" xlink:href="#ArialMT-32"/>
      </g>
     </g>
    </g>
    <g id="ytick_3">
     <g id="line2d_17">
      <g>
       <use style="fill:#262626;stroke:#262626;stroke-width:1.6;" x="62.1565" xlink:href="#m99ec394b54" y="320.813"/>
      </g>
     </g>
     <g id="line2d_18">
      <g>
       <use style="fill:#262626;stroke:#262626;stroke-width:1.6;" x="776.3965" xlink:href="#m99ec394b54" y="320.813"/>
      </g>
     </g>
     <g id="text_10">
      <!-- 0.4 -->
      <g style="fill:#262626;" transform="translate(28.7165 324.94925)scale(0.16 -0.16)">
       <use xlink:href="#ArialMT-30"/>
       <use x="55.615234375" xlink:href="#ArialMT-2e"/>
       <use x="83.3984375" xlink:href="#ArialMT-34"/>
      </g>
     </g>
    </g>
    <g id="ytick_4">
     <g id="line2d_19">
      <g>
       <use style="fill:#262626;stroke:#262626;stroke-width:1.6;" x="62.1565" xlink:href="#m99ec394b54" y="222.605"/>
      </g>
     </g>
     <g id="line2d_20">
      <g>
       <use style="fill:#262626;stroke:#262626;stroke-width:1.6;" x="776.3965" xlink:href="#m99ec394b54" y="222.605"/>
      </g>
     </g>
     <g id="text_11">
      <!-- 0.6 -->
      <g style="fill:#262626;" transform="translate(28.7165 226.74125)scale(0.16 -0.16)">
       <use xlink:href="#ArialMT-30"/>
       <use x="55.615234375" xlink:href="#ArialMT-2e"/>
       <use x="83.3984375" xlink:href="#ArialMT-36"/>
      </g>
     </g>
    </g>
    <g id="ytick_5">
     <g id="line2d_21">
      <g>
       <use style="fill:#262626;stroke:#262626;stroke-width:1.6;" x="62.1565" xlink:href="#m99ec394b54" y="124.397"/>
      </g>
     </g>
     <g id="line2d_22">
      <g>
       <use style="fill:#262626;stroke:#262626;stroke-width:1.6;" x="776.3965" xlink:href="#m99ec394b54" y="124.397"/>
      </g>
     </g>
     <g id="text_12">
      <!-- 0.8 -->
      <g style="fill:#262626;" transform="translate(28.7165 128.53325)scale(0.16 -0.16)">
       <use xlink:href="#ArialMT-30"/>
       <use x="55.615234375" xlink:href="#ArialMT-2e"/>
       <use x="83.3984375" xlink:href="#ArialMT-38"/>
      </g>
     </g>
    </g>
    <g id="ytick_6">
     <g id="line2d_23">
      <g>
       <use style="fill:#262626;stroke:#262626;stroke-width:1.6;" x="62.1565" xlink:href="#m99ec394b54" y="26.189"/>
      </g>
     </g>
     <g id="line2d_24">
      <g>
       <use style="fill:#262626;stroke:#262626;stroke-width:1.6;" x="776.3965" xlink:href="#m99ec394b54" y="26.189"/>
      </g>
     </g>
     <g id="text_13">
      <!-- 1.0 -->
      <g style="fill:#262626;" transform="translate(28.7165 30.32525)scale(0.16 -0.16)">
       <use xlink:href="#ArialMT-31"/>
       <use x="55.615234375" xlink:href="#ArialMT-2e"/>
       <use x="83.3984375" xlink:href="#ArialMT-30"/>
      </g>
     </g>
    </g>
    <g id="text_14">
     <!-- True Positive Rate or (Sensitivity) -->
     <defs>
      <path d="M 25.921875 0 
L 25.921875 63.140625 
L 2.34375 63.140625 
L 2.34375 71.578125 
L 59.078125 71.578125 
L 59.078125 63.140625 
L 35.40625 63.140625 
L 35.40625 0 
z
" id="ArialMT-54"/>
      <path d="M 40.578125 0 
L 40.578125 7.625 
Q 34.515625 -1.171875 24.125 -1.171875 
Q 19.53125 -1.171875 15.546875 0.578125 
Q 11.578125 2.34375 9.640625 5 
Q 7.71875 7.671875 6.9375 11.53125 
Q 6.390625 14.109375 6.390625 19.734375 
L 6.390625 51.859375 
L 15.1875 51.859375 
L 15.1875 23.09375 
Q 15.1875 16.21875 15.71875 13.8125 
Q 16.546875 10.359375 19.234375 8.375 
Q 21.921875 6.390625 25.875 6.390625 
Q 29.828125 6.390625 33.296875 8.421875 
Q 36.765625 10.453125 38.203125 13.9375 
Q 39.65625 17.4375 39.65625 24.078125 
L 39.65625 51.859375 
L 48.4375 51.859375 
L 48.4375 0 
z
" id="ArialMT-75"/>
      <path d="M 6.59375 0 
L 6.59375 51.859375 
L 14.5 51.859375 
L 14.5 44.484375 
Q 20.21875 53.03125 31 53.03125 
Q 35.6875 53.03125 39.625 51.34375 
Q 43.5625 49.65625 45.515625 46.921875 
Q 47.46875 44.1875 48.25 40.4375 
Q 48.734375 37.984375 48.734375 31.890625 
L 48.734375 0 
L 39.9375 0 
L 39.9375 31.546875 
Q 39.9375 36.921875 38.90625 39.578125 
Q 37.890625 42.234375 35.28125 43.8125 
Q 32.671875 45.40625 29.15625 45.40625 
Q 23.53125 45.40625 19.453125 41.84375 
Q 15.375 38.28125 15.375 28.328125 
L 15.375 0 
z
" id="ArialMT-6e"/>
     </defs>
     <g style="fill:#262626;" transform="translate(20.01225 402.272125)rotate(-90.0)scale(0.17600000000000002 -0.17600000000000002)">
      <use xlink:href="#ArialMT-54"/>
      <use x="61.037109375" xlink:href="#ArialMT-72"/>
      <use x="94.337890625" xlink:href="#ArialMT-75"/>
      <use x="149.953125" xlink:href="#ArialMT-65"/>
      <use x="205.568359375" xlink:href="#ArialMT-20"/>
      <use x="233.3515625" xlink:href="#ArialMT-50"/>
      <use x="300.05078125" xlink:href="#ArialMT-6f"/>
      <use x="355.666015625" xlink:href="#ArialMT-73"/>
      <use x="405.666015625" xlink:href="#ArialMT-69"/>
      <use x="427.8828125" xlink:href="#ArialMT-74"/>
      <use x="455.666015625" xlink:href="#ArialMT-69"/>
      <use x="477.8828125" xlink:href="#ArialMT-76"/>
      <use x="527.8828125" xlink:href="#ArialMT-65"/>
      <use x="583.498046875" xlink:href="#ArialMT-20"/>
      <use x="611.28125" xlink:href="#ArialMT-52"/>
      <use x="683.498046875" xlink:href="#ArialMT-61"/>
      <use x="739.11328125" xlink:href="#ArialMT-74"/>
      <use x="766.896484375" xlink:href="#ArialMT-65"/>
      <use x="822.51171875" xlink:href="#ArialMT-20"/>
      <use x="850.294921875" xlink:href="#ArialMT-6f"/>
      <use x="905.91015625" xlink:href="#ArialMT-72"/>
      <use x="939.2109375" xlink:href="#ArialMT-20"/>
      <use x="966.994140625" xlink:href="#ArialMT-28"/>
      <use x="1000.294921875" xlink:href="#ArialMT-53"/>
      <use x="1066.994140625" xlink:href="#ArialMT-65"/>
      <use x="1122.609375" xlink:href="#ArialMT-6e"/>
      <use x="1178.224609375" xlink:href="#ArialMT-73"/>
      <use x="1228.224609375" xlink:href="#ArialMT-69"/>
      <use x="1250.44140625" xlink:href="#ArialMT-74"/>
      <use x="1278.224609375" xlink:href="#ArialMT-69"/>
      <use x="1300.44140625" xlink:href="#ArialMT-76"/>
      <use x="1350.44140625" xlink:href="#ArialMT-69"/>
      <use x="1372.658203125" xlink:href="#ArialMT-74"/>
      <use x="1400.44140625" xlink:href="#ArialMT-79"/>
      <use x="1450.44140625" xlink:href="#ArialMT-29"/>
     </g>
    </g>
   </g>
   <g id="line2d_25">
    <path clip-path="url(#p595801406d)" d="M 62.1565 513.39275 
L 62.1565 459.68525 
L 63.237045 459.68525 
L 63.237045 428.99525 
L 64.317589 428.99525 
L 64.317589 386.7965 
L 65.398134 386.7965 
L 65.398134 359.94275 
L 67.559223 359.94275 
L 67.559223 352.27025 
L 68.639768 352.27025 
L 68.639768 317.744 
L 72.961946 317.744 
L 72.961946 302.399 
L 75.123036 302.399 
L 75.123036 294.7265 
L 76.20358 294.7265 
L 76.20358 290.89025 
L 80.525759 290.89025 
L 80.525759 283.21775 
L 82.686848 283.21775 
L 82.686848 264.0365 
L 84.847937 264.0365 
L 84.847937 252.52775 
L 85.928482 252.52775 
L 85.928482 237.18275 
L 88.089571 237.18275 
L 88.089571 229.51025 
L 89.170116 229.51025 
L 89.170116 221.83775 
L 95.653384 221.83775 
L 95.653384 210.329 
L 96.733928 210.329 
L 96.733928 198.82025 
L 97.814473 198.82025 
L 97.814473 194.984 
L 98.895017 194.984 
L 98.895017 191.14775 
L 106.45883 191.14775 
L 106.45883 187.3115 
L 107.539374 187.3115 
L 107.539374 183.47525 
L 108.619919 183.47525 
L 108.619919 179.639 
L 110.781008 179.639 
L 110.781008 175.80275 
L 117.264276 175.80275 
L 117.264276 171.9665 
L 123.747544 171.9665 
L 123.747544 168.13025 
L 129.150267 168.13025 
L 129.150267 164.294 
L 130.230812 164.294 
L 130.230812 160.45775 
L 135.633535 160.45775 
L 135.633535 156.6215 
L 136.714079 156.6215 
L 136.714079 152.78525 
L 168.049874 152.78525 
L 168.049874 148.949 
L 172.372052 148.949 
L 172.372052 145.11275 
L 173.452597 145.11275 
L 173.452597 141.2765 
L 174.533141 141.2765 
L 174.533141 133.604 
L 193.982945 133.604 
L 193.982945 129.76775 
L 197.224579 129.76775 
L 197.224579 125.9315 
L 212.352203 125.9315 
L 212.352203 122.09525 
L 215.593837 122.09525 
L 215.593837 118.259 
L 217.754927 118.259 
L 217.754927 110.5865 
L 219.916016 110.5865 
L 219.916016 106.75025 
L 227.479828 106.75025 
L 227.479828 102.914 
L 228.560373 102.914 
L 228.560373 99.07775 
L 244.768542 99.07775 
L 244.768542 95.2415 
L 253.412899 95.2415 
L 253.412899 91.40525 
L 263.137801 91.40525 
L 263.137801 87.569 
L 272.862703 87.569 
L 272.862703 83.73275 
L 291.231961 83.73275 
L 291.231961 79.8965 
L 297.715229 79.8965 
L 297.715229 76.06025 
L 334.453747 76.06025 
L 334.453747 72.224 
L 336.614836 72.224 
L 336.614836 68.38775 
L 347.420282 68.38775 
L 347.420282 64.5515 
L 349.581371 64.5515 
L 349.581371 60.71525 
L 370.111719 60.71525 
L 370.111719 56.879 
L 398.20588 56.879 
L 398.20588 53.04275 
L 403.608603 53.04275 
L 403.608603 49.2065 
L 469.521825 49.2065 
L 469.521825 45.37025 
L 473.844004 45.37025 
L 473.844004 37.69775 
L 568.931931 37.69775 
L 568.931931 33.8615 
L 657.536591 33.8615 
L 657.536591 30.02525 
L 706.161099 30.02525 
L 706.161099 26.189 
L 776.3965 26.189 
" style="fill:none;stroke:#4878cf;stroke-linecap:round;stroke-width:2.8000000000000003;"/>
   </g>
   <g id="line2d_26">
    <path clip-path="url(#p595801406d)" d="M 62.1565 517.229 
L 776.3965 26.189 
" style="fill:none;stroke:#000000;stroke-dasharray:6.000000,6.000000;stroke-dashoffset:0.0;stroke-width:2.8000000000000003;"/>
   </g>
   <g id="line2d_27">
    <path clip-path="url(#p595801406d)" d="M 62.1565 517.229 
L 63.237045 517.229 
L 63.237045 513.39275 
L 64.317589 513.39275 
L 64.317589 505.72025 
L 65.398134 505.72025 
L 65.398134 498.04775 
L 66.478679 498.04775 
L 66.478679 490.37525 
L 67.559223 490.37525 
L 67.559223 482.70275 
L 69.720312 482.70275 
L 69.720312 478.8665 
L 72.961946 478.8665 
L 72.961946 463.5215 
L 76.20358 463.5215 
L 76.20358 459.68525 
L 78.364669 459.68525 
L 78.364669 455.849 
L 83.767393 455.849 
L 83.767393 444.34025 
L 85.928482 444.34025 
L 85.928482 440.504 
L 87.009026 440.504 
L 87.009026 436.66775 
L 90.25066 436.66775 
L 90.25066 432.8315 
L 94.572839 432.8315 
L 94.572839 425.159 
L 98.895017 425.159 
L 98.895017 421.32275 
L 99.975562 421.32275 
L 99.975562 417.4865 
L 101.056107 417.4865 
L 101.056107 409.814 
L 108.619919 409.814 
L 108.619919 405.97775 
L 109.700464 405.97775 
L 109.700464 398.30525 
L 111.861553 398.30525 
L 111.861553 386.7965 
L 117.264276 386.7965 
L 117.264276 382.96025 
L 119.425365 382.96025 
L 119.425365 379.124 
L 123.747544 379.124 
L 123.747544 367.61525 
L 124.828089 367.61525 
L 124.828089 363.779 
L 130.230812 363.779 
L 130.230812 352.27025 
L 131.311356 352.27025 
L 131.311356 348.434 
L 137.794624 348.434 
L 137.794624 340.7615 
L 148.60007 340.7615 
L 148.60007 336.92525 
L 150.76116 336.92525 
L 150.76116 333.089 
L 151.841704 333.089 
L 151.841704 329.25275 
L 160.486061 329.25275 
L 160.486061 321.58025 
L 161.566606 321.58025 
L 161.566606 313.90775 
L 165.888784 313.90775 
L 165.888784 306.23525 
L 174.533141 306.23525 
L 174.533141 302.399 
L 176.694231 302.399 
L 176.694231 298.56275 
L 195.063489 298.56275 
L 195.063489 294.7265 
L 197.224579 294.7265 
L 197.224579 287.054 
L 219.916016 287.054 
L 219.916016 283.21775 
L 243.687998 283.21775 
L 243.687998 279.3815 
L 258.815623 279.3815 
L 258.815623 275.54525 
L 262.057256 275.54525 
L 262.057256 271.709 
L 263.137801 271.709 
L 263.137801 267.87275 
L 279.34597 267.87275 
L 279.34597 264.0365 
L 281.50706 264.0365 
L 281.50706 260.20025 
L 318.245577 260.20025 
L 318.245577 252.52775 
L 334.453747 252.52775 
L 334.453747 248.6915 
L 335.534291 248.6915 
L 335.534291 244.85525 
L 340.937014 244.85525 
L 340.937014 241.019 
L 347.420282 241.019 
L 347.420282 233.3465 
L 348.500827 233.3465 
L 348.500827 229.51025 
L 350.661916 229.51025 
L 350.661916 225.674 
L 353.90355 225.674 
L 353.90355 221.83775 
L 357.145184 221.83775 
L 357.145184 218.0015 
L 359.306273 218.0015 
L 359.306273 214.16525 
L 371.192264 214.16525 
L 371.192264 210.329 
L 376.594987 210.329 
L 376.594987 206.49275 
L 383.078255 206.49275 
L 383.078255 202.6565 
L 393.883701 202.6565 
L 393.883701 198.82025 
L 407.930781 198.82025 
L 407.930781 194.984 
L 412.25296 194.984 
L 412.25296 191.14775 
L 413.333505 191.14775 
L 413.333505 183.47525 
L 416.575138 183.47525 
L 416.575138 179.639 
L 437.105486 179.639 
L 437.105486 175.80275 
L 443.588754 175.80275 
L 443.588754 171.9665 
L 446.830388 171.9665 
L 446.830388 168.13025 
L 452.233111 168.13025 
L 452.233111 164.294 
L 454.3942 164.294 
L 454.3942 160.45775 
L 466.280191 160.45775 
L 466.280191 156.6215 
L 470.60237 156.6215 
L 470.60237 152.78525 
L 479.246727 152.78525 
L 479.246727 148.949 
L 488.971629 148.949 
L 488.971629 145.11275 
L 490.052173 145.11275 
L 490.052173 137.44025 
L 491.132718 137.44025 
L 491.132718 133.604 
L 492.213262 133.604 
L 492.213262 129.76775 
L 498.69653 129.76775 
L 498.69653 125.9315 
L 499.777075 125.9315 
L 499.777075 122.09525 
L 505.179798 122.09525 
L 505.179798 118.259 
L 506.260343 118.259 
L 506.260343 114.42275 
L 507.340887 114.42275 
L 507.340887 110.5865 
L 521.387967 110.5865 
L 521.387967 106.75025 
L 531.112869 106.75025 
L 531.112869 102.914 
L 557.04594 102.914 
L 557.04594 99.07775 
L 561.368119 99.07775 
L 561.368119 91.40525 
L 575.415199 91.40525 
L 575.415199 87.569 
L 588.381734 87.569 
L 588.381734 83.73275 
L 601.34827 83.73275 
L 601.34827 79.8965 
L 603.509359 79.8965 
L 603.509359 76.06025 
L 616.475895 76.06025 
L 616.475895 72.224 
L 622.959163 72.224 
L 622.959163 68.38775 
L 638.086787 68.38775 
L 638.086787 64.5515 
L 658.617135 64.5515 
L 658.617135 60.71525 
L 661.858769 60.71525 
L 661.858769 56.879 
L 669.422582 56.879 
L 669.422582 53.04275 
L 672.664216 53.04275 
L 672.664216 49.2065 
L 673.74476 49.2065 
L 673.74476 45.37025 
L 702.919465 45.37025 
L 702.919465 41.534 
L 705.080554 41.534 
L 705.080554 37.69775 
L 724.530358 37.69775 
L 724.530358 33.8615 
L 731.013626 33.8615 
L 731.013626 30.02525 
L 756.946697 30.02525 
L 756.946697 26.189 
L 776.3965 26.189 
L 776.3965 26.189 
" style="fill:none;stroke:#6acc65;stroke-linecap:round;stroke-width:2.8000000000000003;"/>
   </g>
   <g id="line2d_28">
    <path clip-path="url(#p595801406d)" d="M 62.1565 517.229 
L 776.3965 26.189 
" style="fill:none;stroke:#000000;stroke-dasharray:6.000000,6.000000;stroke-dashoffset:0.0;stroke-width:2.8000000000000003;"/>
   </g>
   <g id="line2d_29">
    <path clip-path="url(#p595801406d)" d="M 62.1565 513.39275 
L 62.1565 448.1765 
L 63.237045 448.1765 
L 63.237045 390.63275 
L 63.237045 379.124 
L 63.237045 352.27025 
L 64.317589 352.27025 
L 64.317589 348.434 
L 65.398134 348.434 
L 65.398134 340.7615 
L 66.478679 340.7615 
L 66.478679 329.25275 
L 67.559223 329.25275 
L 67.559223 325.4165 
L 68.639768 325.4165 
L 68.639768 290.89025 
L 69.720312 290.89025 
L 69.720312 275.54525 
L 70.800857 275.54525 
L 70.800857 248.6915 
L 71.881402 248.6915 
L 71.881402 244.85525 
L 74.042491 244.85525 
L 74.042491 237.18275 
L 75.123036 237.18275 
L 75.123036 221.83775 
L 76.20358 221.83775 
L 76.20358 206.49275 
L 77.284125 206.49275 
L 77.284125 191.14775 
L 78.364669 191.14775 
L 78.364669 179.639 
L 79.445214 179.639 
L 79.445214 175.80275 
L 82.686848 175.80275 
L 82.686848 156.6215 
L 83.767393 156.6215 
L 83.767393 152.78525 
L 85.928482 152.78525 
L 85.928482 137.44025 
L 88.089571 137.44025 
L 88.089571 133.604 
L 89.170116 133.604 
L 89.170116 129.76775 
L 90.25066 129.76775 
L 90.25066 125.9315 
L 92.41175 125.9315 
L 92.41175 118.259 
L 93.492294 118.259 
L 93.492294 114.42275 
L 94.572839 114.42275 
L 94.572839 110.5865 
L 96.733928 110.5865 
L 96.733928 106.75025 
L 101.056107 106.75025 
L 101.056107 102.914 
L 102.136651 102.914 
L 102.136651 99.07775 
L 103.217196 99.07775 
L 103.217196 95.2415 
L 105.378285 95.2415 
L 105.378285 91.40525 
L 106.45883 91.40525 
L 106.45883 87.569 
L 107.539374 87.569 
L 107.539374 83.73275 
L 109.700464 83.73275 
L 109.700464 76.06025 
L 112.942098 76.06025 
L 112.942098 72.224 
L 119.425365 72.224 
L 119.425365 68.38775 
L 143.197347 68.38775 
L 143.197347 64.5515 
L 149.680615 64.5515 
L 149.680615 60.71525 
L 150.76116 60.71525 
L 150.76116 56.879 
L 151.841704 56.879 
L 151.841704 53.04275 
L 244.768542 53.04275 
L 246.929632 53.04275 
L 357.145184 53.04275 
L 359.306273 53.04275 
L 484.64945 53.04275 
L 484.64945 49.2065 
L 518.146334 49.2065 
L 518.146334 45.37025 
L 540.837771 45.37025 
L 540.837771 41.534 
L 562.448663 41.534 
L 562.448663 37.69775 
L 605.670449 37.69775 
L 605.670449 33.8615 
L 676.986394 33.8615 
L 676.986394 30.02525 
L 710.483278 30.02525 
L 710.483278 26.189 
L 776.3965 26.189 
" style="fill:none;stroke:#d65f5f;stroke-linecap:round;stroke-width:2.8000000000000003;"/>
   </g>
   <g id="line2d_30">
    <path clip-path="url(#p595801406d)" d="M 62.1565 517.229 
L 776.3965 26.189 
" style="fill:none;stroke:#000000;stroke-dasharray:6.000000,6.000000;stroke-dashoffset:0.0;stroke-width:2.8000000000000003;"/>
   </g>
   <g id="patch_3">
    <path d="M 776.3965 517.229 
L 776.3965 26.189 
" style="fill:none;stroke:#262626;stroke-linecap:square;stroke-linejoin:miter;stroke-width:1.25;"/>
   </g>
   <g id="patch_4">
    <path d="M 62.1565 26.189 
L 776.3965 26.189 
" style="fill:none;stroke:#262626;stroke-linecap:square;stroke-linejoin:miter;stroke-width:1.25;"/>
   </g>
   <g id="patch_5">
    <path d="M 62.1565 517.229 
L 776.3965 517.229 
" style="fill:none;stroke:#262626;stroke-linecap:square;stroke-linejoin:miter;stroke-width:1.25;"/>
   </g>
   <g id="patch_6">
    <path d="M 62.1565 517.229 
L 62.1565 26.189 
" style="fill:none;stroke:#262626;stroke-linecap:square;stroke-linejoin:miter;stroke-width:1.25;"/>
   </g>
   <g id="text_15">
    <!-- Receiver Operating Characteristic -->
    <defs>
     <path d="M 4.828125 34.859375 
Q 4.828125 52.6875 14.390625 62.765625 
Q 23.96875 72.859375 39.109375 72.859375 
Q 49.03125 72.859375 56.984375 68.109375 
Q 64.9375 63.375 69.109375 54.90625 
Q 73.296875 46.4375 73.296875 35.6875 
Q 73.296875 24.8125 68.890625 16.21875 
Q 64.5 7.625 56.4375 3.203125 
Q 48.390625 -1.21875 39.0625 -1.21875 
Q 28.953125 -1.21875 20.984375 3.65625 
Q 13.03125 8.546875 8.921875 16.984375 
Q 4.828125 25.4375 4.828125 34.859375 
M 14.59375 34.71875 
Q 14.59375 21.78125 21.546875 14.328125 
Q 28.515625 6.890625 39.015625 6.890625 
Q 49.703125 6.890625 56.609375 14.40625 
Q 63.53125 21.921875 63.53125 35.75 
Q 63.53125 44.484375 60.578125 51 
Q 57.625 57.515625 51.921875 61.109375 
Q 46.234375 64.703125 39.15625 64.703125 
Q 29.109375 64.703125 21.84375 57.78125 
Q 14.59375 50.875 14.59375 34.71875 
" id="ArialMT-4f"/>
     <path d="M 6.59375 0 
L 6.59375 71.578125 
L 15.375 71.578125 
L 15.375 45.90625 
Q 21.53125 53.03125 30.90625 53.03125 
Q 36.671875 53.03125 40.921875 50.75 
Q 45.171875 48.484375 47 44.484375 
Q 48.828125 40.484375 48.828125 32.859375 
L 48.828125 0 
L 40.046875 0 
L 40.046875 32.859375 
Q 40.046875 39.453125 37.1875 42.453125 
Q 34.328125 45.453125 29.109375 45.453125 
Q 25.203125 45.453125 21.75 43.421875 
Q 18.3125 41.40625 16.84375 37.9375 
Q 15.375 34.46875 15.375 28.375 
L 15.375 0 
z
" id="ArialMT-68"/>
     <path d="M 4.984375 -4.296875 
L 13.53125 -5.5625 
Q 14.0625 -9.515625 16.5 -11.328125 
Q 19.78125 -13.765625 25.4375 -13.765625 
Q 31.546875 -13.765625 34.859375 -11.328125 
Q 38.1875 -8.890625 39.359375 -4.5 
Q 40.046875 -1.8125 39.984375 6.78125 
Q 34.234375 0 25.640625 0 
Q 14.9375 0 9.078125 7.71875 
Q 3.21875 15.4375 3.21875 26.21875 
Q 3.21875 33.640625 5.90625 39.90625 
Q 8.59375 46.1875 13.6875 49.609375 
Q 18.796875 53.03125 25.6875 53.03125 
Q 34.859375 53.03125 40.828125 45.609375 
L 40.828125 51.859375 
L 48.921875 51.859375 
L 48.921875 7.03125 
Q 48.921875 -5.078125 46.453125 -10.125 
Q 44 -15.1875 38.640625 -18.109375 
Q 33.296875 -21.046875 25.484375 -21.046875 
Q 16.21875 -21.046875 10.5 -16.875 
Q 4.78125 -12.703125 4.984375 -4.296875 
M 12.25 26.859375 
Q 12.25 16.65625 16.296875 11.96875 
Q 20.359375 7.28125 26.46875 7.28125 
Q 32.515625 7.28125 36.609375 11.9375 
Q 40.71875 16.609375 40.71875 26.5625 
Q 40.71875 36.078125 36.5 40.90625 
Q 32.28125 45.75 26.3125 45.75 
Q 20.453125 45.75 16.34375 40.984375 
Q 12.25 36.234375 12.25 26.859375 
" id="ArialMT-67"/>
     <path d="M 58.796875 25.09375 
L 68.265625 22.703125 
Q 65.28125 11.03125 57.546875 4.90625 
Q 49.8125 -1.21875 38.625 -1.21875 
Q 27.046875 -1.21875 19.796875 3.484375 
Q 12.546875 8.203125 8.765625 17.140625 
Q 4.984375 26.078125 4.984375 36.328125 
Q 4.984375 47.515625 9.25 55.828125 
Q 13.53125 64.15625 21.40625 68.46875 
Q 29.296875 72.796875 38.765625 72.796875 
Q 49.515625 72.796875 56.828125 67.328125 
Q 64.15625 61.859375 67.046875 51.953125 
L 57.71875 49.75 
Q 55.21875 57.5625 50.484375 61.125 
Q 45.75 64.703125 38.578125 64.703125 
Q 30.328125 64.703125 24.78125 60.734375 
Q 19.234375 56.78125 16.984375 50.109375 
Q 14.75 43.453125 14.75 36.375 
Q 14.75 27.25 17.40625 20.4375 
Q 20.0625 13.625 25.671875 10.25 
Q 31.296875 6.890625 37.84375 6.890625 
Q 45.796875 6.890625 51.3125 11.46875 
Q 56.84375 16.0625 58.796875 25.09375 
" id="ArialMT-43"/>
    </defs>
    <g style="fill:#262626;" transform="translate(275.2285 21.189)scale(0.19200000000000003 -0.19200000000000003)">
     <use xlink:href="#ArialMT-52"/>
     <use x="72.216796875" xlink:href="#ArialMT-65"/>
     <use x="127.83203125" xlink:href="#ArialMT-63"/>
     <use x="177.83203125" xlink:href="#ArialMT-65"/>
     <use x="233.447265625" xlink:href="#ArialMT-69"/>
     <use x="255.6640625" xlink:href="#ArialMT-76"/>
     <use x="305.6640625" xlink:href="#ArialMT-65"/>
     <use x="361.279296875" xlink:href="#ArialMT-72"/>
     <use x="394.580078125" xlink:href="#ArialMT-20"/>
     <use x="422.36328125" xlink:href="#ArialMT-4f"/>
     <use x="500.146484375" xlink:href="#ArialMT-70"/>
     <use x="555.76171875" xlink:href="#ArialMT-65"/>
     <use x="611.376953125" xlink:href="#ArialMT-72"/>
     <use x="644.677734375" xlink:href="#ArialMT-61"/>
     <use x="700.29296875" xlink:href="#ArialMT-74"/>
     <use x="728.076171875" xlink:href="#ArialMT-69"/>
     <use x="750.29296875" xlink:href="#ArialMT-6e"/>
     <use x="805.908203125" xlink:href="#ArialMT-67"/>
     <use x="861.5234375" xlink:href="#ArialMT-20"/>
     <use x="889.306640625" xlink:href="#ArialMT-43"/>
     <use x="961.5234375" xlink:href="#ArialMT-68"/>
     <use x="1017.138671875" xlink:href="#ArialMT-61"/>
     <use x="1072.75390625" xlink:href="#ArialMT-72"/>
     <use x="1106.0546875" xlink:href="#ArialMT-61"/>
     <use x="1161.669921875" xlink:href="#ArialMT-63"/>
     <use x="1211.669921875" xlink:href="#ArialMT-74"/>
     <use x="1239.453125" xlink:href="#ArialMT-65"/>
     <use x="1295.068359375" xlink:href="#ArialMT-72"/>
     <use x="1328.369140625" xlink:href="#ArialMT-69"/>
     <use x="1350.5859375" xlink:href="#ArialMT-73"/>
     <use x="1400.5859375" xlink:href="#ArialMT-74"/>
     <use x="1428.369140625" xlink:href="#ArialMT-69"/>
     <use x="1450.5859375" xlink:href="#ArialMT-63"/>
    </g>
   </g>
   <g id="legend_1">
    <g id="line2d_31">
     <path d="M 347.724 447.8115 
L 379.724 447.8115 
" style="fill:none;stroke:#4878cf;stroke-linecap:round;stroke-width:2.8000000000000003;"/>
    </g>
    <g id="line2d_32"/>
    <g id="text_16">
     <!-- ROC curve (area = 0.89,GradientBoostingClassifier) -->
     <defs>
      <path d="M 40.234375 0 
L 40.234375 6.546875 
Q 35.296875 -1.171875 25.734375 -1.171875 
Q 19.53125 -1.171875 14.328125 2.25 
Q 9.125 5.671875 6.265625 11.796875 
Q 3.421875 17.921875 3.421875 25.875 
Q 3.421875 33.640625 6 39.96875 
Q 8.59375 46.296875 13.765625 49.65625 
Q 18.953125 53.03125 25.34375 53.03125 
Q 30.03125 53.03125 33.6875 51.046875 
Q 37.359375 49.078125 39.65625 45.90625 
L 39.65625 71.578125 
L 48.390625 71.578125 
L 48.390625 0 
z
M 12.453125 25.875 
Q 12.453125 15.921875 16.640625 10.984375 
Q 20.84375 6.0625 26.5625 6.0625 
Q 32.328125 6.0625 36.34375 10.765625 
Q 40.375 15.484375 40.375 25.140625 
Q 40.375 35.796875 36.265625 40.765625 
Q 32.171875 45.75 26.171875 45.75 
Q 20.3125 45.75 16.375 40.96875 
Q 12.453125 36.1875 12.453125 25.875 
" id="ArialMT-64"/>
      <path d="M 8.890625 0 
L 8.890625 10.015625 
L 18.890625 10.015625 
L 18.890625 0 
Q 18.890625 -5.515625 16.9375 -8.90625 
Q 14.984375 -12.3125 10.75 -14.15625 
L 8.296875 -10.40625 
Q 11.078125 -9.1875 12.390625 -6.8125 
Q 13.71875 -4.4375 13.875 0 
z
" id="ArialMT-2c"/>
      <path d="M 7.328125 0 
L 7.328125 71.578125 
L 34.1875 71.578125 
Q 42.390625 71.578125 47.34375 69.40625 
Q 52.296875 67.234375 55.09375 62.71875 
Q 57.90625 58.203125 57.90625 53.265625 
Q 57.90625 48.6875 55.421875 44.625 
Q 52.9375 40.578125 47.90625 38.09375 
Q 54.390625 36.1875 57.875 31.59375 
Q 61.375 27 61.375 20.75 
Q 61.375 15.71875 59.25 11.390625 
Q 57.125 7.078125 54 4.734375 
Q 50.875 2.390625 46.15625 1.1875 
Q 41.453125 0 34.625 0 
z
M 16.796875 41.5 
L 32.28125 41.5 
Q 38.578125 41.5 41.3125 42.328125 
Q 44.921875 43.40625 46.75 45.890625 
Q 48.578125 48.390625 48.578125 52.15625 
Q 48.578125 55.71875 46.875 58.421875 
Q 45.171875 61.140625 41.984375 62.140625 
Q 38.8125 63.140625 31.109375 63.140625 
L 16.796875 63.140625 
z
M 16.796875 8.453125 
L 34.625 8.453125 
Q 39.203125 8.453125 41.0625 8.796875 
Q 44.34375 9.375 46.53125 10.734375 
Q 48.734375 12.109375 50.140625 14.71875 
Q 51.5625 17.328125 51.5625 20.75 
Q 51.5625 24.75 49.515625 27.703125 
Q 47.46875 30.671875 43.828125 31.859375 
Q 40.1875 33.0625 33.34375 33.0625 
L 16.796875 33.0625 
z
" id="ArialMT-42"/>
      <path d="M 41.21875 28.078125 
L 41.21875 36.46875 
L 71.53125 36.53125 
L 71.53125 9.96875 
Q 64.546875 4.390625 57.125 1.578125 
Q 49.703125 -1.21875 41.890625 -1.21875 
Q 31.34375 -1.21875 22.71875 3.296875 
Q 14.109375 7.8125 9.71875 16.359375 
Q 5.328125 24.90625 5.328125 35.453125 
Q 5.328125 45.90625 9.6875 54.953125 
Q 14.0625 64.015625 22.265625 68.40625 
Q 30.46875 72.796875 41.15625 72.796875 
Q 48.921875 72.796875 55.1875 70.28125 
Q 61.46875 67.78125 65.03125 63.28125 
Q 68.609375 58.796875 70.453125 51.5625 
L 61.921875 49.21875 
Q 60.296875 54.6875 57.90625 57.8125 
Q 55.515625 60.9375 51.0625 62.8125 
Q 46.625 64.703125 41.21875 64.703125 
Q 34.71875 64.703125 29.984375 62.71875 
Q 25.25 60.75 22.34375 57.515625 
Q 19.4375 54.296875 17.828125 50.4375 
Q 15.09375 43.796875 15.09375 36.03125 
Q 15.09375 26.46875 18.390625 20.015625 
Q 21.6875 13.578125 27.984375 10.453125 
Q 34.28125 7.328125 41.359375 7.328125 
Q 47.515625 7.328125 53.375 9.6875 
Q 59.234375 12.0625 62.25 14.75 
L 62.25 28.078125 
z
" id="ArialMT-47"/>
      <path d="M 5.46875 16.546875 
L 13.921875 17.328125 
Q 14.984375 11.375 18.015625 8.6875 
Q 21.046875 6 25.78125 6 
Q 29.828125 6 32.875 7.859375 
Q 35.9375 9.71875 37.890625 12.8125 
Q 39.84375 15.921875 41.15625 21.1875 
Q 42.484375 26.46875 42.484375 31.9375 
Q 42.484375 32.515625 42.4375 33.6875 
Q 39.796875 29.5 35.234375 26.875 
Q 30.671875 24.265625 25.34375 24.265625 
Q 16.453125 24.265625 10.296875 30.703125 
Q 4.15625 37.15625 4.15625 47.703125 
Q 4.15625 58.59375 10.578125 65.234375 
Q 17 71.875 26.65625 71.875 
Q 33.640625 71.875 39.421875 68.109375 
Q 45.21875 64.359375 48.21875 57.390625 
Q 51.21875 50.4375 51.21875 37.25 
Q 51.21875 23.53125 48.234375 15.40625 
Q 45.265625 7.28125 39.375 3.03125 
Q 33.5 -1.21875 25.59375 -1.21875 
Q 17.1875 -1.21875 11.859375 3.4375 
Q 6.546875 8.109375 5.46875 16.546875 
M 41.453125 48.140625 
Q 41.453125 55.71875 37.421875 60.15625 
Q 33.40625 64.59375 27.734375 64.59375 
Q 21.875 64.59375 17.53125 59.8125 
Q 13.1875 55.03125 13.1875 47.40625 
Q 13.1875 40.578125 17.3125 36.296875 
Q 21.4375 32.03125 27.484375 32.03125 
Q 33.59375 32.03125 37.515625 36.296875 
Q 41.453125 40.578125 41.453125 48.140625 
" id="ArialMT-39"/>
      <path d="M 52.828125 42.09375 
L 5.5625 42.09375 
L 5.5625 50.296875 
L 52.828125 50.296875 
z
M 52.828125 20.359375 
L 5.5625 20.359375 
L 5.5625 28.5625 
L 52.828125 28.5625 
z
" id="ArialMT-3d"/>
     </defs>
     <g style="fill:#262626;" transform="translate(392.524 453.4115)scale(0.16 -0.16)">
      <use xlink:href="#ArialMT-52"/>
      <use x="72.216796875" xlink:href="#ArialMT-4f"/>
      <use x="150.0" xlink:href="#ArialMT-43"/>
      <use x="222.216796875" xlink:href="#ArialMT-20"/>
      <use x="250.0" xlink:href="#ArialMT-63"/>
      <use x="300.0" xlink:href="#ArialMT-75"/>
      <use x="355.615234375" xlink:href="#ArialMT-72"/>
      <use x="388.916015625" xlink:href="#ArialMT-76"/>
      <use x="438.916015625" xlink:href="#ArialMT-65"/>
      <use x="494.53125" xlink:href="#ArialMT-20"/>
      <use x="522.314453125" xlink:href="#ArialMT-28"/>
      <use x="555.615234375" xlink:href="#ArialMT-61"/>
      <use x="611.23046875" xlink:href="#ArialMT-72"/>
      <use x="644.53125" xlink:href="#ArialMT-65"/>
      <use x="700.146484375" xlink:href="#ArialMT-61"/>
      <use x="755.76171875" xlink:href="#ArialMT-20"/>
      <use x="783.544921875" xlink:href="#ArialMT-3d"/>
      <use x="841.943359375" xlink:href="#ArialMT-20"/>
      <use x="869.7265625" xlink:href="#ArialMT-30"/>
      <use x="925.341796875" xlink:href="#ArialMT-2e"/>
      <use x="953.125" xlink:href="#ArialMT-38"/>
      <use x="1008.740234375" xlink:href="#ArialMT-39"/>
      <use x="1064.35546875" xlink:href="#ArialMT-2c"/>
      <use x="1092.138671875" xlink:href="#ArialMT-47"/>
      <use x="1169.921875" xlink:href="#ArialMT-72"/>
      <use x="1203.22265625" xlink:href="#ArialMT-61"/>
      <use x="1258.837890625" xlink:href="#ArialMT-64"/>
      <use x="1314.453125" xlink:href="#ArialMT-69"/>
      <use x="1336.669921875" xlink:href="#ArialMT-65"/>
      <use x="1392.28515625" xlink:href="#ArialMT-6e"/>
      <use x="1447.900390625" xlink:href="#ArialMT-74"/>
      <use x="1475.68359375" xlink:href="#ArialMT-42"/>
      <use x="1542.3828125" xlink:href="#ArialMT-6f"/>
      <use x="1597.998046875" xlink:href="#ArialMT-6f"/>
      <use x="1653.61328125" xlink:href="#ArialMT-73"/>
      <use x="1703.61328125" xlink:href="#ArialMT-74"/>
      <use x="1731.396484375" xlink:href="#ArialMT-69"/>
      <use x="1753.61328125" xlink:href="#ArialMT-6e"/>
      <use x="1809.228515625" xlink:href="#ArialMT-67"/>
      <use x="1864.84375" xlink:href="#ArialMT-43"/>
      <use x="1937.060546875" xlink:href="#ArialMT-6c"/>
      <use x="1959.27734375" xlink:href="#ArialMT-61"/>
      <use x="2014.892578125" xlink:href="#ArialMT-73"/>
      <use x="2064.892578125" xlink:href="#ArialMT-73"/>
      <use x="2114.892578125" xlink:href="#ArialMT-69"/>
      <use x="2137.109375" xlink:href="#ArialMT-66"/>
      <use x="2164.892578125" xlink:href="#ArialMT-69"/>
      <use x="2187.109375" xlink:href="#ArialMT-65"/>
      <use x="2242.724609375" xlink:href="#ArialMT-72"/>
      <use x="2276.025390625" xlink:href="#ArialMT-29"/>
     </g>
    </g>
    <g id="line2d_33">
     <path d="M 347.724 470.8365 
L 379.724 470.8365 
" style="fill:none;stroke:#6acc65;stroke-linecap:round;stroke-width:2.8000000000000003;"/>
    </g>
    <g id="line2d_34"/>
    <g id="text_17">
     <!-- ROC curve (area = 0.66,LogisticRegression) -->
     <defs>
      <path d="M 7.328125 0 
L 7.328125 71.578125 
L 16.796875 71.578125 
L 16.796875 8.453125 
L 52.046875 8.453125 
L 52.046875 0 
z
" id="ArialMT-4c"/>
     </defs>
     <g style="fill:#262626;" transform="translate(392.524 476.4365)scale(0.16 -0.16)">
      <use xlink:href="#ArialMT-52"/>
      <use x="72.216796875" xlink:href="#ArialMT-4f"/>
      <use x="150.0" xlink:href="#ArialMT-43"/>
      <use x="222.216796875" xlink:href="#ArialMT-20"/>
      <use x="250.0" xlink:href="#ArialMT-63"/>
      <use x="300.0" xlink:href="#ArialMT-75"/>
      <use x="355.615234375" xlink:href="#ArialMT-72"/>
      <use x="388.916015625" xlink:href="#ArialMT-76"/>
      <use x="438.916015625" xlink:href="#ArialMT-65"/>
      <use x="494.53125" xlink:href="#ArialMT-20"/>
      <use x="522.314453125" xlink:href="#ArialMT-28"/>
      <use x="555.615234375" xlink:href="#ArialMT-61"/>
      <use x="611.23046875" xlink:href="#ArialMT-72"/>
      <use x="644.53125" xlink:href="#ArialMT-65"/>
      <use x="700.146484375" xlink:href="#ArialMT-61"/>
      <use x="755.76171875" xlink:href="#ArialMT-20"/>
      <use x="783.544921875" xlink:href="#ArialMT-3d"/>
      <use x="841.943359375" xlink:href="#ArialMT-20"/>
      <use x="869.7265625" xlink:href="#ArialMT-30"/>
      <use x="925.341796875" xlink:href="#ArialMT-2e"/>
      <use x="953.125" xlink:href="#ArialMT-36"/>
      <use x="1008.740234375" xlink:href="#ArialMT-36"/>
      <use x="1064.35546875" xlink:href="#ArialMT-2c"/>
      <use x="1092.138671875" xlink:href="#ArialMT-4c"/>
      <use x="1147.75390625" xlink:href="#ArialMT-6f"/>
      <use x="1203.369140625" xlink:href="#ArialMT-67"/>
      <use x="1258.984375" xlink:href="#ArialMT-69"/>
      <use x="1281.201171875" xlink:href="#ArialMT-73"/>
      <use x="1331.201171875" xlink:href="#ArialMT-74"/>
      <use x="1358.984375" xlink:href="#ArialMT-69"/>
      <use x="1381.201171875" xlink:href="#ArialMT-63"/>
      <use x="1431.201171875" xlink:href="#ArialMT-52"/>
      <use x="1503.41796875" xlink:href="#ArialMT-65"/>
      <use x="1559.033203125" xlink:href="#ArialMT-67"/>
      <use x="1614.6484375" xlink:href="#ArialMT-72"/>
      <use x="1647.94921875" xlink:href="#ArialMT-65"/>
      <use x="1703.564453125" xlink:href="#ArialMT-73"/>
      <use x="1753.564453125" xlink:href="#ArialMT-73"/>
      <use x="1803.564453125" xlink:href="#ArialMT-69"/>
      <use x="1825.78125" xlink:href="#ArialMT-6f"/>
      <use x="1881.396484375" xlink:href="#ArialMT-6e"/>
      <use x="1937.01171875" xlink:href="#ArialMT-29"/>
     </g>
    </g>
    <g id="line2d_35">
     <path d="M 347.724 493.8615 
L 379.724 493.8615 
" style="fill:none;stroke:#d65f5f;stroke-linecap:round;stroke-width:2.8000000000000003;"/>
    </g>
    <g id="line2d_36"/>
    <g id="text_18">
     <!-- ROC curve (area = 0.94,SVC) -->
     <defs>
      <path d="M 28.171875 0 
L 0.4375 71.578125 
L 10.6875 71.578125 
L 29.296875 19.578125 
Q 31.546875 13.328125 33.0625 7.859375 
Q 34.71875 13.71875 36.921875 19.578125 
L 56.25 71.578125 
L 65.921875 71.578125 
L 37.890625 0 
z
" id="ArialMT-56"/>
     </defs>
     <g style="fill:#262626;" transform="translate(392.524 499.4615)scale(0.16 -0.16)">
      <use xlink:href="#ArialMT-52"/>
      <use x="72.216796875" xlink:href="#ArialMT-4f"/>
      <use x="150.0" xlink:href="#ArialMT-43"/>
      <use x="222.216796875" xlink:href="#ArialMT-20"/>
      <use x="250.0" xlink:href="#ArialMT-63"/>
      <use x="300.0" xlink:href="#ArialMT-75"/>
      <use x="355.615234375" xlink:href="#ArialMT-72"/>
      <use x="388.916015625" xlink:href="#ArialMT-76"/>
      <use x="438.916015625" xlink:href="#ArialMT-65"/>
      <use x="494.53125" xlink:href="#ArialMT-20"/>
      <use x="522.314453125" xlink:href="#ArialMT-28"/>
      <use x="555.615234375" xlink:href="#ArialMT-61"/>
      <use x="611.23046875" xlink:href="#ArialMT-72"/>
      <use x="644.53125" xlink:href="#ArialMT-65"/>
      <use x="700.146484375" xlink:href="#ArialMT-61"/>
      <use x="755.76171875" xlink:href="#ArialMT-20"/>
      <use x="783.544921875" xlink:href="#ArialMT-3d"/>
      <use x="841.943359375" xlink:href="#ArialMT-20"/>
      <use x="869.7265625" xlink:href="#ArialMT-30"/>
      <use x="925.341796875" xlink:href="#ArialMT-2e"/>
      <use x="953.125" xlink:href="#ArialMT-39"/>
      <use x="1008.740234375" xlink:href="#ArialMT-34"/>
      <use x="1064.35546875" xlink:href="#ArialMT-2c"/>
      <use x="1092.138671875" xlink:href="#ArialMT-53"/>
      <use x="1158.837890625" xlink:href="#ArialMT-56"/>
      <use x="1225.537109375" xlink:href="#ArialMT-43"/>
      <use x="1297.75390625" xlink:href="#ArialMT-29"/>
     </g>
    </g>
   </g>
  </g>
 </g>
 <defs>
  <clipPath id="p595801406d">
   <rect height="491.04" width="714.24" x="62.1565" y="26.189"/>
  </clipPath>
 </defs>
</svg>
