<?xml version="1.0" encoding="utf-8" standalone="no"?>
<!DOCTYPE svg PUBLIC "-//W3C//DTD SVG 1.1//EN"
  "http://www.w3.org/Graphics/SVG/1.1/DTD/svg11.dtd">
<!-- Created with matplotlib (http://matplotlib.org/) -->
<svg height="571pt" version="1.1" viewBox="0 0 794 571" width="794pt" xmlns="http://www.w3.org/2000/svg" xmlns:xlink="http://www.w3.org/1999/xlink">
 <defs>
  <style type="text/css">
*{stroke-linecap:butt;stroke-linejoin:round;stroke-miterlimit:100000;}
  </style>
 </defs>
 <g id="figure_1">
  <g id="patch_1">
   <path d="M 0 571.778 
L 794.7165 571.778 
L 794.7165 0 
L 0 0 
L 0 571.778 
z
" style="fill:none;"/>
  </g>
  <g id="axes_1">
   <g id="patch_2">
    <path d="M 62.1565 517.229 
L 776.3965 517.229 
L 776.3965 26.189 
L 62.1565 26.189 
L 62.1565 517.229 
z
" style="fill:none;"/>
   </g>
   <g id="matplotlib.axis_1">
    <g id="xtick_1">
     <g id="line2d_1">
      <defs>
       <path d="M 0 0 
L 0 0 
" id="m065f7bde7a" style="stroke:#262626;stroke-width:1.6;"/>
      </defs>
      <g>
       <use style="fill:#262626;stroke:#262626;stroke-width:1.6;" x="62.1565" xlink:href="#m065f7bde7a" y="517.229"/>
      </g>
     </g>
     <g id="line2d_2">
      <g>
       <use style="fill:#262626;stroke:#262626;stroke-width:1.6;" x="62.1565" xlink:href="#m065f7bde7a" y="26.189"/>
      </g>
     </g>
     <g id="text_1">
      <!-- 0.0 -->
      <defs>
       <path d="M 4.15625 35.296875 
Q 4.15625 48 6.765625 55.734375 
Q 9.375 63.484375 14.515625 67.671875 
Q 19.671875 71.875 27.484375 71.875 
Q 33.25 71.875 37.59375 69.546875 
Q 41.9375 67.234375 44.765625 62.859375 
Q 47.609375 58.5 49.21875 52.21875 
Q 50.828125 45.953125 50.828125 35.296875 
Q 50.828125 22.703125 48.234375 14.96875 
Q 45.65625 7.234375 40.5 3 
Q 35.359375 -1.21875 27.484375 -1.21875 
Q 17.140625 -1.21875 11.234375 6.203125 
Q 4.15625 15.140625 4.15625 35.296875 
M 13.1875 35.296875 
Q 13.1875 17.671875 17.3125 11.828125 
Q 21.4375 6 27.484375 6 
Q 33.546875 6 37.671875 11.859375 
Q 41.796875 17.71875 41.796875 35.296875 
Q 41.796875 52.984375 37.671875 58.78125 
Q 33.546875 64.59375 27.390625 64.59375 
Q 21.34375 64.59375 17.71875 59.46875 
Q 13.1875 52.9375 13.1875 35.296875 
" id="ArialMT-30"/>
       <path d="M 9.078125 0 
L 9.078125 10.015625 
L 19.09375 10.015625 
L 19.09375 0 
z
" id="ArialMT-2e"/>
      </defs>
      <g style="fill:#262626;" transform="translate(51.0365 539.8815)scale(0.16 -0.16)">
       <use xlink:href="#ArialMT-30"/>
       <use x="55.615234375" xlink:href="#ArialMT-2e"/>
       <use x="83.3984375" xlink:href="#ArialMT-30"/>
      </g>
     </g>
    </g>
    <g id="xtick_2">
     <g id="line2d_3">
      <g>
       <use style="fill:#262626;stroke:#262626;stroke-width:1.6;" x="205.0045" xlink:href="#m065f7bde7a" y="517.229"/>
      </g>
     </g>
     <g id="line2d_4">
      <g>
       <use style="fill:#262626;stroke:#262626;stroke-width:1.6;" x="205.0045" xlink:href="#m065f7bde7a" y="26.189"/>
      </g>
     </g>
     <g id="text_2">
      <!-- 0.2 -->
      <defs>
       <path d="M 50.34375 8.453125 
L 50.34375 0 
L 3.03125 0 
Q 2.9375 3.171875 4.046875 6.109375 
Q 5.859375 10.9375 9.828125 15.625 
Q 13.8125 20.3125 21.34375 26.46875 
Q 33.015625 36.03125 37.109375 41.625 
Q 41.21875 47.21875 41.21875 52.203125 
Q 41.21875 57.421875 37.46875 61 
Q 33.734375 64.59375 27.734375 64.59375 
Q 21.390625 64.59375 17.578125 60.78125 
Q 13.765625 56.984375 13.71875 50.25 
L 4.6875 51.171875 
Q 5.609375 61.28125 11.65625 66.578125 
Q 17.71875 71.875 27.9375 71.875 
Q 38.234375 71.875 44.234375 66.15625 
Q 50.25 60.453125 50.25 52 
Q 50.25 47.703125 48.484375 43.546875 
Q 46.734375 39.40625 42.65625 34.8125 
Q 38.578125 30.21875 29.109375 22.21875 
Q 21.1875 15.578125 18.9375 13.203125 
Q 16.703125 10.84375 15.234375 8.453125 
z
" id="ArialMT-32"/>
      </defs>
      <g style="fill:#262626;" transform="translate(193.8845 539.8815)scale(0.16 -0.16)">
       <use xlink:href="#ArialMT-30"/>
       <use x="55.615234375" xlink:href="#ArialMT-2e"/>
       <use x="83.3984375" xlink:href="#ArialMT-32"/>
      </g>
     </g>
    </g>
    <g id="xtick_3">
     <g id="line2d_5">
      <g>
       <use style="fill:#262626;stroke:#262626;stroke-width:1.6;" x="347.8525" xlink:href="#m065f7bde7a" y="517.229"/>
      </g>
     </g>
     <g id="line2d_6">
      <g>
       <use style="fill:#262626;stroke:#262626;stroke-width:1.6;" x="347.8525" xlink:href="#m065f7bde7a" y="26.189"/>
      </g>
     </g>
     <g id="text_3">
      <!-- 0.4 -->
      <defs>
       <path d="M 32.328125 0 
L 32.328125 17.140625 
L 1.265625 17.140625 
L 1.265625 25.203125 
L 33.9375 71.578125 
L 41.109375 71.578125 
L 41.109375 25.203125 
L 50.78125 25.203125 
L 50.78125 17.140625 
L 41.109375 17.140625 
L 41.109375 0 
z
M 32.328125 25.203125 
L 32.328125 57.46875 
L 9.90625 25.203125 
z
" id="ArialMT-34"/>
      </defs>
      <g style="fill:#262626;" transform="translate(336.7325 539.8815)scale(0.16 -0.16)">
       <use xlink:href="#ArialMT-30"/>
       <use x="55.615234375" xlink:href="#ArialMT-2e"/>
       <use x="83.3984375" xlink:href="#ArialMT-34"/>
      </g>
     </g>
    </g>
    <g id="xtick_4">
     <g id="line2d_7">
      <g>
       <use style="fill:#262626;stroke:#262626;stroke-width:1.6;" x="490.7005" xlink:href="#m065f7bde7a" y="517.229"/>
      </g>
     </g>
     <g id="line2d_8">
      <g>
       <use style="fill:#262626;stroke:#262626;stroke-width:1.6;" x="490.7005" xlink:href="#m065f7bde7a" y="26.189"/>
      </g>
     </g>
     <g id="text_4">
      <!-- 0.6 -->
      <defs>
       <path d="M 49.75 54.046875 
L 41.015625 53.375 
Q 39.84375 58.546875 37.703125 60.890625 
Q 34.125 64.65625 28.90625 64.65625 
Q 24.703125 64.65625 21.53125 62.3125 
Q 17.390625 59.28125 14.984375 53.46875 
Q 12.59375 47.65625 12.5 36.921875 
Q 15.671875 41.75 20.265625 44.09375 
Q 24.859375 46.4375 29.890625 46.4375 
Q 38.671875 46.4375 44.84375 39.96875 
Q 51.03125 33.5 51.03125 23.25 
Q 51.03125 16.5 48.125 10.71875 
Q 45.21875 4.9375 40.140625 1.859375 
Q 35.0625 -1.21875 28.609375 -1.21875 
Q 17.625 -1.21875 10.6875 6.859375 
Q 3.765625 14.9375 3.765625 33.5 
Q 3.765625 54.25 11.421875 63.671875 
Q 18.109375 71.875 29.4375 71.875 
Q 37.890625 71.875 43.28125 67.140625 
Q 48.6875 62.40625 49.75 54.046875 
M 13.875 23.1875 
Q 13.875 18.65625 15.796875 14.5 
Q 17.71875 10.359375 21.1875 8.171875 
Q 24.65625 6 28.46875 6 
Q 34.03125 6 38.03125 10.484375 
Q 42.046875 14.984375 42.046875 22.703125 
Q 42.046875 30.125 38.078125 34.390625 
Q 34.125 38.671875 28.125 38.671875 
Q 22.171875 38.671875 18.015625 34.390625 
Q 13.875 30.125 13.875 23.1875 
" id="ArialMT-36"/>
      </defs>
      <g style="fill:#262626;" transform="translate(479.5805 539.8815)scale(0.16 -0.16)">
       <use xlink:href="#ArialMT-30"/>
       <use x="55.615234375" xlink:href="#ArialMT-2e"/>
       <use x="83.3984375" xlink:href="#ArialMT-36"/>
      </g>
     </g>
    </g>
    <g id="xtick_5">
     <g id="line2d_9">
      <g>
       <use style="fill:#262626;stroke:#262626;stroke-width:1.6;" x="633.5485" xlink:href="#m065f7bde7a" y="517.229"/>
      </g>
     </g>
     <g id="line2d_10">
      <g>
       <use style="fill:#262626;stroke:#262626;stroke-width:1.6;" x="633.5485" xlink:href="#m065f7bde7a" y="26.189"/>
      </g>
     </g>
     <g id="text_5">
      <!-- 0.8 -->
      <defs>
       <path d="M 17.671875 38.8125 
Q 12.203125 40.828125 9.5625 44.53125 
Q 6.9375 48.25 6.9375 53.421875 
Q 6.9375 61.234375 12.546875 66.546875 
Q 18.171875 71.875 27.484375 71.875 
Q 36.859375 71.875 42.578125 66.421875 
Q 48.296875 60.984375 48.296875 53.171875 
Q 48.296875 48.1875 45.671875 44.5 
Q 43.0625 40.828125 37.75 38.8125 
Q 44.34375 36.671875 47.78125 31.875 
Q 51.21875 27.09375 51.21875 20.453125 
Q 51.21875 11.28125 44.71875 5.03125 
Q 38.234375 -1.21875 27.640625 -1.21875 
Q 17.046875 -1.21875 10.546875 5.046875 
Q 4.046875 11.328125 4.046875 20.703125 
Q 4.046875 27.6875 7.59375 32.390625 
Q 11.140625 37.109375 17.671875 38.8125 
M 15.921875 53.71875 
Q 15.921875 48.640625 19.1875 45.40625 
Q 22.46875 42.1875 27.6875 42.1875 
Q 32.765625 42.1875 36.015625 45.375 
Q 39.265625 48.578125 39.265625 53.21875 
Q 39.265625 58.0625 35.90625 61.359375 
Q 32.5625 64.65625 27.59375 64.65625 
Q 22.5625 64.65625 19.234375 61.421875 
Q 15.921875 58.203125 15.921875 53.71875 
M 13.09375 20.65625 
Q 13.09375 16.890625 14.875 13.375 
Q 16.65625 9.859375 20.171875 7.921875 
Q 23.6875 6 27.734375 6 
Q 34.03125 6 38.125 10.046875 
Q 42.234375 14.109375 42.234375 20.359375 
Q 42.234375 26.703125 38.015625 30.859375 
Q 33.796875 35.015625 27.4375 35.015625 
Q 21.234375 35.015625 17.15625 30.90625 
Q 13.09375 26.8125 13.09375 20.65625 
" id="ArialMT-38"/>
      </defs>
      <g style="fill:#262626;" transform="translate(622.4285 539.8815)scale(0.16 -0.16)">
       <use xlink:href="#ArialMT-30"/>
       <use x="55.615234375" xlink:href="#ArialMT-2e"/>
       <use x="83.3984375" xlink:href="#ArialMT-38"/>
      </g>
     </g>
    </g>
    <g id="xtick_6">
     <g id="line2d_11">
      <g>
       <use style="fill:#262626;stroke:#262626;stroke-width:1.6;" x="776.3965" xlink:href="#m065f7bde7a" y="517.229"/>
      </g>
     </g>
     <g id="line2d_12">
      <g>
       <use style="fill:#262626;stroke:#262626;stroke-width:1.6;" x="776.3965" xlink:href="#m065f7bde7a" y="26.189"/>
      </g>
     </g>
     <g id="text_6">
      <!-- 1.0 -->
      <defs>
       <path d="M 37.25 0 
L 28.46875 0 
L 28.46875 56 
Q 25.296875 52.984375 20.140625 49.953125 
Q 14.984375 46.921875 10.890625 45.40625 
L 10.890625 53.90625 
Q 18.265625 57.375 23.78125 62.296875 
Q 29.296875 67.234375 31.59375 71.875 
L 37.25 71.875 
z
" id="ArialMT-31"/>
      </defs>
      <g style="fill:#262626;" transform="translate(765.2765 539.8815)scale(0.16 -0.16)">
       <use xlink:href="#ArialMT-31"/>
       <use x="55.615234375" xlink:href="#ArialMT-2e"/>
       <use x="83.3984375" xlink:href="#ArialMT-30"/>
      </g>
     </g>
    </g>
    <g id="text_7">
     <!-- False Positive Rate or (1 - Specifity) -->
     <defs>
      <path d="M 25.78125 7.859375 
L 27.046875 0.09375 
Q 23.34375 -0.6875 20.40625 -0.6875 
Q 15.625 -0.6875 12.984375 0.828125 
Q 10.359375 2.34375 9.28125 4.8125 
Q 8.203125 7.28125 8.203125 15.1875 
L 8.203125 45.015625 
L 1.765625 45.015625 
L 1.765625 51.859375 
L 8.203125 51.859375 
L 8.203125 64.703125 
L 16.9375 69.96875 
L 16.9375 51.859375 
L 25.78125 51.859375 
L 25.78125 45.015625 
L 16.9375 45.015625 
L 16.9375 14.703125 
Q 16.9375 10.9375 17.40625 9.859375 
Q 17.875 8.796875 18.921875 8.15625 
Q 19.96875 7.515625 21.921875 7.515625 
Q 23.390625 7.515625 25.78125 7.859375 
" id="ArialMT-74"/>
      <path d="M 12.359375 -21.046875 
L 6.0625 -21.046875 
Q 20.65625 2.390625 20.65625 25.875 
Q 20.65625 35.0625 18.5625 44.09375 
Q 16.890625 51.421875 13.921875 58.15625 
Q 12.015625 62.546875 6.0625 72.796875 
L 12.359375 72.796875 
Q 21.53125 60.546875 25.921875 48.1875 
Q 29.6875 37.546875 29.6875 25.921875 
Q 29.6875 12.75 24.625 0.4375 
Q 19.578125 -11.859375 12.359375 -21.046875 
" id="ArialMT-29"/>
      <path d="M 8.6875 0 
L 8.6875 45.015625 
L 0.921875 45.015625 
L 0.921875 51.859375 
L 8.6875 51.859375 
L 8.6875 57.375 
Q 8.6875 62.59375 9.625 65.140625 
Q 10.890625 68.5625 14.078125 70.671875 
Q 17.28125 72.796875 23.046875 72.796875 
Q 26.765625 72.796875 31.25 71.921875 
L 29.9375 64.265625 
Q 27.203125 64.75 24.75 64.75 
Q 20.75 64.75 19.09375 63.03125 
Q 17.4375 61.328125 17.4375 56.640625 
L 17.4375 51.859375 
L 27.546875 51.859375 
L 27.546875 45.015625 
L 17.4375 45.015625 
L 17.4375 0 
z
" id="ArialMT-66"/>
      <path d="M 21 0 
L 1.265625 51.859375 
L 10.546875 51.859375 
L 21.6875 20.796875 
Q 23.484375 15.765625 25 10.359375 
Q 26.171875 14.453125 28.265625 20.21875 
L 39.796875 51.859375 
L 48.828125 51.859375 
L 29.203125 0 
z
" id="ArialMT-76"/>
      <path id="ArialMT-20"/>
      <path d="M 40.4375 19 
L 49.078125 17.875 
Q 47.65625 8.9375 41.8125 3.875 
Q 35.984375 -1.171875 27.484375 -1.171875 
Q 16.84375 -1.171875 10.375 5.78125 
Q 3.90625 12.75 3.90625 25.734375 
Q 3.90625 34.125 6.6875 40.421875 
Q 9.46875 46.734375 15.15625 49.875 
Q 20.84375 53.03125 27.546875 53.03125 
Q 35.984375 53.03125 41.359375 48.75 
Q 46.734375 44.484375 48.25 36.625 
L 39.703125 35.296875 
Q 38.484375 40.53125 35.375 43.15625 
Q 32.28125 45.796875 27.875 45.796875 
Q 21.234375 45.796875 17.078125 41.03125 
Q 12.9375 36.28125 12.9375 25.984375 
Q 12.9375 15.53125 16.9375 10.796875 
Q 20.953125 6.0625 27.390625 6.0625 
Q 32.5625 6.0625 36.03125 9.234375 
Q 39.5 12.40625 40.4375 19 
" id="ArialMT-63"/>
      <path d="M 6.5 0 
L 6.5 51.859375 
L 14.40625 51.859375 
L 14.40625 44 
Q 17.4375 49.515625 20 51.265625 
Q 22.5625 53.03125 25.640625 53.03125 
Q 30.078125 53.03125 34.671875 50.203125 
L 31.640625 42.046875 
Q 28.421875 43.953125 25.203125 43.953125 
Q 22.3125 43.953125 20.015625 42.21875 
Q 17.71875 40.484375 16.75 37.40625 
Q 15.28125 32.71875 15.28125 27.15625 
L 15.28125 0 
z
" id="ArialMT-72"/>
      <path d="M 7.859375 0 
L 7.859375 71.578125 
L 39.59375 71.578125 
Q 49.171875 71.578125 54.140625 69.640625 
Q 59.125 67.71875 62.109375 62.828125 
Q 65.09375 57.953125 65.09375 52.046875 
Q 65.09375 44.4375 60.15625 39.203125 
Q 55.21875 33.984375 44.921875 32.5625 
Q 48.6875 30.765625 50.640625 29 
Q 54.78125 25.203125 58.5 19.484375 
L 70.953125 0 
L 59.03125 0 
L 49.5625 14.890625 
Q 45.40625 21.34375 42.71875 24.75 
Q 40.046875 28.171875 37.921875 29.53125 
Q 35.796875 30.90625 33.59375 31.453125 
Q 31.984375 31.78125 28.328125 31.78125 
L 17.328125 31.78125 
L 17.328125 0 
z
M 17.328125 39.984375 
L 37.703125 39.984375 
Q 44.1875 39.984375 47.84375 41.328125 
Q 51.515625 42.671875 53.421875 45.625 
Q 55.328125 48.578125 55.328125 52.046875 
Q 55.328125 57.125 51.640625 60.390625 
Q 47.953125 63.671875 39.984375 63.671875 
L 17.328125 63.671875 
z
" id="ArialMT-52"/>
      <path d="M 3.171875 21.484375 
L 3.171875 30.328125 
L 30.171875 30.328125 
L 30.171875 21.484375 
z
" id="ArialMT-2d"/>
      <path d="M 6.390625 0 
L 6.390625 71.578125 
L 15.1875 71.578125 
L 15.1875 0 
z
" id="ArialMT-6c"/>
      <path d="M 23.390625 -21.046875 
Q 16.109375 -11.859375 11.078125 0.4375 
Q 6.0625 12.75 6.0625 25.921875 
Q 6.0625 37.546875 9.8125 48.1875 
Q 14.203125 60.546875 23.390625 72.796875 
L 29.6875 72.796875 
Q 23.78125 62.640625 21.875 58.296875 
Q 18.890625 51.5625 17.1875 44.234375 
Q 15.09375 35.109375 15.09375 25.875 
Q 15.09375 2.390625 29.6875 -21.046875 
z
" id="ArialMT-28"/>
      <path d="M 7.71875 0 
L 7.71875 71.578125 
L 34.71875 71.578125 
Q 41.84375 71.578125 45.609375 70.90625 
Q 50.875 70.015625 54.4375 67.546875 
Q 58.015625 65.09375 60.1875 60.640625 
Q 62.359375 56.203125 62.359375 50.875 
Q 62.359375 41.75 56.546875 35.421875 
Q 50.734375 29.109375 35.546875 29.109375 
L 17.1875 29.109375 
L 17.1875 0 
z
M 17.1875 37.546875 
L 35.6875 37.546875 
Q 44.875 37.546875 48.734375 40.96875 
Q 52.59375 44.390625 52.59375 50.59375 
Q 52.59375 55.078125 50.3125 58.265625 
Q 48.046875 61.46875 44.34375 62.5 
Q 41.9375 63.140625 35.5 63.140625 
L 17.1875 63.140625 
z
" id="ArialMT-50"/>
      <path d="M 42.09375 16.703125 
L 51.171875 15.578125 
Q 49.03125 7.625 43.21875 3.21875 
Q 37.40625 -1.171875 28.375 -1.171875 
Q 17 -1.171875 10.328125 5.828125 
Q 3.65625 12.84375 3.65625 25.484375 
Q 3.65625 38.578125 10.390625 45.796875 
Q 17.140625 53.03125 27.875 53.03125 
Q 38.28125 53.03125 44.875 45.953125 
Q 51.46875 38.875 51.46875 26.03125 
Q 51.46875 25.25 51.421875 23.6875 
L 12.75 23.6875 
Q 13.234375 15.140625 17.578125 10.59375 
Q 21.921875 6.0625 28.421875 6.0625 
Q 33.25 6.0625 36.671875 8.59375 
Q 40.09375 11.140625 42.09375 16.703125 
M 13.234375 30.90625 
L 42.1875 30.90625 
Q 41.609375 37.453125 38.875 40.71875 
Q 34.671875 45.796875 27.984375 45.796875 
Q 21.921875 45.796875 17.796875 41.75 
Q 13.671875 37.703125 13.234375 30.90625 
" id="ArialMT-65"/>
      <path d="M 6.640625 61.46875 
L 6.640625 71.578125 
L 15.4375 71.578125 
L 15.4375 61.46875 
z
M 6.640625 0 
L 6.640625 51.859375 
L 15.4375 51.859375 
L 15.4375 0 
z
" id="ArialMT-69"/>
      <path d="M 3.328125 25.921875 
Q 3.328125 40.328125 11.328125 47.265625 
Q 18.015625 53.03125 27.640625 53.03125 
Q 38.328125 53.03125 45.109375 46.015625 
Q 51.90625 39.015625 51.90625 26.65625 
Q 51.90625 16.65625 48.90625 10.90625 
Q 45.90625 5.171875 40.15625 2 
Q 34.421875 -1.171875 27.640625 -1.171875 
Q 16.75 -1.171875 10.03125 5.8125 
Q 3.328125 12.796875 3.328125 25.921875 
M 12.359375 25.921875 
Q 12.359375 15.96875 16.703125 11.015625 
Q 21.046875 6.0625 27.640625 6.0625 
Q 34.1875 6.0625 38.53125 11.03125 
Q 42.875 16.015625 42.875 26.21875 
Q 42.875 35.84375 38.5 40.796875 
Q 34.125 45.75 27.640625 45.75 
Q 21.046875 45.75 16.703125 40.8125 
Q 12.359375 35.890625 12.359375 25.921875 
" id="ArialMT-6f"/>
      <path d="M 4.5 23 
L 13.421875 23.78125 
Q 14.0625 18.40625 16.375 14.96875 
Q 18.703125 11.53125 23.578125 9.40625 
Q 28.46875 7.28125 34.578125 7.28125 
Q 39.984375 7.28125 44.140625 8.890625 
Q 48.296875 10.5 50.3125 13.296875 
Q 52.34375 16.109375 52.34375 19.4375 
Q 52.34375 22.796875 50.390625 25.3125 
Q 48.4375 27.828125 43.953125 29.546875 
Q 41.0625 30.671875 31.203125 33.03125 
Q 21.34375 35.40625 17.390625 37.5 
Q 12.25 40.1875 9.734375 44.15625 
Q 7.234375 48.140625 7.234375 53.078125 
Q 7.234375 58.5 10.296875 63.203125 
Q 13.375 67.921875 19.28125 70.359375 
Q 25.203125 72.796875 32.421875 72.796875 
Q 40.375 72.796875 46.453125 70.234375 
Q 52.546875 67.671875 55.8125 62.6875 
Q 59.078125 57.71875 59.328125 51.421875 
L 50.25 50.734375 
Q 49.515625 57.515625 45.28125 60.984375 
Q 41.0625 64.453125 32.8125 64.453125 
Q 24.21875 64.453125 20.28125 61.296875 
Q 16.359375 58.15625 16.359375 53.71875 
Q 16.359375 49.859375 19.140625 47.359375 
Q 21.875 44.875 33.421875 42.265625 
Q 44.96875 39.65625 49.265625 37.703125 
Q 55.515625 34.8125 58.484375 30.390625 
Q 61.46875 25.984375 61.46875 20.21875 
Q 61.46875 14.5 58.203125 9.4375 
Q 54.9375 4.390625 48.796875 1.578125 
Q 42.671875 -1.21875 35.015625 -1.21875 
Q 25.296875 -1.21875 18.71875 1.609375 
Q 12.15625 4.4375 8.421875 10.125 
Q 4.6875 15.828125 4.5 23 
" id="ArialMT-53"/>
      <path d="M 3.078125 15.484375 
L 11.765625 16.84375 
Q 12.5 11.625 15.84375 8.84375 
Q 19.1875 6.0625 25.203125 6.0625 
Q 31.25 6.0625 34.171875 8.515625 
Q 37.109375 10.984375 37.109375 14.3125 
Q 37.109375 17.28125 34.515625 19 
Q 32.71875 20.171875 25.53125 21.96875 
Q 15.875 24.421875 12.140625 26.203125 
Q 8.40625 27.984375 6.46875 31.125 
Q 4.546875 34.28125 4.546875 38.09375 
Q 4.546875 41.546875 6.125 44.5 
Q 7.71875 47.46875 10.453125 49.421875 
Q 12.5 50.921875 16.03125 51.96875 
Q 19.578125 53.03125 23.640625 53.03125 
Q 29.734375 53.03125 34.34375 51.265625 
Q 38.96875 49.515625 41.15625 46.5 
Q 43.359375 43.5 44.1875 38.484375 
L 35.59375 37.3125 
Q 35.015625 41.3125 32.203125 43.546875 
Q 29.390625 45.796875 24.265625 45.796875 
Q 18.21875 45.796875 15.625 43.796875 
Q 13.03125 41.796875 13.03125 39.109375 
Q 13.03125 37.40625 14.109375 36.03125 
Q 15.1875 34.625 17.484375 33.6875 
Q 18.796875 33.203125 25.25 31.453125 
Q 34.578125 28.953125 38.25 27.359375 
Q 41.9375 25.78125 44.03125 22.75 
Q 46.140625 19.734375 46.140625 15.234375 
Q 46.140625 10.84375 43.578125 6.953125 
Q 41.015625 3.078125 36.171875 0.953125 
Q 31.34375 -1.171875 25.25 -1.171875 
Q 15.140625 -1.171875 9.84375 3.03125 
Q 4.546875 7.234375 3.078125 15.484375 
" id="ArialMT-73"/>
      <path d="M 40.4375 6.390625 
Q 35.546875 2.25 31.03125 0.53125 
Q 26.515625 -1.171875 21.34375 -1.171875 
Q 12.796875 -1.171875 8.203125 3 
Q 3.609375 7.171875 3.609375 13.671875 
Q 3.609375 17.484375 5.34375 20.625 
Q 7.078125 23.78125 9.890625 25.6875 
Q 12.703125 27.59375 16.21875 28.5625 
Q 18.796875 29.25 24.03125 29.890625 
Q 34.671875 31.15625 39.703125 32.90625 
Q 39.75 34.71875 39.75 35.203125 
Q 39.75 40.578125 37.25 42.78125 
Q 33.890625 45.75 27.25 45.75 
Q 21.046875 45.75 18.09375 43.578125 
Q 15.140625 41.40625 13.71875 35.890625 
L 5.125 37.0625 
Q 6.296875 42.578125 8.984375 45.96875 
Q 11.671875 49.359375 16.75 51.1875 
Q 21.828125 53.03125 28.515625 53.03125 
Q 35.15625 53.03125 39.296875 51.46875 
Q 43.453125 49.90625 45.40625 47.53125 
Q 47.359375 45.171875 48.140625 41.546875 
Q 48.578125 39.3125 48.578125 33.453125 
L 48.578125 21.734375 
Q 48.578125 9.46875 49.140625 6.21875 
Q 49.703125 2.984375 51.375 0 
L 42.1875 0 
Q 40.828125 2.734375 40.4375 6.390625 
M 39.703125 26.03125 
Q 34.90625 24.078125 25.34375 22.703125 
Q 19.921875 21.921875 17.671875 20.9375 
Q 15.4375 19.96875 14.203125 18.09375 
Q 12.984375 16.21875 12.984375 13.921875 
Q 12.984375 10.40625 15.640625 8.0625 
Q 18.3125 5.71875 23.4375 5.71875 
Q 28.515625 5.71875 32.46875 7.9375 
Q 36.421875 10.15625 38.28125 14.015625 
Q 39.703125 17 39.703125 22.796875 
z
" id="ArialMT-61"/>
      <path d="M 8.203125 0 
L 8.203125 71.578125 
L 56.5 71.578125 
L 56.5 63.140625 
L 17.671875 63.140625 
L 17.671875 40.96875 
L 51.265625 40.96875 
L 51.265625 32.515625 
L 17.671875 32.515625 
L 17.671875 0 
z
" id="ArialMT-46"/>
      <path d="M 6.203125 -19.96875 
L 5.21875 -11.71875 
Q 8.109375 -12.5 10.25 -12.5 
Q 13.1875 -12.5 14.9375 -11.515625 
Q 16.703125 -10.546875 17.828125 -8.796875 
Q 18.65625 -7.46875 20.515625 -2.25 
Q 20.75 -1.515625 21.296875 -0.09375 
L 1.609375 51.859375 
L 11.078125 51.859375 
L 21.875 21.828125 
Q 23.96875 16.109375 25.640625 9.8125 
Q 27.15625 15.875 29.25 21.625 
L 40.328125 51.859375 
L 49.125 51.859375 
L 29.390625 -0.875 
Q 26.21875 -9.421875 24.46875 -12.640625 
Q 22.125 -17 19.09375 -19.015625 
Q 16.0625 -21.046875 11.859375 -21.046875 
Q 9.328125 -21.046875 6.203125 -19.96875 
" id="ArialMT-79"/>
      <path d="M 6.59375 -19.875 
L 6.59375 51.859375 
L 14.59375 51.859375 
L 14.59375 45.125 
Q 17.4375 49.078125 21 51.046875 
Q 24.5625 53.03125 29.640625 53.03125 
Q 36.28125 53.03125 41.359375 49.609375 
Q 46.4375 46.1875 49.015625 39.953125 
Q 51.609375 33.734375 51.609375 26.3125 
Q 51.609375 18.359375 48.75 11.984375 
Q 45.90625 5.609375 40.453125 2.21875 
Q 35.015625 -1.171875 29 -1.171875 
Q 24.609375 -1.171875 21.109375 0.6875 
Q 17.625 2.546875 15.375 5.375 
L 15.375 -19.875 
z
M 14.546875 25.640625 
Q 14.546875 15.625 18.59375 10.84375 
Q 22.65625 6.0625 28.421875 6.0625 
Q 34.28125 6.0625 38.453125 11.015625 
Q 42.625 15.96875 42.625 26.375 
Q 42.625 36.28125 38.546875 41.203125 
Q 34.46875 46.140625 28.8125 46.140625 
Q 23.1875 46.140625 18.859375 40.890625 
Q 14.546875 35.640625 14.546875 25.640625 
" id="ArialMT-70"/>
     </defs>
     <g style="fill:#262626;" transform="translate(278.926125 560.87375)scale(0.17600000000000002 -0.17600000000000002)">
      <use xlink:href="#ArialMT-46"/>
      <use x="61.083984375" xlink:href="#ArialMT-61"/>
      <use x="116.69921875" xlink:href="#ArialMT-6c"/>
      <use x="138.916015625" xlink:href="#ArialMT-73"/>
      <use x="188.916015625" xlink:href="#ArialMT-65"/>
      <use x="244.53125" xlink:href="#ArialMT-20"/>
      <use x="272.314453125" xlink:href="#ArialMT-50"/>
      <use x="339.013671875" xlink:href="#ArialMT-6f"/>
      <use x="394.62890625" xlink:href="#ArialMT-73"/>
      <use x="444.62890625" xlink:href="#ArialMT-69"/>
      <use x="466.845703125" xlink:href="#ArialMT-74"/>
      <use x="494.62890625" xlink:href="#ArialMT-69"/>
      <use x="516.845703125" xlink:href="#ArialMT-76"/>
      <use x="566.845703125" xlink:href="#ArialMT-65"/>
      <use x="622.4609375" xlink:href="#ArialMT-20"/>
      <use x="650.244140625" xlink:href="#ArialMT-52"/>
      <use x="722.4609375" xlink:href="#ArialMT-61"/>
      <use x="778.076171875" xlink:href="#ArialMT-74"/>
      <use x="805.859375" xlink:href="#ArialMT-65"/>
      <use x="861.474609375" xlink:href="#ArialMT-20"/>
      <use x="889.2578125" xlink:href="#ArialMT-6f"/>
      <use x="944.873046875" xlink:href="#ArialMT-72"/>
      <use x="978.173828125" xlink:href="#ArialMT-20"/>
      <use x="1005.95703125" xlink:href="#ArialMT-28"/>
      <use x="1039.2578125" xlink:href="#ArialMT-31"/>
      <use x="1094.873046875" xlink:href="#ArialMT-20"/>
      <use x="1122.65625" xlink:href="#ArialMT-2d"/>
      <use x="1155.95703125" xlink:href="#ArialMT-20"/>
      <use x="1183.740234375" xlink:href="#ArialMT-53"/>
      <use x="1250.439453125" xlink:href="#ArialMT-70"/>
      <use x="1306.0546875" xlink:href="#ArialMT-65"/>
      <use x="1361.669921875" xlink:href="#ArialMT-63"/>
      <use x="1411.669921875" xlink:href="#ArialMT-69"/>
      <use x="1433.88671875" xlink:href="#ArialMT-66"/>
      <use x="1461.669921875" xlink:href="#ArialMT-69"/>
      <use x="1483.88671875" xlink:href="#ArialMT-74"/>
      <use x="1511.669921875" xlink:href="#ArialMT-79"/>
      <use x="1561.669921875" xlink:href="#ArialMT-29"/>
     </g>
    </g>
   </g>
   <g id="matplotlib.axis_2">
    <g id="ytick_1">
     <g id="line2d_13">
      <g>
       <use style="fill:#262626;stroke:#262626;stroke-width:1.6;" x="62.1565" xlink:href="#m065f7bde7a" y="517.229"/>
      </g>
     </g>
     <g id="line2d_14">
      <g>
       <use style="fill:#262626;stroke:#262626;stroke-width:1.6;" x="776.3965" xlink:href="#m065f7bde7a" y="517.229"/>
      </g>
     </g>
     <g id="text_8">
      <!-- 0.0 -->
      <g style="fill:#262626;" transform="translate(28.7165 521.36525)scale(0.16 -0.16)">
       <use xlink:href="#ArialMT-30"/>
       <use x="55.615234375" xlink:href="#ArialMT-2e"/>
       <use x="83.3984375" xlink:href="#ArialMT-30"/>
      </g>
     </g>
    </g>
    <g id="ytick_2">
     <g id="line2d_15">
      <g>
       <use style="fill:#262626;stroke:#262626;stroke-width:1.6;" x="62.1565" xlink:href="#m065f7bde7a" y="419.021"/>
      </g>
     </g>
     <g id="line2d_16">
      <g>
       <use style="fill:#262626;stroke:#262626;stroke-width:1.6;" x="776.3965" xlink:href="#m065f7bde7a" y="419.021"/>
      </g>
     </g>
     <g id="text_9">
      <!-- 0.2 -->
      <g style="fill:#262626;" transform="translate(28.7165 423.15725)scale(0.16 -0.16)">
       <use xlink:href="#ArialMT-30"/>
       <use x="55.615234375" xlink:href="#ArialMT-2e"/>
       <use x="83.3984375" xlink:href="#ArialMT-32"/>
      </g>
     </g>
    </g>
    <g id="ytick_3">
     <g id="line2d_17">
      <g>
       <use style="fill:#262626;stroke:#262626;stroke-width:1.6;" x="62.1565" xlink:href="#m065f7bde7a" y="320.813"/>
      </g>
     </g>
     <g id="line2d_18">
      <g>
       <use style="fill:#262626;stroke:#262626;stroke-width:1.6;" x="776.3965" xlink:href="#m065f7bde7a" y="320.813"/>
      </g>
     </g>
     <g id="text_10">
      <!-- 0.4 -->
      <g style="fill:#262626;" transform="translate(28.7165 324.94925)scale(0.16 -0.16)">
       <use xlink:href="#ArialMT-30"/>
       <use x="55.615234375" xlink:href="#ArialMT-2e"/>
       <use x="83.3984375" xlink:href="#ArialMT-34"/>
      </g>
     </g>
    </g>
    <g id="ytick_4">
     <g id="line2d_19">
      <g>
       <use style="fill:#262626;stroke:#262626;stroke-width:1.6;" x="62.1565" xlink:href="#m065f7bde7a" y="222.605"/>
      </g>
     </g>
     <g id="line2d_20">
      <g>
       <use style="fill:#262626;stroke:#262626;stroke-width:1.6;" x="776.3965" xlink:href="#m065f7bde7a" y="222.605"/>
      </g>
     </g>
     <g id="text_11">
      <!-- 0.6 -->
      <g style="fill:#262626;" transform="translate(28.7165 226.74125)scale(0.16 -0.16)">
       <use xlink:href="#ArialMT-30"/>
       <use x="55.615234375" xlink:href="#ArialMT-2e"/>
       <use x="83.3984375" xlink:href="#ArialMT-36"/>
      </g>
     </g>
    </g>
    <g id="ytick_5">
     <g id="line2d_21">
      <g>
       <use style="fill:#262626;stroke:#262626;stroke-width:1.6;" x="62.1565" xlink:href="#m065f7bde7a" y="124.397"/>
      </g>
     </g>
     <g id="line2d_22">
      <g>
       <use style="fill:#262626;stroke:#262626;stroke-width:1.6;" x="776.3965" xlink:href="#m065f7bde7a" y="124.397"/>
      </g>
     </g>
     <g id="text_12">
      <!-- 0.8 -->
      <g style="fill:#262626;" transform="translate(28.7165 128.53325)scale(0.16 -0.16)">
       <use xlink:href="#ArialMT-30"/>
       <use x="55.615234375" xlink:href="#ArialMT-2e"/>
       <use x="83.3984375" xlink:href="#ArialMT-38"/>
      </g>
     </g>
    </g>
    <g id="ytick_6">
     <g id="line2d_23">
      <g>
       <use style="fill:#262626;stroke:#262626;stroke-width:1.6;" x="62.1565" xlink:href="#m065f7bde7a" y="26.189"/>
      </g>
     </g>
     <g id="line2d_24">
      <g>
       <use style="fill:#262626;stroke:#262626;stroke-width:1.6;" x="776.3965" xlink:href="#m065f7bde7a" y="26.189"/>
      </g>
     </g>
     <g id="text_13">
      <!-- 1.0 -->
      <g style="fill:#262626;" transform="translate(28.7165 30.32525)scale(0.16 -0.16)">
       <use xlink:href="#ArialMT-31"/>
       <use x="55.615234375" xlink:href="#ArialMT-2e"/>
       <use x="83.3984375" xlink:href="#ArialMT-30"/>
      </g>
     </g>
    </g>
    <g id="text_14">
     <!-- True Positive Rate or (Sensitivity) -->
     <defs>
      <path d="M 25.921875 0 
L 25.921875 63.140625 
L 2.34375 63.140625 
L 2.34375 71.578125 
L 59.078125 71.578125 
L 59.078125 63.140625 
L 35.40625 63.140625 
L 35.40625 0 
z
" id="ArialMT-54"/>
      <path d="M 6.59375 0 
L 6.59375 51.859375 
L 14.5 51.859375 
L 14.5 44.484375 
Q 20.21875 53.03125 31 53.03125 
Q 35.6875 53.03125 39.625 51.34375 
Q 43.5625 49.65625 45.515625 46.921875 
Q 47.46875 44.1875 48.25 40.4375 
Q 48.734375 37.984375 48.734375 31.890625 
L 48.734375 0 
L 39.9375 0 
L 39.9375 31.546875 
Q 39.9375 36.921875 38.90625 39.578125 
Q 37.890625 42.234375 35.28125 43.8125 
Q 32.671875 45.40625 29.15625 45.40625 
Q 23.53125 45.40625 19.453125 41.84375 
Q 15.375 38.28125 15.375 28.328125 
L 15.375 0 
z
" id="ArialMT-6e"/>
      <path d="M 40.578125 0 
L 40.578125 7.625 
Q 34.515625 -1.171875 24.125 -1.171875 
Q 19.53125 -1.171875 15.546875 0.578125 
Q 11.578125 2.34375 9.640625 5 
Q 7.71875 7.671875 6.9375 11.53125 
Q 6.390625 14.109375 6.390625 19.734375 
L 6.390625 51.859375 
L 15.1875 51.859375 
L 15.1875 23.09375 
Q 15.1875 16.21875 15.71875 13.8125 
Q 16.546875 10.359375 19.234375 8.375 
Q 21.921875 6.390625 25.875 6.390625 
Q 29.828125 6.390625 33.296875 8.421875 
Q 36.765625 10.453125 38.203125 13.9375 
Q 39.65625 17.4375 39.65625 24.078125 
L 39.65625 51.859375 
L 48.4375 51.859375 
L 48.4375 0 
z
" id="ArialMT-75"/>
     </defs>
     <g style="fill:#262626;" transform="translate(20.01225 402.272125)rotate(-90.0)scale(0.17600000000000002 -0.17600000000000002)">
      <use xlink:href="#ArialMT-54"/>
      <use x="61.037109375" xlink:href="#ArialMT-72"/>
      <use x="94.337890625" xlink:href="#ArialMT-75"/>
      <use x="149.953125" xlink:href="#ArialMT-65"/>
      <use x="205.568359375" xlink:href="#ArialMT-20"/>
      <use x="233.3515625" xlink:href="#ArialMT-50"/>
      <use x="300.05078125" xlink:href="#ArialMT-6f"/>
      <use x="355.666015625" xlink:href="#ArialMT-73"/>
      <use x="405.666015625" xlink:href="#ArialMT-69"/>
      <use x="427.8828125" xlink:href="#ArialMT-74"/>
      <use x="455.666015625" xlink:href="#ArialMT-69"/>
      <use x="477.8828125" xlink:href="#ArialMT-76"/>
      <use x="527.8828125" xlink:href="#ArialMT-65"/>
      <use x="583.498046875" xlink:href="#ArialMT-20"/>
      <use x="611.28125" xlink:href="#ArialMT-52"/>
      <use x="683.498046875" xlink:href="#ArialMT-61"/>
      <use x="739.11328125" xlink:href="#ArialMT-74"/>
      <use x="766.896484375" xlink:href="#ArialMT-65"/>
      <use x="822.51171875" xlink:href="#ArialMT-20"/>
      <use x="850.294921875" xlink:href="#ArialMT-6f"/>
      <use x="905.91015625" xlink:href="#ArialMT-72"/>
      <use x="939.2109375" xlink:href="#ArialMT-20"/>
      <use x="966.994140625" xlink:href="#ArialMT-28"/>
      <use x="1000.294921875" xlink:href="#ArialMT-53"/>
      <use x="1066.994140625" xlink:href="#ArialMT-65"/>
      <use x="1122.609375" xlink:href="#ArialMT-6e"/>
      <use x="1178.224609375" xlink:href="#ArialMT-73"/>
      <use x="1228.224609375" xlink:href="#ArialMT-69"/>
      <use x="1250.44140625" xlink:href="#ArialMT-74"/>
      <use x="1278.224609375" xlink:href="#ArialMT-69"/>
      <use x="1300.44140625" xlink:href="#ArialMT-76"/>
      <use x="1350.44140625" xlink:href="#ArialMT-69"/>
      <use x="1372.658203125" xlink:href="#ArialMT-74"/>
      <use x="1400.44140625" xlink:href="#ArialMT-79"/>
      <use x="1450.44140625" xlink:href="#ArialMT-29"/>
     </g>
    </g>
   </g>
   <g id="line2d_25">
    <path clip-path="url(#pb1f661ffe3)" d="M 62.1565 514.16 
L 63.885895 514.16 
L 63.885895 501.884 
L 67.344684 501.884 
L 67.344684 498.815 
L 69.938776 498.815 
L 69.938776 486.539 
L 71.668171 486.539 
L 71.668171 483.47 
L 73.397565 483.47 
L 73.397565 477.332 
L 74.262263 477.332 
L 74.262263 468.125 
L 75.12696 468.125 
L 75.12696 461.987 
L 78.585749 461.987 
L 78.585749 458.918 
L 82.909236 458.918 
L 82.909236 452.78 
L 83.773933 452.78 
L 83.773933 449.711 
L 88.962117 449.711 
L 88.962117 437.435 
L 89.826815 437.435 
L 89.826815 431.297 
L 90.691512 431.297 
L 90.691512 428.228 
L 95.014999 428.228 
L 95.014999 425.159 
L 98.473788 425.159 
L 98.473788 422.09 
L 102.797275 422.09 
L 102.797275 419.021 
L 117.49713 419.021 
L 117.49713 409.814 
L 119.226524 409.814 
L 119.226524 406.745 
L 120.091222 406.745 
L 120.091222 403.676 
L 121.820616 403.676 
L 121.820616 400.607 
L 146.896839 400.607 
L 146.896839 397.538 
L 152.085023 397.538 
L 152.085023 391.4 
L 152.94972 391.4 
L 152.94972 388.331 
L 155.543812 388.331 
L 155.543812 382.193 
L 161.596694 382.193 
L 161.596694 379.124 
L 166.784878 379.124 
L 166.784878 376.055 
L 168.514272 376.055 
L 168.514272 372.986 
L 169.37897 372.986 
L 169.37897 369.917 
L 173.702456 369.917 
L 173.702456 366.848 
L 177.161246 366.848 
L 177.161246 363.779 
L 179.755338 363.779 
L 179.755338 360.71 
L 182.34943 360.71 
L 182.34943 357.641 
L 183.214127 357.641 
L 183.214127 354.572 
L 187.537614 354.572 
L 187.537614 351.503 
L 193.590495 351.503 
L 193.590495 345.365 
L 197.049285 345.365 
L 197.049285 342.296 
L 199.643377 342.296 
L 199.643377 339.227 
L 203.102166 339.227 
L 203.102166 336.158 
L 205.696258 336.158 
L 205.696258 333.089 
L 208.29035 333.089 
L 208.29035 320.813 
L 209.155047 320.813 
L 209.155047 314.675 
L 210.019745 314.675 
L 210.019745 311.606 
L 214.343231 311.606 
L 214.343231 308.537 
L 215.207929 308.537 
L 215.207929 305.468 
L 219.531415 305.468 
L 219.531415 302.399 
L 220.396113 302.399 
L 220.396113 299.33 
L 224.719599 299.33 
L 224.719599 296.261 
L 234.23127 296.261 
L 234.23127 290.123 
L 236.825362 290.123 
L 236.825362 287.054 
L 240.284151 287.054 
L 240.284151 283.985 
L 241.148849 283.985 
L 241.148849 277.847 
L 242.878243 277.847 
L 242.878243 274.778 
L 251.525217 274.778 
L 251.525217 271.709 
L 255.848703 271.709 
L 255.848703 265.571 
L 256.713401 265.571 
L 256.713401 259.433 
L 271.413255 259.433 
L 271.413255 256.364 
L 272.277953 256.364 
L 272.277953 253.295 
L 276.601439 253.295 
L 276.601439 250.226 
L 283.519018 250.226 
L 283.519018 247.157 
L 298.218873 247.157 
L 298.218873 241.019 
L 304.271754 241.019 
L 304.271754 237.95 
L 307.730544 237.95 
L 307.730544 234.881 
L 308.595241 234.881 
L 308.595241 231.812 
L 317.242214 231.812 
L 317.242214 228.743 
L 333.671464 228.743 
L 333.671464 222.605 
L 337.130253 222.605 
L 337.130253 219.536 
L 346.641924 219.536 
L 346.641924 213.398 
L 354.4242 213.398 
L 354.4242 210.329 
L 356.153594 210.329 
L 356.153594 207.26 
L 358.747686 207.26 
L 358.747686 204.191 
L 361.341778 204.191 
L 361.341778 201.122 
L 364.800568 201.122 
L 364.800568 198.053 
L 372.582844 198.053 
L 372.582844 194.984 
L 375.176936 194.984 
L 375.176936 191.915 
L 376.041633 191.915 
L 376.041633 188.846 
L 384.688607 188.846 
L 384.688607 185.777 
L 397.659067 185.777 
L 397.659067 182.708 
L 401.982553 182.708 
L 401.982553 176.57 
L 403.711948 176.57 
L 403.711948 173.501 
L 407.170737 173.501 
L 407.170737 170.432 
L 409.764829 170.432 
L 409.764829 164.294 
L 412.358921 164.294 
L 412.358921 161.225 
L 426.194079 161.225 
L 426.194079 155.087 
L 434.841052 155.087 
L 434.841052 148.949 
L 450.405604 148.949 
L 450.405604 145.88 
L 457.323183 145.88 
L 457.323183 142.811 
L 466.834854 142.811 
L 466.834854 139.742 
L 486.722892 139.742 
L 486.722892 136.673 
L 489.316984 136.673 
L 489.316984 133.604 
L 491.911076 133.604 
L 491.911076 130.535 
L 498.828655 130.535 
L 498.828655 124.397 
L 504.016839 124.397 
L 504.016839 121.328 
L 505.746234 121.328 
L 505.746234 118.259 
L 511.799115 118.259 
L 511.799115 115.19 
L 519.581391 115.19 
L 519.581391 112.121 
L 521.310786 112.121 
L 521.310786 109.052 
L 528.228364 109.052 
L 528.228364 105.983 
L 529.957759 105.983 
L 529.957759 102.914 
L 537.740035 102.914 
L 537.740035 99.845 
L 540.334127 99.845 
L 540.334127 96.776 
L 548.9811 96.776 
L 548.9811 93.707 
L 555.033982 93.707 
L 555.033982 90.638 
L 563.680955 90.638 
L 563.680955 87.569 
L 576.651415 87.569 
L 576.651415 84.5 
L 577.516113 84.5 
L 577.516113 81.431 
L 600.862941 81.431 
L 600.862941 78.362 
L 605.186427 78.362 
L 605.186427 75.293 
L 612.104006 75.293 
L 612.104006 72.224 
L 615.562795 72.224 
L 615.562795 69.155 
L 628.533255 69.155 
L 628.533255 66.086 
L 647.556597 66.086 
L 647.556597 63.017 
L 664.850544 63.017 
L 664.850544 56.879 
L 668.309333 56.879 
L 668.309333 53.81 
L 670.038728 53.81 
L 670.038728 50.741 
L 685.60328 50.741 
L 685.60328 47.672 
L 692.520858 47.672 
L 692.520858 44.603 
L 723.649962 44.603 
L 723.649962 41.534 
L 724.51466 41.534 
L 724.51466 38.465 
L 729.702844 38.465 
L 729.702844 32.327 
L 744.402699 32.327 
L 744.402699 29.258 
L 748.726185 29.258 
L 748.726185 26.189 
L 776.3965 26.189 
L 776.3965 26.189 
" style="fill:none;stroke:#4c72b0;stroke-linecap:round;stroke-width:2.8000000000000003;"/>
   </g>
   <g id="line2d_26">
    <path clip-path="url(#pb1f661ffe3)" d="M 62.1565 517.229 
L 776.3965 26.189 
" style="fill:none;stroke:#000000;stroke-dasharray:6.000000,6.000000;stroke-dashoffset:0.0;stroke-width:2.8000000000000003;"/>
   </g>
   <g id="line2d_27">
    <path clip-path="url(#pb1f661ffe3)" d="M 62.1565 514.16 
L 62.1565 511.091 
L 63.885895 511.091 
L 63.885895 508.022 
L 66.479987 508.022 
L 66.479987 501.884 
L 69.938776 501.884 
L 69.938776 495.746 
L 72.532868 495.746 
L 72.532868 492.677 
L 74.262263 492.677 
L 74.262263 489.608 
L 75.12696 489.608 
L 75.12696 480.401 
L 77.721052 480.401 
L 77.721052 477.332 
L 82.044539 477.332 
L 82.044539 471.194 
L 85.503328 471.194 
L 85.503328 461.987 
L 86.368025 461.987 
L 86.368025 458.918 
L 92.420907 458.918 
L 92.420907 455.849 
L 95.879696 455.849 
L 95.879696 449.711 
L 99.338485 449.711 
L 99.338485 446.642 
L 100.203183 446.642 
L 100.203183 440.504 
L 106.256064 440.504 
L 106.256064 437.435 
L 107.985459 437.435 
L 107.985459 431.297 
L 108.850156 431.297 
L 108.850156 428.228 
L 110.579551 428.228 
L 110.579551 425.159 
L 111.444248 425.159 
L 111.444248 422.09 
L 112.308946 422.09 
L 112.308946 419.021 
L 115.767735 419.021 
L 115.767735 415.952 
L 120.091222 415.952 
L 120.091222 412.883 
L 120.955919 412.883 
L 120.955919 409.814 
L 122.685314 409.814 
L 122.685314 406.745 
L 124.414708 406.745 
L 124.414708 403.676 
L 133.926379 403.676 
L 133.926379 400.607 
L 134.791076 400.607 
L 134.791076 397.538 
L 135.655774 397.538 
L 135.655774 391.4 
L 140.843958 391.4 
L 140.843958 385.262 
L 150.355628 385.262 
L 150.355628 379.124 
L 155.543812 379.124 
L 155.543812 376.055 
L 165.055483 376.055 
L 165.055483 372.986 
L 165.92018 372.986 
L 165.92018 369.917 
L 171.973062 369.917 
L 171.973062 366.848 
L 176.296548 366.848 
L 176.296548 363.779 
L 178.89064 363.779 
L 178.89064 360.71 
L 186.672916 360.71 
L 186.672916 357.641 
L 190.996403 357.641 
L 190.996403 354.572 
L 194.455192 354.572 
L 194.455192 351.503 
L 201.372771 351.503 
L 201.372771 348.434 
L 204.831561 348.434 
L 204.831561 345.365 
L 206.560955 345.365 
L 206.560955 342.296 
L 210.884442 342.296 
L 210.884442 336.158 
L 217.802021 336.158 
L 217.802021 330.02 
L 228.178389 330.02 
L 228.178389 326.951 
L 232.501875 326.951 
L 232.501875 323.882 
L 234.23127 323.882 
L 234.23127 314.675 
L 235.960665 314.675 
L 235.960665 308.537 
L 236.825362 308.537 
L 236.825362 305.468 
L 238.554757 305.468 
L 238.554757 302.399 
L 246.337033 302.399 
L 246.337033 299.33 
L 248.931125 299.33 
L 248.931125 296.261 
L 249.795822 296.261 
L 249.795822 293.192 
L 253.254611 293.192 
L 253.254611 290.123 
L 256.713401 290.123 
L 256.713401 283.985 
L 280.060229 283.985 
L 280.060229 280.916 
L 292.165992 280.916 
L 292.165992 277.847 
L 296.489478 277.847 
L 296.489478 274.778 
L 306.865846 274.778 
L 306.865846 271.709 
L 310.324636 271.709 
L 310.324636 268.64 
L 324.159793 268.64 
L 324.159793 265.571 
L 325.02449 265.571 
L 325.02449 262.502 
L 334.536161 262.502 
L 334.536161 259.433 
L 341.45374 259.433 
L 341.45374 256.364 
L 346.641924 256.364 
L 346.641924 253.295 
L 350.100713 253.295 
L 350.100713 250.226 
L 361.341778 250.226 
L 361.341778 247.157 
L 362.206476 247.157 
L 362.206476 244.088 
L 365.665265 244.088 
L 365.665265 237.95 
L 366.529962 237.95 
L 366.529962 234.881 
L 367.39466 234.881 
L 367.39466 231.812 
L 373.447541 231.812 
L 373.447541 228.743 
L 375.176936 228.743 
L 375.176936 225.674 
L 383.823909 225.674 
L 383.823909 222.605 
L 384.688607 222.605 
L 384.688607 219.536 
L 386.418001 219.536 
L 386.418001 213.398 
L 389.876791 213.398 
L 389.876791 210.329 
L 390.741488 210.329 
L 390.741488 207.26 
L 407.170737 207.26 
L 407.170737 204.191 
L 408.035435 204.191 
L 408.035435 201.122 
L 418.411803 201.122 
L 418.411803 198.053 
L 421.005895 198.053 
L 421.005895 194.984 
L 422.735289 194.984 
L 422.735289 191.915 
L 424.464684 191.915 
L 424.464684 188.846 
L 446.082117 188.846 
L 446.082117 185.777 
L 450.405604 185.777 
L 450.405604 182.708 
L 452.134999 182.708 
L 452.134999 179.639 
L 453.864393 179.639 
L 453.864393 176.57 
L 454.729091 176.57 
L 454.729091 170.432 
L 466.834854 170.432 
L 466.834854 167.363 
L 472.023038 167.363 
L 472.023038 161.225 
L 484.1288 161.225 
L 484.1288 158.156 
L 492.775774 158.156 
L 492.775774 155.087 
L 496.234563 155.087 
L 496.234563 152.018 
L 497.963958 152.018 
L 497.963958 148.949 
L 503.152142 148.949 
L 503.152142 145.88 
L 509.205023 145.88 
L 509.205023 142.811 
L 534.281246 142.811 
L 534.281246 136.673 
L 547.251706 136.673 
L 547.251706 133.604 
L 549.845798 133.604 
L 549.845798 130.535 
L 553.304587 130.535 
L 553.304587 127.466 
L 569.733837 127.466 
L 569.733837 124.397 
L 579.245507 124.397 
L 579.245507 121.328 
L 587.892481 121.328 
L 587.892481 115.19 
L 609.509914 115.19 
L 609.509914 112.121 
L 613.833401 112.121 
L 613.833401 105.983 
L 619.021585 105.983 
L 619.021585 99.845 
L 630.26265 99.845 
L 630.26265 93.707 
L 636.315531 93.707 
L 636.315531 90.638 
L 637.180229 90.638 
L 637.180229 87.569 
L 644.097808 87.569 
L 644.097808 84.5 
L 644.962505 84.5 
L 644.962505 78.362 
L 655.338873 78.362 
L 655.338873 75.293 
L 660.527057 75.293 
L 660.527057 72.224 
L 663.985846 72.224 
L 663.985846 69.155 
L 675.226912 69.155 
L 675.226912 66.086 
L 696.844345 66.086 
L 696.844345 63.017 
L 697.709042 63.017 
L 697.709042 59.948 
L 707.220713 59.948 
L 707.220713 56.879 
L 719.326476 56.879 
L 719.326476 50.741 
L 720.191173 50.741 
L 720.191173 47.672 
L 730.567541 47.672 
L 730.567541 44.603 
L 743.538001 44.603 
L 743.538001 41.534 
L 745.267396 41.534 
L 745.267396 35.396 
L 748.726185 35.396 
L 748.726185 32.327 
L 763.42604 32.327 
L 763.42604 29.258 
L 768.614224 29.258 
L 768.614224 26.189 
L 776.3965 26.189 
L 776.3965 26.189 
" style="fill:none;stroke:#55a868;stroke-linecap:round;stroke-width:2.8000000000000003;"/>
   </g>
   <g id="line2d_28">
    <path clip-path="url(#pb1f661ffe3)" d="M 62.1565 517.229 
L 776.3965 26.189 
" style="fill:none;stroke:#000000;stroke-dasharray:6.000000,6.000000;stroke-dashoffset:0.0;stroke-width:2.8000000000000003;"/>
   </g>
   <g id="line2d_29">
    <path clip-path="url(#pb1f661ffe3)" d="M 62.1565 514.16 
L 62.1565 511.091 
L 63.021197 511.091 
L 63.021197 508.022 
L 64.750592 508.022 
L 64.750592 501.884 
L 65.615289 501.884 
L 65.615289 492.677 
L 66.479987 492.677 
L 66.479987 480.401 
L 71.668171 480.401 
L 71.668171 477.332 
L 72.532868 477.332 
L 72.532868 474.263 
L 73.397565 474.263 
L 73.397565 465.056 
L 74.262263 465.056 
L 74.262263 458.918 
L 77.721052 458.918 
L 77.721052 449.711 
L 79.450447 449.711 
L 79.450447 446.642 
L 82.909236 446.642 
L 82.909236 437.435 
L 84.638631 437.435 
L 84.638631 434.366 
L 85.503328 434.366 
L 85.503328 431.297 
L 92.420907 431.297 
L 92.420907 422.09 
L 93.285604 422.09 
L 93.285604 419.021 
L 98.473788 419.021 
L 98.473788 415.952 
L 100.203183 415.952 
L 100.203183 412.883 
L 104.526669 412.883 
L 104.526669 409.814 
L 105.391367 409.814 
L 105.391367 406.745 
L 106.256064 406.745 
L 106.256064 403.676 
L 113.173643 403.676 
L 113.173643 400.607 
L 114.03834 400.607 
L 114.03834 391.4 
L 114.903038 391.4 
L 114.903038 388.331 
L 133.061682 388.331 
L 133.061682 385.262 
L 135.655774 385.262 
L 135.655774 382.193 
L 137.385168 382.193 
L 137.385168 379.124 
L 139.97926 379.124 
L 139.97926 376.055 
L 145.167444 376.055 
L 145.167444 372.986 
L 148.626234 372.986 
L 148.626234 369.917 
L 150.355628 369.917 
L 150.355628 366.848 
L 151.220326 366.848 
L 151.220326 363.779 
L 153.814418 363.779 
L 153.814418 360.71 
L 155.543812 360.71 
L 155.543812 357.641 
L 161.596694 357.641 
L 161.596694 354.572 
L 166.784878 354.572 
L 166.784878 351.503 
L 169.37897 351.503 
L 169.37897 348.434 
L 170.243667 348.434 
L 170.243667 342.296 
L 171.108364 342.296 
L 171.108364 339.227 
L 175.431851 339.227 
L 175.431851 336.158 
L 176.296548 336.158 
L 176.296548 333.089 
L 181.484732 333.089 
L 181.484732 330.02 
L 188.402311 330.02 
L 188.402311 326.951 
L 189.267008 326.951 
L 189.267008 323.882 
L 194.455192 323.882 
L 194.455192 320.813 
L 196.184587 320.813 
L 196.184587 317.744 
L 197.049285 317.744 
L 197.049285 314.675 
L 202.237469 314.675 
L 202.237469 308.537 
L 205.696258 308.537 
L 205.696258 305.468 
L 208.29035 305.468 
L 208.29035 299.33 
L 210.884442 299.33 
L 210.884442 293.192 
L 219.531415 293.192 
L 219.531415 290.123 
L 221.26081 290.123 
L 221.26081 287.054 
L 225.584297 287.054 
L 225.584297 280.916 
L 234.23127 280.916 
L 234.23127 277.847 
L 237.690059 277.847 
L 237.690059 274.778 
L 247.20173 274.778 
L 247.20173 271.709 
L 254.984006 271.709 
L 254.984006 268.64 
L 259.307493 268.64 
L 259.307493 265.571 
L 261.036887 265.571 
L 261.036887 262.502 
L 265.360374 262.502 
L 265.360374 259.433 
L 267.089769 259.433 
L 267.089769 256.364 
L 267.954466 256.364 
L 267.954466 253.295 
L 269.683861 253.295 
L 269.683861 250.226 
L 274.872045 250.226 
L 274.872045 247.157 
L 285.248413 247.157 
L 285.248413 244.088 
L 289.5719 244.088 
L 289.5719 241.019 
L 290.436597 241.019 
L 290.436597 237.95 
L 293.895386 237.95 
L 293.895386 234.881 
L 295.624781 234.881 
L 295.624781 231.812 
L 320.701004 231.812 
L 320.701004 228.743 
L 350.100713 228.743 
L 350.100713 225.674 
L 350.96541 225.674 
L 350.96541 222.605 
L 351.830108 222.605 
L 351.830108 219.536 
L 352.694805 219.536 
L 352.694805 216.467 
L 355.288897 216.467 
L 355.288897 213.398 
L 359.612384 213.398 
L 359.612384 210.329 
L 360.477081 210.329 
L 360.477081 207.26 
L 369.124054 207.26 
L 369.124054 201.122 
L 375.176936 201.122 
L 375.176936 194.984 
L 380.36512 194.984 
L 380.36512 191.915 
L 382.959212 191.915 
L 382.959212 188.846 
L 385.553304 188.846 
L 385.553304 185.777 
L 388.147396 185.777 
L 388.147396 182.708 
L 395.929672 182.708 
L 395.929672 179.639 
L 403.711948 179.639 
L 403.711948 176.57 
L 406.30604 176.57 
L 406.30604 173.501 
L 409.764829 173.501 
L 409.764829 170.432 
L 414.088316 170.432 
L 414.088316 164.294 
L 429.652868 164.294 
L 429.652868 161.225 
L 430.517565 161.225 
L 430.517565 155.087 
L 437.435144 155.087 
L 437.435144 148.949 
L 454.729091 148.949 
L 454.729091 145.88 
L 468.564248 145.88 
L 468.564248 142.811 
L 481.534708 142.811 
L 481.534708 139.742 
L 482.399406 139.742 
L 482.399406 136.673 
L 491.046379 136.673 
L 491.046379 133.604 
L 496.234563 133.604 
L 496.234563 127.466 
L 497.963958 127.466 
L 497.963958 124.397 
L 498.828655 124.397 
L 498.828655 118.259 
L 499.693352 118.259 
L 499.693352 115.19 
L 516.987299 115.19 
L 516.987299 112.121 
L 518.716694 112.121 
L 518.716694 109.052 
L 524.769575 109.052 
L 524.769575 105.983 
L 531.687154 105.983 
L 531.687154 102.914 
L 541.198824 102.914 
L 541.198824 96.776 
L 546.387008 96.776 
L 546.387008 93.707 
L 547.251706 93.707 
L 547.251706 90.638 
L 555.898679 90.638 
L 555.898679 87.569 
L 567.139745 87.569 
L 567.139745 84.5 
L 574.922021 84.5 
L 574.922021 81.431 
L 580.110205 81.431 
L 580.110205 78.362 
L 601.727638 78.362 
L 601.727638 75.293 
L 602.592335 75.293 
L 602.592335 72.224 
L 612.104006 72.224 
L 612.104006 69.155 
L 625.939163 69.155 
L 625.939163 66.086 
L 634.586137 66.086 
L 634.586137 63.017 
L 651.880084 63.017 
L 651.880084 59.948 
L 660.527057 59.948 
L 660.527057 56.879 
L 677.821004 56.879 
L 677.821004 53.81 
L 691.656161 53.81 
L 691.656161 50.741 
L 695.11495 50.741 
L 695.11495 47.672 
L 696.844345 47.672 
L 696.844345 44.603 
L 710.679502 44.603 
L 710.679502 41.534 
L 721.920568 41.534 
L 721.920568 38.465 
L 735.755725 38.465 
L 735.755725 35.396 
L 760.831948 35.396 
L 760.831948 32.327 
L 765.155435 32.327 
L 765.155435 26.189 
L 776.3965 26.189 
L 776.3965 26.189 
" style="fill:none;stroke:#c44e52;stroke-linecap:round;stroke-width:2.8000000000000003;"/>
   </g>
   <g id="line2d_30">
    <path clip-path="url(#pb1f661ffe3)" d="M 62.1565 517.229 
L 776.3965 26.189 
" style="fill:none;stroke:#000000;stroke-dasharray:6.000000,6.000000;stroke-dashoffset:0.0;stroke-width:2.8000000000000003;"/>
   </g>
   <g id="line2d_31">
    <path clip-path="url(#pb1f661ffe3)" d="M 62.1565 514.16 
L 62.1565 498.815 
L 65.615289 498.815 
L 65.615289 492.677 
L 66.479987 492.677 
L 66.479987 486.539 
L 67.344684 486.539 
L 67.344684 480.401 
L 68.209381 480.401 
L 68.209381 474.263 
L 69.938776 474.263 
L 69.938776 468.125 
L 72.532868 468.125 
L 72.532868 461.987 
L 73.397565 461.987 
L 73.397565 455.849 
L 75.12696 455.849 
L 75.12696 452.78 
L 78.585749 452.78 
L 78.585749 449.711 
L 80.315144 449.711 
L 80.315144 446.642 
L 82.044539 446.642 
L 82.044539 443.573 
L 82.909236 443.573 
L 82.909236 440.504 
L 84.638631 440.504 
L 84.638631 437.435 
L 85.503328 437.435 
L 85.503328 434.366 
L 90.691512 434.366 
L 90.691512 431.297 
L 96.744393 431.297 
L 96.744393 428.228 
L 97.609091 428.228 
L 97.609091 425.159 
L 99.338485 425.159 
L 99.338485 422.09 
L 102.797275 422.09 
L 102.797275 419.021 
L 104.526669 419.021 
L 104.526669 412.883 
L 108.850156 412.883 
L 108.850156 406.745 
L 110.579551 406.745 
L 110.579551 403.676 
L 111.444248 403.676 
L 111.444248 400.607 
L 118.361827 400.607 
L 118.361827 394.469 
L 120.091222 394.469 
L 120.091222 388.331 
L 121.820616 388.331 
L 121.820616 382.193 
L 124.414708 382.193 
L 124.414708 376.055 
L 132.196984 376.055 
L 132.196984 372.986 
L 136.520471 372.986 
L 136.520471 366.848 
L 137.385168 366.848 
L 137.385168 363.779 
L 140.843958 363.779 
L 140.843958 357.641 
L 146.896839 357.641 
L 146.896839 354.572 
L 152.94972 354.572 
L 152.94972 351.503 
L 157.273207 351.503 
L 157.273207 348.434 
L 159.002602 348.434 
L 159.002602 345.365 
L 167.649575 345.365 
L 167.649575 339.227 
L 185.808219 339.227 
L 185.808219 333.089 
L 186.672916 333.089 
L 186.672916 330.02 
L 190.131706 330.02 
L 190.131706 326.951 
L 197.049285 326.951 
L 197.049285 323.882 
L 201.372771 323.882 
L 201.372771 320.813 
L 207.425653 320.813 
L 207.425653 317.744 
L 211.749139 317.744 
L 211.749139 314.675 
L 214.343231 314.675 
L 214.343231 311.606 
L 220.396113 311.606 
L 220.396113 308.537 
L 222.125507 308.537 
L 222.125507 302.399 
L 223.854902 302.399 
L 223.854902 299.33 
L 229.043086 299.33 
L 229.043086 296.261 
L 242.878243 296.261 
L 242.878243 290.123 
L 248.931125 290.123 
L 248.931125 287.054 
L 250.660519 287.054 
L 250.660519 280.916 
L 252.389914 280.916 
L 252.389914 277.847 
L 253.254611 277.847 
L 253.254611 274.778 
L 256.713401 274.778 
L 256.713401 265.571 
L 258.442795 265.571 
L 258.442795 262.502 
L 269.683861 262.502 
L 269.683861 259.433 
L 288.707202 259.433 
L 288.707202 256.364 
L 290.436597 256.364 
L 290.436597 253.295 
L 298.218873 253.295 
L 298.218873 250.226 
L 306.001149 250.226 
L 306.001149 247.157 
L 317.242214 247.157 
L 317.242214 244.088 
L 318.106912 244.088 
L 318.106912 241.019 
L 322.430398 241.019 
L 322.430398 237.95 
L 328.48328 237.95 
L 328.48328 234.881 
L 343.183134 234.881 
L 343.183134 231.812 
L 350.96541 231.812 
L 350.96541 228.743 
L 356.153594 228.743 
L 356.153594 225.674 
L 359.612384 225.674 
L 359.612384 222.605 
L 362.206476 222.605 
L 362.206476 216.467 
L 369.988752 216.467 
L 369.988752 213.398 
L 371.718146 213.398 
L 371.718146 210.329 
L 372.582844 210.329 
L 372.582844 207.26 
L 377.771028 207.26 
L 377.771028 204.191 
L 394.200277 204.191 
L 394.200277 201.122 
L 399.388461 201.122 
L 399.388461 198.053 
L 414.088316 198.053 
L 414.088316 194.984 
L 414.953013 194.984 
L 414.953013 191.915 
L 428.788171 191.915 
L 428.788171 188.846 
L 443.488025 188.846 
L 443.488025 185.777 
L 450.405604 185.777 
L 450.405604 182.708 
L 452.999696 182.708 
L 452.999696 179.639 
L 462.511367 179.639 
L 462.511367 176.57 
L 469.428946 176.57 
L 469.428946 173.501 
L 471.15834 173.501 
L 471.15834 170.432 
L 478.075919 170.432 
L 478.075919 167.363 
L 479.805314 167.363 
L 479.805314 158.156 
L 481.534708 158.156 
L 481.534708 155.087 
L 486.722892 155.087 
L 486.722892 152.018 
L 502.287444 152.018 
L 502.287444 148.949 
L 504.881536 148.949 
L 504.881536 145.88 
L 505.746234 145.88 
L 505.746234 142.811 
L 512.663812 142.811 
L 512.663812 139.742 
L 518.716694 139.742 
L 518.716694 133.604 
L 538.604732 133.604 
L 538.604732 130.535 
L 541.198824 130.535 
L 541.198824 127.466 
L 544.657614 127.466 
L 544.657614 124.397 
L 563.680955 124.397 
L 563.680955 121.328 
L 567.139745 121.328 
L 567.139745 118.259 
L 568.869139 118.259 
L 568.869139 115.19 
L 574.922021 115.19 
L 574.922021 112.121 
L 589.621875 112.121 
L 589.621875 109.052 
L 615.562795 109.052 
L 615.562795 105.983 
L 616.427493 105.983 
L 616.427493 102.914 
L 624.209769 102.914 
L 624.209769 99.845 
L 632.856742 99.845 
L 632.856742 96.776 
L 633.721439 96.776 
L 633.721439 93.707 
L 642.368413 93.707 
L 642.368413 90.638 
L 644.097808 90.638 
L 644.097808 84.5 
L 650.150689 84.5 
L 650.150689 81.431 
L 651.880084 81.431 
L 651.880084 75.293 
L 654.474176 75.293 
L 654.474176 69.155 
L 658.797662 69.155 
L 658.797662 66.086 
L 661.391754 66.086 
L 661.391754 63.017 
L 684.738582 63.017 
L 684.738582 59.948 
L 685.60328 59.948 
L 685.60328 56.879 
L 689.062069 56.879 
L 689.062069 53.81 
L 703.761924 53.81 
L 703.761924 50.741 
L 714.138292 50.741 
L 714.138292 44.603 
L 719.326476 44.603 
L 719.326476 38.465 
L 738.349817 38.465 
L 738.349817 35.396 
L 740.943909 35.396 
L 740.943909 32.327 
L 744.402699 32.327 
L 744.402699 29.258 
L 768.614224 29.258 
L 768.614224 26.189 
L 776.3965 26.189 
L 776.3965 26.189 
" style="fill:none;stroke:#8172b2;stroke-linecap:round;stroke-width:2.8000000000000003;"/>
   </g>
   <g id="line2d_32">
    <path clip-path="url(#pb1f661ffe3)" d="M 62.1565 517.229 
L 776.3965 26.189 
" style="fill:none;stroke:#000000;stroke-dasharray:6.000000,6.000000;stroke-dashoffset:0.0;stroke-width:2.8000000000000003;"/>
   </g>
   <g id="patch_3">
    <path d="M 776.3965 517.229 
L 776.3965 26.189 
" style="fill:none;stroke:#262626;stroke-linecap:square;stroke-linejoin:miter;stroke-width:1.25;"/>
   </g>
   <g id="patch_4">
    <path d="M 62.1565 517.229 
L 776.3965 517.229 
" style="fill:none;stroke:#262626;stroke-linecap:square;stroke-linejoin:miter;stroke-width:1.25;"/>
   </g>
   <g id="patch_5">
    <path d="M 62.1565 517.229 
L 62.1565 26.189 
" style="fill:none;stroke:#262626;stroke-linecap:square;stroke-linejoin:miter;stroke-width:1.25;"/>
   </g>
   <g id="patch_6">
    <path d="M 62.1565 26.189 
L 776.3965 26.189 
" style="fill:none;stroke:#262626;stroke-linecap:square;stroke-linejoin:miter;stroke-width:1.25;"/>
   </g>
   <g id="text_15">
    <!-- Receiver Operating Characteristic -->
    <defs>
     <path d="M 4.828125 34.859375 
Q 4.828125 52.6875 14.390625 62.765625 
Q 23.96875 72.859375 39.109375 72.859375 
Q 49.03125 72.859375 56.984375 68.109375 
Q 64.9375 63.375 69.109375 54.90625 
Q 73.296875 46.4375 73.296875 35.6875 
Q 73.296875 24.8125 68.890625 16.21875 
Q 64.5 7.625 56.4375 3.203125 
Q 48.390625 -1.21875 39.0625 -1.21875 
Q 28.953125 -1.21875 20.984375 3.65625 
Q 13.03125 8.546875 8.921875 16.984375 
Q 4.828125 25.4375 4.828125 34.859375 
M 14.59375 34.71875 
Q 14.59375 21.78125 21.546875 14.328125 
Q 28.515625 6.890625 39.015625 6.890625 
Q 49.703125 6.890625 56.609375 14.40625 
Q 63.53125 21.921875 63.53125 35.75 
Q 63.53125 44.484375 60.578125 51 
Q 57.625 57.515625 51.921875 61.109375 
Q 46.234375 64.703125 39.15625 64.703125 
Q 29.109375 64.703125 21.84375 57.78125 
Q 14.59375 50.875 14.59375 34.71875 
" id="ArialMT-4f"/>
     <path d="M 58.796875 25.09375 
L 68.265625 22.703125 
Q 65.28125 11.03125 57.546875 4.90625 
Q 49.8125 -1.21875 38.625 -1.21875 
Q 27.046875 -1.21875 19.796875 3.484375 
Q 12.546875 8.203125 8.765625 17.140625 
Q 4.984375 26.078125 4.984375 36.328125 
Q 4.984375 47.515625 9.25 55.828125 
Q 13.53125 64.15625 21.40625 68.46875 
Q 29.296875 72.796875 38.765625 72.796875 
Q 49.515625 72.796875 56.828125 67.328125 
Q 64.15625 61.859375 67.046875 51.953125 
L 57.71875 49.75 
Q 55.21875 57.5625 50.484375 61.125 
Q 45.75 64.703125 38.578125 64.703125 
Q 30.328125 64.703125 24.78125 60.734375 
Q 19.234375 56.78125 16.984375 50.109375 
Q 14.75 43.453125 14.75 36.375 
Q 14.75 27.25 17.40625 20.4375 
Q 20.0625 13.625 25.671875 10.25 
Q 31.296875 6.890625 37.84375 6.890625 
Q 45.796875 6.890625 51.3125 11.46875 
Q 56.84375 16.0625 58.796875 25.09375 
" id="ArialMT-43"/>
     <path d="M 4.984375 -4.296875 
L 13.53125 -5.5625 
Q 14.0625 -9.515625 16.5 -11.328125 
Q 19.78125 -13.765625 25.4375 -13.765625 
Q 31.546875 -13.765625 34.859375 -11.328125 
Q 38.1875 -8.890625 39.359375 -4.5 
Q 40.046875 -1.8125 39.984375 6.78125 
Q 34.234375 0 25.640625 0 
Q 14.9375 0 9.078125 7.71875 
Q 3.21875 15.4375 3.21875 26.21875 
Q 3.21875 33.640625 5.90625 39.90625 
Q 8.59375 46.1875 13.6875 49.609375 
Q 18.796875 53.03125 25.6875 53.03125 
Q 34.859375 53.03125 40.828125 45.609375 
L 40.828125 51.859375 
L 48.921875 51.859375 
L 48.921875 7.03125 
Q 48.921875 -5.078125 46.453125 -10.125 
Q 44 -15.1875 38.640625 -18.109375 
Q 33.296875 -21.046875 25.484375 -21.046875 
Q 16.21875 -21.046875 10.5 -16.875 
Q 4.78125 -12.703125 4.984375 -4.296875 
M 12.25 26.859375 
Q 12.25 16.65625 16.296875 11.96875 
Q 20.359375 7.28125 26.46875 7.28125 
Q 32.515625 7.28125 36.609375 11.9375 
Q 40.71875 16.609375 40.71875 26.5625 
Q 40.71875 36.078125 36.5 40.90625 
Q 32.28125 45.75 26.3125 45.75 
Q 20.453125 45.75 16.34375 40.984375 
Q 12.25 36.234375 12.25 26.859375 
" id="ArialMT-67"/>
     <path d="M 6.59375 0 
L 6.59375 71.578125 
L 15.375 71.578125 
L 15.375 45.90625 
Q 21.53125 53.03125 30.90625 53.03125 
Q 36.671875 53.03125 40.921875 50.75 
Q 45.171875 48.484375 47 44.484375 
Q 48.828125 40.484375 48.828125 32.859375 
L 48.828125 0 
L 40.046875 0 
L 40.046875 32.859375 
Q 40.046875 39.453125 37.1875 42.453125 
Q 34.328125 45.453125 29.109375 45.453125 
Q 25.203125 45.453125 21.75 43.421875 
Q 18.3125 41.40625 16.84375 37.9375 
Q 15.375 34.46875 15.375 28.375 
L 15.375 0 
z
" id="ArialMT-68"/>
    </defs>
    <g style="fill:#262626;" transform="translate(275.2285 21.189)scale(0.19200000000000003 -0.19200000000000003)">
     <use xlink:href="#ArialMT-52"/>
     <use x="72.216796875" xlink:href="#ArialMT-65"/>
     <use x="127.83203125" xlink:href="#ArialMT-63"/>
     <use x="177.83203125" xlink:href="#ArialMT-65"/>
     <use x="233.447265625" xlink:href="#ArialMT-69"/>
     <use x="255.6640625" xlink:href="#ArialMT-76"/>
     <use x="305.6640625" xlink:href="#ArialMT-65"/>
     <use x="361.279296875" xlink:href="#ArialMT-72"/>
     <use x="394.580078125" xlink:href="#ArialMT-20"/>
     <use x="422.36328125" xlink:href="#ArialMT-4f"/>
     <use x="500.146484375" xlink:href="#ArialMT-70"/>
     <use x="555.76171875" xlink:href="#ArialMT-65"/>
     <use x="611.376953125" xlink:href="#ArialMT-72"/>
     <use x="644.677734375" xlink:href="#ArialMT-61"/>
     <use x="700.29296875" xlink:href="#ArialMT-74"/>
     <use x="728.076171875" xlink:href="#ArialMT-69"/>
     <use x="750.29296875" xlink:href="#ArialMT-6e"/>
     <use x="805.908203125" xlink:href="#ArialMT-67"/>
     <use x="861.5234375" xlink:href="#ArialMT-20"/>
     <use x="889.306640625" xlink:href="#ArialMT-43"/>
     <use x="961.5234375" xlink:href="#ArialMT-68"/>
     <use x="1017.138671875" xlink:href="#ArialMT-61"/>
     <use x="1072.75390625" xlink:href="#ArialMT-72"/>
     <use x="1106.0546875" xlink:href="#ArialMT-61"/>
     <use x="1161.669921875" xlink:href="#ArialMT-63"/>
     <use x="1211.669921875" xlink:href="#ArialMT-74"/>
     <use x="1239.453125" xlink:href="#ArialMT-65"/>
     <use x="1295.068359375" xlink:href="#ArialMT-72"/>
     <use x="1328.369140625" xlink:href="#ArialMT-69"/>
     <use x="1350.5859375" xlink:href="#ArialMT-73"/>
     <use x="1400.5859375" xlink:href="#ArialMT-74"/>
     <use x="1428.369140625" xlink:href="#ArialMT-69"/>
     <use x="1450.5859375" xlink:href="#ArialMT-63"/>
    </g>
   </g>
   <g id="legend_1">
    <g id="line2d_33">
     <path d="M 343.279 424.7865 
L 375.279 424.7865 
" style="fill:none;stroke:#4c72b0;stroke-linecap:round;stroke-width:2.8000000000000003;"/>
    </g>
    <g id="line2d_34"/>
    <g id="text_16">
     <!-- ROC curve (area = 0.66, GradientBoostingClassifier) -->
     <defs>
      <path d="M 40.234375 0 
L 40.234375 6.546875 
Q 35.296875 -1.171875 25.734375 -1.171875 
Q 19.53125 -1.171875 14.328125 2.25 
Q 9.125 5.671875 6.265625 11.796875 
Q 3.421875 17.921875 3.421875 25.875 
Q 3.421875 33.640625 6 39.96875 
Q 8.59375 46.296875 13.765625 49.65625 
Q 18.953125 53.03125 25.34375 53.03125 
Q 30.03125 53.03125 33.6875 51.046875 
Q 37.359375 49.078125 39.65625 45.90625 
L 39.65625 71.578125 
L 48.390625 71.578125 
L 48.390625 0 
z
M 12.453125 25.875 
Q 12.453125 15.921875 16.640625 10.984375 
Q 20.84375 6.0625 26.5625 6.0625 
Q 32.328125 6.0625 36.34375 10.765625 
Q 40.375 15.484375 40.375 25.140625 
Q 40.375 35.796875 36.265625 40.765625 
Q 32.171875 45.75 26.171875 45.75 
Q 20.3125 45.75 16.375 40.96875 
Q 12.453125 36.1875 12.453125 25.875 
" id="ArialMT-64"/>
      <path d="M 7.328125 0 
L 7.328125 71.578125 
L 34.1875 71.578125 
Q 42.390625 71.578125 47.34375 69.40625 
Q 52.296875 67.234375 55.09375 62.71875 
Q 57.90625 58.203125 57.90625 53.265625 
Q 57.90625 48.6875 55.421875 44.625 
Q 52.9375 40.578125 47.90625 38.09375 
Q 54.390625 36.1875 57.875 31.59375 
Q 61.375 27 61.375 20.75 
Q 61.375 15.71875 59.25 11.390625 
Q 57.125 7.078125 54 4.734375 
Q 50.875 2.390625 46.15625 1.1875 
Q 41.453125 0 34.625 0 
z
M 16.796875 41.5 
L 32.28125 41.5 
Q 38.578125 41.5 41.3125 42.328125 
Q 44.921875 43.40625 46.75 45.890625 
Q 48.578125 48.390625 48.578125 52.15625 
Q 48.578125 55.71875 46.875 58.421875 
Q 45.171875 61.140625 41.984375 62.140625 
Q 38.8125 63.140625 31.109375 63.140625 
L 16.796875 63.140625 
z
M 16.796875 8.453125 
L 34.625 8.453125 
Q 39.203125 8.453125 41.0625 8.796875 
Q 44.34375 9.375 46.53125 10.734375 
Q 48.734375 12.109375 50.140625 14.71875 
Q 51.5625 17.328125 51.5625 20.75 
Q 51.5625 24.75 49.515625 27.703125 
Q 47.46875 30.671875 43.828125 31.859375 
Q 40.1875 33.0625 33.34375 33.0625 
L 16.796875 33.0625 
z
" id="ArialMT-42"/>
      <path d="M 8.890625 0 
L 8.890625 10.015625 
L 18.890625 10.015625 
L 18.890625 0 
Q 18.890625 -5.515625 16.9375 -8.90625 
Q 14.984375 -12.3125 10.75 -14.15625 
L 8.296875 -10.40625 
Q 11.078125 -9.1875 12.390625 -6.8125 
Q 13.71875 -4.4375 13.875 0 
z
" id="ArialMT-2c"/>
      <path d="M 41.21875 28.078125 
L 41.21875 36.46875 
L 71.53125 36.53125 
L 71.53125 9.96875 
Q 64.546875 4.390625 57.125 1.578125 
Q 49.703125 -1.21875 41.890625 -1.21875 
Q 31.34375 -1.21875 22.71875 3.296875 
Q 14.109375 7.8125 9.71875 16.359375 
Q 5.328125 24.90625 5.328125 35.453125 
Q 5.328125 45.90625 9.6875 54.953125 
Q 14.0625 64.015625 22.265625 68.40625 
Q 30.46875 72.796875 41.15625 72.796875 
Q 48.921875 72.796875 55.1875 70.28125 
Q 61.46875 67.78125 65.03125 63.28125 
Q 68.609375 58.796875 70.453125 51.5625 
L 61.921875 49.21875 
Q 60.296875 54.6875 57.90625 57.8125 
Q 55.515625 60.9375 51.0625 62.8125 
Q 46.625 64.703125 41.21875 64.703125 
Q 34.71875 64.703125 29.984375 62.71875 
Q 25.25 60.75 22.34375 57.515625 
Q 19.4375 54.296875 17.828125 50.4375 
Q 15.09375 43.796875 15.09375 36.03125 
Q 15.09375 26.46875 18.390625 20.015625 
Q 21.6875 13.578125 27.984375 10.453125 
Q 34.28125 7.328125 41.359375 7.328125 
Q 47.515625 7.328125 53.375 9.6875 
Q 59.234375 12.0625 62.25 14.75 
L 62.25 28.078125 
z
" id="ArialMT-47"/>
      <path d="M 52.828125 42.09375 
L 5.5625 42.09375 
L 5.5625 50.296875 
L 52.828125 50.296875 
z
M 52.828125 20.359375 
L 5.5625 20.359375 
L 5.5625 28.5625 
L 52.828125 28.5625 
z
" id="ArialMT-3d"/>
     </defs>
     <g style="fill:#262626;" transform="translate(388.079 430.3865)scale(0.16 -0.16)">
      <use xlink:href="#ArialMT-52"/>
      <use x="72.216796875" xlink:href="#ArialMT-4f"/>
      <use x="150.0" xlink:href="#ArialMT-43"/>
      <use x="222.216796875" xlink:href="#ArialMT-20"/>
      <use x="250.0" xlink:href="#ArialMT-63"/>
      <use x="300.0" xlink:href="#ArialMT-75"/>
      <use x="355.615234375" xlink:href="#ArialMT-72"/>
      <use x="388.916015625" xlink:href="#ArialMT-76"/>
      <use x="438.916015625" xlink:href="#ArialMT-65"/>
      <use x="494.53125" xlink:href="#ArialMT-20"/>
      <use x="522.314453125" xlink:href="#ArialMT-28"/>
      <use x="555.615234375" xlink:href="#ArialMT-61"/>
      <use x="611.23046875" xlink:href="#ArialMT-72"/>
      <use x="644.53125" xlink:href="#ArialMT-65"/>
      <use x="700.146484375" xlink:href="#ArialMT-61"/>
      <use x="755.76171875" xlink:href="#ArialMT-20"/>
      <use x="783.544921875" xlink:href="#ArialMT-3d"/>
      <use x="841.943359375" xlink:href="#ArialMT-20"/>
      <use x="869.7265625" xlink:href="#ArialMT-30"/>
      <use x="925.341796875" xlink:href="#ArialMT-2e"/>
      <use x="953.125" xlink:href="#ArialMT-36"/>
      <use x="1008.740234375" xlink:href="#ArialMT-36"/>
      <use x="1064.35546875" xlink:href="#ArialMT-2c"/>
      <use x="1092.138671875" xlink:href="#ArialMT-20"/>
      <use x="1119.921875" xlink:href="#ArialMT-47"/>
      <use x="1197.705078125" xlink:href="#ArialMT-72"/>
      <use x="1231.005859375" xlink:href="#ArialMT-61"/>
      <use x="1286.62109375" xlink:href="#ArialMT-64"/>
      <use x="1342.236328125" xlink:href="#ArialMT-69"/>
      <use x="1364.453125" xlink:href="#ArialMT-65"/>
      <use x="1420.068359375" xlink:href="#ArialMT-6e"/>
      <use x="1475.68359375" xlink:href="#ArialMT-74"/>
      <use x="1503.466796875" xlink:href="#ArialMT-42"/>
      <use x="1570.166015625" xlink:href="#ArialMT-6f"/>
      <use x="1625.78125" xlink:href="#ArialMT-6f"/>
      <use x="1681.396484375" xlink:href="#ArialMT-73"/>
      <use x="1731.396484375" xlink:href="#ArialMT-74"/>
      <use x="1759.1796875" xlink:href="#ArialMT-69"/>
      <use x="1781.396484375" xlink:href="#ArialMT-6e"/>
      <use x="1837.01171875" xlink:href="#ArialMT-67"/>
      <use x="1892.626953125" xlink:href="#ArialMT-43"/>
      <use x="1964.84375" xlink:href="#ArialMT-6c"/>
      <use x="1987.060546875" xlink:href="#ArialMT-61"/>
      <use x="2042.67578125" xlink:href="#ArialMT-73"/>
      <use x="2092.67578125" xlink:href="#ArialMT-73"/>
      <use x="2142.67578125" xlink:href="#ArialMT-69"/>
      <use x="2164.892578125" xlink:href="#ArialMT-66"/>
      <use x="2192.67578125" xlink:href="#ArialMT-69"/>
      <use x="2214.892578125" xlink:href="#ArialMT-65"/>
      <use x="2270.5078125" xlink:href="#ArialMT-72"/>
      <use x="2303.80859375" xlink:href="#ArialMT-29"/>
     </g>
    </g>
    <g id="line2d_35">
     <path d="M 343.279 447.8115 
L 375.279 447.8115 
" style="fill:none;stroke:#55a868;stroke-linecap:round;stroke-width:2.8000000000000003;"/>
    </g>
    <g id="line2d_36"/>
    <g id="text_17">
     <!-- ROC curve (area = 0.61, LogisticRegression) -->
     <defs>
      <path d="M 7.328125 0 
L 7.328125 71.578125 
L 16.796875 71.578125 
L 16.796875 8.453125 
L 52.046875 8.453125 
L 52.046875 0 
z
" id="ArialMT-4c"/>
     </defs>
     <g style="fill:#262626;" transform="translate(388.079 453.4115)scale(0.16 -0.16)">
      <use xlink:href="#ArialMT-52"/>
      <use x="72.216796875" xlink:href="#ArialMT-4f"/>
      <use x="150.0" xlink:href="#ArialMT-43"/>
      <use x="222.216796875" xlink:href="#ArialMT-20"/>
      <use x="250.0" xlink:href="#ArialMT-63"/>
      <use x="300.0" xlink:href="#ArialMT-75"/>
      <use x="355.615234375" xlink:href="#ArialMT-72"/>
      <use x="388.916015625" xlink:href="#ArialMT-76"/>
      <use x="438.916015625" xlink:href="#ArialMT-65"/>
      <use x="494.53125" xlink:href="#ArialMT-20"/>
      <use x="522.314453125" xlink:href="#ArialMT-28"/>
      <use x="555.615234375" xlink:href="#ArialMT-61"/>
      <use x="611.23046875" xlink:href="#ArialMT-72"/>
      <use x="644.53125" xlink:href="#ArialMT-65"/>
      <use x="700.146484375" xlink:href="#ArialMT-61"/>
      <use x="755.76171875" xlink:href="#ArialMT-20"/>
      <use x="783.544921875" xlink:href="#ArialMT-3d"/>
      <use x="841.943359375" xlink:href="#ArialMT-20"/>
      <use x="869.7265625" xlink:href="#ArialMT-30"/>
      <use x="925.341796875" xlink:href="#ArialMT-2e"/>
      <use x="953.125" xlink:href="#ArialMT-36"/>
      <use x="1008.740234375" xlink:href="#ArialMT-31"/>
      <use x="1064.35546875" xlink:href="#ArialMT-2c"/>
      <use x="1092.138671875" xlink:href="#ArialMT-20"/>
      <use x="1119.921875" xlink:href="#ArialMT-4c"/>
      <use x="1175.537109375" xlink:href="#ArialMT-6f"/>
      <use x="1231.15234375" xlink:href="#ArialMT-67"/>
      <use x="1286.767578125" xlink:href="#ArialMT-69"/>
      <use x="1308.984375" xlink:href="#ArialMT-73"/>
      <use x="1358.984375" xlink:href="#ArialMT-74"/>
      <use x="1386.767578125" xlink:href="#ArialMT-69"/>
      <use x="1408.984375" xlink:href="#ArialMT-63"/>
      <use x="1458.984375" xlink:href="#ArialMT-52"/>
      <use x="1531.201171875" xlink:href="#ArialMT-65"/>
      <use x="1586.81640625" xlink:href="#ArialMT-67"/>
      <use x="1642.431640625" xlink:href="#ArialMT-72"/>
      <use x="1675.732421875" xlink:href="#ArialMT-65"/>
      <use x="1731.34765625" xlink:href="#ArialMT-73"/>
      <use x="1781.34765625" xlink:href="#ArialMT-73"/>
      <use x="1831.34765625" xlink:href="#ArialMT-69"/>
      <use x="1853.564453125" xlink:href="#ArialMT-6f"/>
      <use x="1909.1796875" xlink:href="#ArialMT-6e"/>
      <use x="1964.794921875" xlink:href="#ArialMT-29"/>
     </g>
    </g>
    <g id="line2d_37">
     <path d="M 343.279 470.8365 
L 375.279 470.8365 
" style="fill:none;stroke:#c44e52;stroke-linecap:round;stroke-width:2.8000000000000003;"/>
    </g>
    <g id="line2d_38"/>
    <g id="text_18">
     <!-- ROC curve (area = 0.67, SVC) -->
     <defs>
      <path d="M 28.171875 0 
L 0.4375 71.578125 
L 10.6875 71.578125 
L 29.296875 19.578125 
Q 31.546875 13.328125 33.0625 7.859375 
Q 34.71875 13.71875 36.921875 19.578125 
L 56.25 71.578125 
L 65.921875 71.578125 
L 37.890625 0 
z
" id="ArialMT-56"/>
      <path d="M 4.734375 62.203125 
L 4.734375 70.65625 
L 51.078125 70.65625 
L 51.078125 63.8125 
Q 44.234375 56.546875 37.515625 44.484375 
Q 30.8125 32.421875 27.15625 19.671875 
Q 24.515625 10.6875 23.78125 0 
L 14.75 0 
Q 14.890625 8.453125 18.0625 20.40625 
Q 21.234375 32.375 27.171875 43.484375 
Q 33.109375 54.59375 39.796875 62.203125 
z
" id="ArialMT-37"/>
     </defs>
     <g style="fill:#262626;" transform="translate(388.079 476.4365)scale(0.16 -0.16)">
      <use xlink:href="#ArialMT-52"/>
      <use x="72.216796875" xlink:href="#ArialMT-4f"/>
      <use x="150.0" xlink:href="#ArialMT-43"/>
      <use x="222.216796875" xlink:href="#ArialMT-20"/>
      <use x="250.0" xlink:href="#ArialMT-63"/>
      <use x="300.0" xlink:href="#ArialMT-75"/>
      <use x="355.615234375" xlink:href="#ArialMT-72"/>
      <use x="388.916015625" xlink:href="#ArialMT-76"/>
      <use x="438.916015625" xlink:href="#ArialMT-65"/>
      <use x="494.53125" xlink:href="#ArialMT-20"/>
      <use x="522.314453125" xlink:href="#ArialMT-28"/>
      <use x="555.615234375" xlink:href="#ArialMT-61"/>
      <use x="611.23046875" xlink:href="#ArialMT-72"/>
      <use x="644.53125" xlink:href="#ArialMT-65"/>
      <use x="700.146484375" xlink:href="#ArialMT-61"/>
      <use x="755.76171875" xlink:href="#ArialMT-20"/>
      <use x="783.544921875" xlink:href="#ArialMT-3d"/>
      <use x="841.943359375" xlink:href="#ArialMT-20"/>
      <use x="869.7265625" xlink:href="#ArialMT-30"/>
      <use x="925.341796875" xlink:href="#ArialMT-2e"/>
      <use x="953.125" xlink:href="#ArialMT-36"/>
      <use x="1008.740234375" xlink:href="#ArialMT-37"/>
      <use x="1064.35546875" xlink:href="#ArialMT-2c"/>
      <use x="1092.138671875" xlink:href="#ArialMT-20"/>
      <use x="1119.921875" xlink:href="#ArialMT-53"/>
      <use x="1186.62109375" xlink:href="#ArialMT-56"/>
      <use x="1253.3203125" xlink:href="#ArialMT-43"/>
      <use x="1325.537109375" xlink:href="#ArialMT-29"/>
     </g>
    </g>
    <g id="line2d_39">
     <path d="M 343.279 493.8615 
L 375.279 493.8615 
" style="fill:none;stroke:#8172b2;stroke-linecap:round;stroke-width:2.8000000000000003;"/>
    </g>
    <g id="line2d_40"/>
    <g id="text_19">
     <!-- ROC curve (area = 0.64, Voting) -->
     <g style="fill:#262626;" transform="translate(388.079 499.4615)scale(0.16 -0.16)">
      <use xlink:href="#ArialMT-52"/>
      <use x="72.216796875" xlink:href="#ArialMT-4f"/>
      <use x="150.0" xlink:href="#ArialMT-43"/>
      <use x="222.216796875" xlink:href="#ArialMT-20"/>
      <use x="250.0" xlink:href="#ArialMT-63"/>
      <use x="300.0" xlink:href="#ArialMT-75"/>
      <use x="355.615234375" xlink:href="#ArialMT-72"/>
      <use x="388.916015625" xlink:href="#ArialMT-76"/>
      <use x="438.916015625" xlink:href="#ArialMT-65"/>
      <use x="494.53125" xlink:href="#ArialMT-20"/>
      <use x="522.314453125" xlink:href="#ArialMT-28"/>
      <use x="555.615234375" xlink:href="#ArialMT-61"/>
      <use x="611.23046875" xlink:href="#ArialMT-72"/>
      <use x="644.53125" xlink:href="#ArialMT-65"/>
      <use x="700.146484375" xlink:href="#ArialMT-61"/>
      <use x="755.76171875" xlink:href="#ArialMT-20"/>
      <use x="783.544921875" xlink:href="#ArialMT-3d"/>
      <use x="841.943359375" xlink:href="#ArialMT-20"/>
      <use x="869.7265625" xlink:href="#ArialMT-30"/>
      <use x="925.341796875" xlink:href="#ArialMT-2e"/>
      <use x="953.125" xlink:href="#ArialMT-36"/>
      <use x="1008.740234375" xlink:href="#ArialMT-34"/>
      <use x="1064.35546875" xlink:href="#ArialMT-2c"/>
      <use x="1092.138671875" xlink:href="#ArialMT-20"/>
      <use x="1119.921875" xlink:href="#ArialMT-56"/>
      <use x="1186.54296875" xlink:href="#ArialMT-6f"/>
      <use x="1242.158203125" xlink:href="#ArialMT-74"/>
      <use x="1269.94140625" xlink:href="#ArialMT-69"/>
      <use x="1292.158203125" xlink:href="#ArialMT-6e"/>
      <use x="1347.7734375" xlink:href="#ArialMT-67"/>
      <use x="1403.388671875" xlink:href="#ArialMT-29"/>
     </g>
    </g>
   </g>
  </g>
 </g>
 <defs>
  <clipPath id="pb1f661ffe3">
   <rect height="491.04" width="714.24" x="62.1565" y="26.189"/>
  </clipPath>
 </defs>
</svg>
