<?xml version="1.0" encoding="utf-8" standalone="no"?>
<!DOCTYPE svg PUBLIC "-//W3C//DTD SVG 1.1//EN"
  "http://www.w3.org/Graphics/SVG/1.1/DTD/svg11.dtd">
<!-- Created with matplotlib (http://matplotlib.org/) -->
<svg height="411pt" version="1.1" viewBox="0 0 664 411" width="664pt" xmlns="http://www.w3.org/2000/svg" xmlns:xlink="http://www.w3.org/1999/xlink">
 <defs>
  <style type="text/css">
*{stroke-linecap:butt;stroke-linejoin:round;stroke-miterlimit:100000;}
  </style>
 </defs>
 <g id="figure_1">
  <g id="patch_1">
   <path d="M 0 411.615156 
L 664.448049 411.615156 
L 664.448049 0 
L 0 0 
z
" style="fill:#ffffff;"/>
  </g>
  <g id="axes_1">
   <g id="patch_2">
    <path d="M 59.844594 174.822453 
L 632.548594 174.822453 
L 632.548594 13.144453 
L 59.844594 13.144453 
z
" style="fill:#ffffff;"/>
   </g>
   <g id="matplotlib.axis_1">
    <g id="xtick_1">
     <g id="line2d_1">
      <defs>
       <path d="M 0 0 
L 0 0 
" id="m84f941660b" style="stroke:#262626;stroke-width:1.3;"/>
      </defs>
      <g>
       <use style="fill:#262626;stroke:#262626;stroke-width:1.3;" x="59.84459375" xlink:href="#m84f941660b" y="174.822453125"/>
      </g>
     </g>
    </g>
    <g id="xtick_2">
     <g id="line2d_2">
      <g>
       <use style="fill:#262626;stroke:#262626;stroke-width:1.3;" x="141.659450893" xlink:href="#m84f941660b" y="174.822453125"/>
      </g>
     </g>
    </g>
    <g id="xtick_3">
     <g id="line2d_3">
      <g>
       <use style="fill:#262626;stroke:#262626;stroke-width:1.3;" x="223.474308036" xlink:href="#m84f941660b" y="174.822453125"/>
      </g>
     </g>
    </g>
    <g id="xtick_4">
     <g id="line2d_4">
      <g>
       <use style="fill:#262626;stroke:#262626;stroke-width:1.3;" x="305.289165179" xlink:href="#m84f941660b" y="174.822453125"/>
      </g>
     </g>
    </g>
    <g id="xtick_5">
     <g id="line2d_5">
      <g>
       <use style="fill:#262626;stroke:#262626;stroke-width:1.3;" x="387.104022321" xlink:href="#m84f941660b" y="174.822453125"/>
      </g>
     </g>
    </g>
    <g id="xtick_6">
     <g id="line2d_6">
      <g>
       <use style="fill:#262626;stroke:#262626;stroke-width:1.3;" x="468.918879464" xlink:href="#m84f941660b" y="174.822453125"/>
      </g>
     </g>
    </g>
    <g id="xtick_7">
     <g id="line2d_7">
      <g>
       <use style="fill:#262626;stroke:#262626;stroke-width:1.3;" x="550.733736607" xlink:href="#m84f941660b" y="174.822453125"/>
      </g>
     </g>
    </g>
    <g id="xtick_8">
     <g id="line2d_8">
      <g>
       <use style="fill:#262626;stroke:#262626;stroke-width:1.3;" x="632.54859375" xlink:href="#m84f941660b" y="174.822453125"/>
      </g>
     </g>
    </g>
   </g>
   <g id="matplotlib.axis_2">
    <g id="ytick_1">
     <g id="line2d_9">
      <g>
       <use style="fill:#262626;stroke:#262626;stroke-width:1.3;" x="59.84459375" xlink:href="#m84f941660b" y="174.822453125"/>
      </g>
     </g>
     <g id="text_1">
      <!-- 0.00 -->
      <defs>
       <path d="M 9.078125 0 
L 9.078125 10.015625 
L 19.09375 10.015625 
L 19.09375 0 
z
" id="ArialMT-2e"/>
       <path d="M 4.15625 35.296875 
Q 4.15625 48 6.765625 55.734375 
Q 9.375 63.484375 14.515625 67.671875 
Q 19.671875 71.875 27.484375 71.875 
Q 33.25 71.875 37.59375 69.546875 
Q 41.9375 67.234375 44.765625 62.859375 
Q 47.609375 58.5 49.21875 52.21875 
Q 50.828125 45.953125 50.828125 35.296875 
Q 50.828125 22.703125 48.234375 14.96875 
Q 45.65625 7.234375 40.5 3 
Q 35.359375 -1.21875 27.484375 -1.21875 
Q 17.140625 -1.21875 11.234375 6.203125 
Q 4.15625 15.140625 4.15625 35.296875 
M 13.1875 35.296875 
Q 13.1875 17.671875 17.3125 11.828125 
Q 21.4375 6 27.484375 6 
Q 33.546875 6 37.671875 11.859375 
Q 41.796875 17.71875 41.796875 35.296875 
Q 41.796875 52.984375 37.671875 58.78125 
Q 33.546875 64.59375 27.390625 64.59375 
Q 21.34375 64.59375 17.71875 59.46875 
Q 13.1875 52.9375 13.1875 35.296875 
" id="ArialMT-30"/>
      </defs>
      <g style="fill:#262626;" transform="translate(25.445375 178.18315625)scale(0.13 -0.13)">
       <use xlink:href="#ArialMT-30"/>
       <use x="55.615234375" xlink:href="#ArialMT-2e"/>
       <use x="83.3984375" xlink:href="#ArialMT-30"/>
       <use x="139.013671875" xlink:href="#ArialMT-30"/>
      </g>
     </g>
    </g>
    <g id="ytick_2">
     <g id="line2d_10">
      <g>
       <use style="fill:#262626;stroke:#262626;stroke-width:1.3;" x="59.84459375" xlink:href="#m84f941660b" y="147.876119792"/>
      </g>
     </g>
     <g id="text_2">
      <!-- 0.05 -->
      <defs>
       <path d="M 4.15625 18.75 
L 13.375 19.53125 
Q 14.40625 12.796875 18.140625 9.390625 
Q 21.875 6 27.15625 6 
Q 33.5 6 37.890625 10.78125 
Q 42.28125 15.578125 42.28125 23.484375 
Q 42.28125 31 38.0625 35.34375 
Q 33.84375 39.703125 27 39.703125 
Q 22.75 39.703125 19.328125 37.765625 
Q 15.921875 35.84375 13.96875 32.765625 
L 5.71875 33.84375 
L 12.640625 70.609375 
L 48.25 70.609375 
L 48.25 62.203125 
L 19.671875 62.203125 
L 15.828125 42.96875 
Q 22.265625 47.46875 29.34375 47.46875 
Q 38.71875 47.46875 45.15625 40.96875 
Q 51.609375 34.46875 51.609375 24.265625 
Q 51.609375 14.546875 45.953125 7.46875 
Q 39.0625 -1.21875 27.15625 -1.21875 
Q 17.390625 -1.21875 11.203125 4.25 
Q 5.03125 9.71875 4.15625 18.75 
" id="ArialMT-35"/>
      </defs>
      <g style="fill:#262626;" transform="translate(25.445375 151.236822917)scale(0.13 -0.13)">
       <use xlink:href="#ArialMT-30"/>
       <use x="55.615234375" xlink:href="#ArialMT-2e"/>
       <use x="83.3984375" xlink:href="#ArialMT-30"/>
       <use x="139.013671875" xlink:href="#ArialMT-35"/>
      </g>
     </g>
    </g>
    <g id="ytick_3">
     <g id="line2d_11">
      <g>
       <use style="fill:#262626;stroke:#262626;stroke-width:1.3;" x="59.84459375" xlink:href="#m84f941660b" y="120.929786458"/>
      </g>
     </g>
     <g id="text_3">
      <!-- 0.10 -->
      <defs>
       <path d="M 37.25 0 
L 28.46875 0 
L 28.46875 56 
Q 25.296875 52.984375 20.140625 49.953125 
Q 14.984375 46.921875 10.890625 45.40625 
L 10.890625 53.90625 
Q 18.265625 57.375 23.78125 62.296875 
Q 29.296875 67.234375 31.59375 71.875 
L 37.25 71.875 
z
" id="ArialMT-31"/>
      </defs>
      <g style="fill:#262626;" transform="translate(25.445375 124.290489583)scale(0.13 -0.13)">
       <use xlink:href="#ArialMT-30"/>
       <use x="55.615234375" xlink:href="#ArialMT-2e"/>
       <use x="83.3984375" xlink:href="#ArialMT-31"/>
       <use x="139.013671875" xlink:href="#ArialMT-30"/>
      </g>
     </g>
    </g>
    <g id="ytick_4">
     <g id="line2d_12">
      <g>
       <use style="fill:#262626;stroke:#262626;stroke-width:1.3;" x="59.84459375" xlink:href="#m84f941660b" y="93.983453125"/>
      </g>
     </g>
     <g id="text_4">
      <!-- 0.15 -->
      <g style="fill:#262626;" transform="translate(25.445375 97.34415625)scale(0.13 -0.13)">
       <use xlink:href="#ArialMT-30"/>
       <use x="55.615234375" xlink:href="#ArialMT-2e"/>
       <use x="83.3984375" xlink:href="#ArialMT-31"/>
       <use x="139.013671875" xlink:href="#ArialMT-35"/>
      </g>
     </g>
    </g>
    <g id="ytick_5">
     <g id="line2d_13">
      <g>
       <use style="fill:#262626;stroke:#262626;stroke-width:1.3;" x="59.84459375" xlink:href="#m84f941660b" y="67.0371197917"/>
      </g>
     </g>
     <g id="text_5">
      <!-- 0.20 -->
      <defs>
       <path d="M 50.34375 8.453125 
L 50.34375 0 
L 3.03125 0 
Q 2.9375 3.171875 4.046875 6.109375 
Q 5.859375 10.9375 9.828125 15.625 
Q 13.8125 20.3125 21.34375 26.46875 
Q 33.015625 36.03125 37.109375 41.625 
Q 41.21875 47.21875 41.21875 52.203125 
Q 41.21875 57.421875 37.46875 61 
Q 33.734375 64.59375 27.734375 64.59375 
Q 21.390625 64.59375 17.578125 60.78125 
Q 13.765625 56.984375 13.71875 50.25 
L 4.6875 51.171875 
Q 5.609375 61.28125 11.65625 66.578125 
Q 17.71875 71.875 27.9375 71.875 
Q 38.234375 71.875 44.234375 66.15625 
Q 50.25 60.453125 50.25 52 
Q 50.25 47.703125 48.484375 43.546875 
Q 46.734375 39.40625 42.65625 34.8125 
Q 38.578125 30.21875 29.109375 22.21875 
Q 21.1875 15.578125 18.9375 13.203125 
Q 16.703125 10.84375 15.234375 8.453125 
z
" id="ArialMT-32"/>
      </defs>
      <g style="fill:#262626;" transform="translate(25.445375 70.3978229167)scale(0.13 -0.13)">
       <use xlink:href="#ArialMT-30"/>
       <use x="55.615234375" xlink:href="#ArialMT-2e"/>
       <use x="83.3984375" xlink:href="#ArialMT-32"/>
       <use x="139.013671875" xlink:href="#ArialMT-30"/>
      </g>
     </g>
    </g>
    <g id="ytick_6">
     <g id="line2d_14">
      <g>
       <use style="fill:#262626;stroke:#262626;stroke-width:1.3;" x="59.84459375" xlink:href="#m84f941660b" y="40.0907864583"/>
      </g>
     </g>
     <g id="text_6">
      <!-- 0.25 -->
      <g style="fill:#262626;" transform="translate(25.445375 43.4514895833)scale(0.13 -0.13)">
       <use xlink:href="#ArialMT-30"/>
       <use x="55.615234375" xlink:href="#ArialMT-2e"/>
       <use x="83.3984375" xlink:href="#ArialMT-32"/>
       <use x="139.013671875" xlink:href="#ArialMT-35"/>
      </g>
     </g>
    </g>
    <g id="ytick_7">
     <g id="line2d_15">
      <g>
       <use style="fill:#262626;stroke:#262626;stroke-width:1.3;" x="59.84459375" xlink:href="#m84f941660b" y="13.144453125"/>
      </g>
     </g>
     <g id="text_7">
      <!-- 0.30 -->
      <defs>
       <path d="M 4.203125 18.890625 
L 12.984375 20.0625 
Q 14.5 12.59375 18.140625 9.296875 
Q 21.78125 6 27 6 
Q 33.203125 6 37.46875 10.296875 
Q 41.75 14.59375 41.75 20.953125 
Q 41.75 27 37.796875 30.921875 
Q 33.84375 34.859375 27.734375 34.859375 
Q 25.25 34.859375 21.53125 33.890625 
L 22.515625 41.609375 
Q 23.390625 41.5 23.921875 41.5 
Q 29.546875 41.5 34.03125 44.421875 
Q 38.53125 47.359375 38.53125 53.46875 
Q 38.53125 58.296875 35.25 61.46875 
Q 31.984375 64.65625 26.8125 64.65625 
Q 21.6875 64.65625 18.265625 61.421875 
Q 14.84375 58.203125 13.875 51.765625 
L 5.078125 53.328125 
Q 6.6875 62.15625 12.390625 67.015625 
Q 18.109375 71.875 26.609375 71.875 
Q 32.46875 71.875 37.390625 69.359375 
Q 42.328125 66.84375 44.9375 62.5 
Q 47.5625 58.15625 47.5625 53.265625 
Q 47.5625 48.640625 45.0625 44.828125 
Q 42.578125 41.015625 37.703125 38.765625 
Q 44.046875 37.3125 47.5625 32.6875 
Q 51.078125 28.078125 51.078125 21.140625 
Q 51.078125 11.765625 44.234375 5.25 
Q 37.40625 -1.265625 26.953125 -1.265625 
Q 17.53125 -1.265625 11.296875 4.34375 
Q 5.078125 9.96875 4.203125 18.890625 
" id="ArialMT-33"/>
      </defs>
      <g style="fill:#262626;" transform="translate(25.445375 16.50515625)scale(0.13 -0.13)">
       <use xlink:href="#ArialMT-30"/>
       <use x="55.615234375" xlink:href="#ArialMT-2e"/>
       <use x="83.3984375" xlink:href="#ArialMT-33"/>
       <use x="139.013671875" xlink:href="#ArialMT-30"/>
      </g>
     </g>
    </g>
    <g id="text_8">
     <!-- Frequency -->
     <defs>
      <path d="M 40.578125 0 
L 40.578125 7.625 
Q 34.515625 -1.171875 24.125 -1.171875 
Q 19.53125 -1.171875 15.546875 0.578125 
Q 11.578125 2.34375 9.640625 5 
Q 7.71875 7.671875 6.9375 11.53125 
Q 6.390625 14.109375 6.390625 19.734375 
L 6.390625 51.859375 
L 15.1875 51.859375 
L 15.1875 23.09375 
Q 15.1875 16.21875 15.71875 13.8125 
Q 16.546875 10.359375 19.234375 8.375 
Q 21.921875 6.390625 25.875 6.390625 
Q 29.828125 6.390625 33.296875 8.421875 
Q 36.765625 10.453125 38.203125 13.9375 
Q 39.65625 17.4375 39.65625 24.078125 
L 39.65625 51.859375 
L 48.4375 51.859375 
L 48.4375 0 
z
" id="ArialMT-75"/>
      <path d="M 39.65625 -19.875 
L 39.65625 5.515625 
Q 37.59375 2.640625 33.90625 0.734375 
Q 30.21875 -1.171875 26.078125 -1.171875 
Q 16.84375 -1.171875 10.171875 6.203125 
Q 3.515625 13.578125 3.515625 26.421875 
Q 3.515625 34.234375 6.21875 40.421875 
Q 8.9375 46.625 14.078125 49.828125 
Q 19.234375 53.03125 25.390625 53.03125 
Q 35.015625 53.03125 40.53125 44.921875 
L 40.53125 51.859375 
L 48.4375 51.859375 
L 48.4375 -19.875 
z
M 12.546875 26.078125 
Q 12.546875 16.0625 16.75 11.0625 
Q 20.953125 6.0625 26.8125 6.0625 
Q 32.421875 6.0625 36.46875 10.8125 
Q 40.53125 15.578125 40.53125 25.296875 
Q 40.53125 35.640625 36.25 40.859375 
Q 31.984375 46.09375 26.21875 46.09375 
Q 20.515625 46.09375 16.53125 41.234375 
Q 12.546875 36.375 12.546875 26.078125 
" id="ArialMT-71"/>
      <path d="M 6.59375 0 
L 6.59375 51.859375 
L 14.5 51.859375 
L 14.5 44.484375 
Q 20.21875 53.03125 31 53.03125 
Q 35.6875 53.03125 39.625 51.34375 
Q 43.5625 49.65625 45.515625 46.921875 
Q 47.46875 44.1875 48.25 40.4375 
Q 48.734375 37.984375 48.734375 31.890625 
L 48.734375 0 
L 39.9375 0 
L 39.9375 31.546875 
Q 39.9375 36.921875 38.90625 39.578125 
Q 37.890625 42.234375 35.28125 43.8125 
Q 32.671875 45.40625 29.15625 45.40625 
Q 23.53125 45.40625 19.453125 41.84375 
Q 15.375 38.28125 15.375 28.328125 
L 15.375 0 
z
" id="ArialMT-6e"/>
      <path d="M 42.09375 16.703125 
L 51.171875 15.578125 
Q 49.03125 7.625 43.21875 3.21875 
Q 37.40625 -1.171875 28.375 -1.171875 
Q 17 -1.171875 10.328125 5.828125 
Q 3.65625 12.84375 3.65625 25.484375 
Q 3.65625 38.578125 10.390625 45.796875 
Q 17.140625 53.03125 27.875 53.03125 
Q 38.28125 53.03125 44.875 45.953125 
Q 51.46875 38.875 51.46875 26.03125 
Q 51.46875 25.25 51.421875 23.6875 
L 12.75 23.6875 
Q 13.234375 15.140625 17.578125 10.59375 
Q 21.921875 6.0625 28.421875 6.0625 
Q 33.25 6.0625 36.671875 8.59375 
Q 40.09375 11.140625 42.09375 16.703125 
M 13.234375 30.90625 
L 42.1875 30.90625 
Q 41.609375 37.453125 38.875 40.71875 
Q 34.671875 45.796875 27.984375 45.796875 
Q 21.921875 45.796875 17.796875 41.75 
Q 13.671875 37.703125 13.234375 30.90625 
" id="ArialMT-65"/>
      <path d="M 6.203125 -19.96875 
L 5.21875 -11.71875 
Q 8.109375 -12.5 10.25 -12.5 
Q 13.1875 -12.5 14.9375 -11.515625 
Q 16.703125 -10.546875 17.828125 -8.796875 
Q 18.65625 -7.46875 20.515625 -2.25 
Q 20.75 -1.515625 21.296875 -0.09375 
L 1.609375 51.859375 
L 11.078125 51.859375 
L 21.875 21.828125 
Q 23.96875 16.109375 25.640625 9.8125 
Q 27.15625 15.875 29.25 21.625 
L 40.328125 51.859375 
L 49.125 51.859375 
L 29.390625 -0.875 
Q 26.21875 -9.421875 24.46875 -12.640625 
Q 22.125 -17 19.09375 -19.015625 
Q 16.0625 -21.046875 11.859375 -21.046875 
Q 9.328125 -21.046875 6.203125 -19.96875 
" id="ArialMT-79"/>
      <path d="M 8.203125 0 
L 8.203125 71.578125 
L 56.5 71.578125 
L 56.5 63.140625 
L 17.671875 63.140625 
L 17.671875 40.96875 
L 51.265625 40.96875 
L 51.265625 32.515625 
L 17.671875 32.515625 
L 17.671875 0 
z
" id="ArialMT-46"/>
      <path d="M 6.5 0 
L 6.5 51.859375 
L 14.40625 51.859375 
L 14.40625 44 
Q 17.4375 49.515625 20 51.265625 
Q 22.5625 53.03125 25.640625 53.03125 
Q 30.078125 53.03125 34.671875 50.203125 
L 31.640625 42.046875 
Q 28.421875 43.953125 25.203125 43.953125 
Q 22.3125 43.953125 20.015625 42.21875 
Q 17.71875 40.484375 16.75 37.40625 
Q 15.28125 32.71875 15.28125 27.15625 
L 15.28125 0 
z
" id="ArialMT-72"/>
      <path d="M 40.4375 19 
L 49.078125 17.875 
Q 47.65625 8.9375 41.8125 3.875 
Q 35.984375 -1.171875 27.484375 -1.171875 
Q 16.84375 -1.171875 10.375 5.78125 
Q 3.90625 12.75 3.90625 25.734375 
Q 3.90625 34.125 6.6875 40.421875 
Q 9.46875 46.734375 15.15625 49.875 
Q 20.84375 53.03125 27.546875 53.03125 
Q 35.984375 53.03125 41.359375 48.75 
Q 46.734375 44.484375 48.25 36.625 
L 39.703125 35.296875 
Q 38.484375 40.53125 35.375 43.15625 
Q 32.28125 45.796875 27.875 45.796875 
Q 21.234375 45.796875 17.078125 41.03125 
Q 12.9375 36.28125 12.9375 25.984375 
Q 12.9375 15.53125 16.9375 10.796875 
Q 20.953125 6.0625 27.390625 6.0625 
Q 32.5625 6.0625 36.03125 9.234375 
Q 39.5 12.40625 40.4375 19 
" id="ArialMT-63"/>
     </defs>
     <g style="fill:#262626;" transform="translate(17.435671875 127.761617188)rotate(-90.0)scale(0.14300000000000002 -0.14300000000000002)">
      <use xlink:href="#ArialMT-46"/>
      <use x="61.083984375" xlink:href="#ArialMT-72"/>
      <use x="94.384765625" xlink:href="#ArialMT-65"/>
      <use x="150.0" xlink:href="#ArialMT-71"/>
      <use x="205.615234375" xlink:href="#ArialMT-75"/>
      <use x="261.23046875" xlink:href="#ArialMT-65"/>
      <use x="316.845703125" xlink:href="#ArialMT-6e"/>
      <use x="372.4609375" xlink:href="#ArialMT-63"/>
      <use x="422.4609375" xlink:href="#ArialMT-79"/>
     </g>
    </g>
   </g>
   <g id="patch_3">
    <path clip-path="url(#p5aa115d9e7)" d="M 141.659451 174.822453 
L 157.393077 174.822453 
L 157.393077 160.086982 
L 141.659451 160.086982 
z
" style="fill:#bf00bf;opacity:0.4;stroke:#000000;stroke-linejoin:miter;stroke-width:0.39;"/>
   </g>
   <g id="patch_4">
    <path clip-path="url(#p5aa115d9e7)" d="M 157.393077 174.822453 
L 173.126704 174.822453 
L 173.126704 138.988467 
L 157.393077 138.988467 
z
" style="fill:#bf00bf;opacity:0.4;stroke:#000000;stroke-linejoin:miter;stroke-width:0.39;"/>
   </g>
   <g id="patch_5">
    <path clip-path="url(#p5aa115d9e7)" d="M 173.126704 174.822453 
L 188.86033 174.822453 
L 188.86033 147.360894 
L 173.126704 147.360894 
z
" style="fill:#bf00bf;opacity:0.4;stroke:#000000;stroke-linejoin:miter;stroke-width:0.39;"/>
   </g>
   <g id="patch_6">
    <path clip-path="url(#p5aa115d9e7)" d="M 188.86033 174.822453 
L 204.593956 174.822453 
L 204.593956 160.421879 
L 188.86033 160.421879 
z
" style="fill:#bf00bf;opacity:0.4;stroke:#000000;stroke-linejoin:miter;stroke-width:0.39;"/>
   </g>
   <g id="patch_7">
    <path clip-path="url(#p5aa115d9e7)" d="M 204.593956 174.822453 
L 220.327583 174.822453 
L 220.327583 133.630114 
L 204.593956 133.630114 
z
" style="fill:#bf00bf;opacity:0.4;stroke:#000000;stroke-linejoin:miter;stroke-width:0.39;"/>
   </g>
   <g id="patch_8">
    <path clip-path="url(#p5aa115d9e7)" d="M 220.327583 174.822453 
L 236.061209 174.822453 
L 236.061209 115.880569 
L 220.327583 115.880569 
z
" style="fill:#bf00bf;opacity:0.4;stroke:#000000;stroke-linejoin:miter;stroke-width:0.39;"/>
   </g>
   <g id="patch_9">
    <path clip-path="url(#p5aa115d9e7)" d="M 236.061209 174.822453 
L 251.794836 174.822453 
L 251.794836 174.822453 
L 236.061209 174.822453 
z
" style="fill:#bf00bf;opacity:0.4;stroke:#000000;stroke-linejoin:miter;stroke-width:0.39;"/>
   </g>
   <g id="patch_10">
    <path clip-path="url(#p5aa115d9e7)" d="M 251.794836 174.822453 
L 267.528462 174.822453 
L 267.528462 98.131025 
L 251.794836 98.131025 
z
" style="fill:#bf00bf;opacity:0.4;stroke:#000000;stroke-linejoin:miter;stroke-width:0.39;"/>
   </g>
   <g id="patch_11">
    <path clip-path="url(#p5aa115d9e7)" d="M 267.528462 174.822453 
L 283.262088 174.822453 
L 283.262088 100.140407 
L 267.528462 100.140407 
z
" style="fill:#bf00bf;opacity:0.4;stroke:#000000;stroke-linejoin:miter;stroke-width:0.39;"/>
   </g>
   <g id="patch_12">
    <path clip-path="url(#p5aa115d9e7)" d="M 283.262088 174.822453 
L 298.995715 174.822453 
L 298.995715 80.046583 
L 283.262088 80.046583 
z
" style="fill:#bf00bf;opacity:0.4;stroke:#000000;stroke-linejoin:miter;stroke-width:0.39;"/>
   </g>
   <g id="patch_13">
    <path clip-path="url(#p5aa115d9e7)" d="M 298.995715 174.822453 
L 314.729341 174.822453 
L 314.729341 65.646009 
L 298.995715 65.646009 
z
" style="fill:#bf00bf;opacity:0.4;stroke:#000000;stroke-linejoin:miter;stroke-width:0.39;"/>
   </g>
   <g id="patch_14">
    <path clip-path="url(#p5aa115d9e7)" d="M 314.729341 174.822453 
L 330.462967 174.822453 
L 330.462967 114.540981 
L 314.729341 114.540981 
z
" style="fill:#bf00bf;opacity:0.4;stroke:#000000;stroke-linejoin:miter;stroke-width:0.39;"/>
   </g>
   <g id="patch_15">
    <path clip-path="url(#p5aa115d9e7)" d="M 330.462967 174.822453 
L 346.196594 174.822453 
L 346.196594 174.822453 
L 330.462967 174.822453 
z
" style="fill:#bf00bf;opacity:0.4;stroke:#000000;stroke-linejoin:miter;stroke-width:0.39;"/>
   </g>
   <g id="patch_16">
    <path clip-path="url(#p5aa115d9e7)" d="M 346.196594 174.822453 
L 361.93022 174.822453 
L 361.93022 103.489378 
L 346.196594 103.489378 
z
" style="fill:#bf00bf;opacity:0.4;stroke:#000000;stroke-linejoin:miter;stroke-width:0.39;"/>
   </g>
   <g id="patch_17">
    <path clip-path="url(#p5aa115d9e7)" d="M 361.93022 174.822453 
L 377.663846 174.822453 
L 377.663846 98.800819 
L 361.93022 98.800819 
z
" style="fill:#bf00bf;opacity:0.4;stroke:#000000;stroke-linejoin:miter;stroke-width:0.39;"/>
   </g>
   <g id="patch_18">
    <path clip-path="url(#p5aa115d9e7)" d="M 377.663846 174.822453 
L 393.397473 174.822453 
L 393.397473 36.509964 
L 377.663846 36.509964 
z
" style="fill:#bf00bf;opacity:0.4;stroke:#000000;stroke-linejoin:miter;stroke-width:0.39;"/>
   </g>
   <g id="patch_19">
    <path clip-path="url(#p5aa115d9e7)" d="M 393.397473 174.822453 
L 409.131099 174.822453 
L 409.131099 53.924612 
L 393.397473 53.924612 
z
" style="fill:#bf00bf;opacity:0.4;stroke:#000000;stroke-linejoin:miter;stroke-width:0.39;"/>
   </g>
   <g id="patch_20">
    <path clip-path="url(#p5aa115d9e7)" d="M 409.131099 174.822453 
L 424.864726 174.822453 
L 424.864726 79.041892 
L 409.131099 79.041892 
z
" style="fill:#bf00bf;opacity:0.4;stroke:#000000;stroke-linejoin:miter;stroke-width:0.39;"/>
   </g>
   <g id="patch_21">
    <path clip-path="url(#p5aa115d9e7)" d="M 424.864726 174.822453 
L 440.598352 174.822453 
L 440.598352 89.088804 
L 424.864726 89.088804 
z
" style="fill:#bf00bf;opacity:0.4;stroke:#000000;stroke-linejoin:miter;stroke-width:0.39;"/>
   </g>
   <g id="patch_22">
    <path clip-path="url(#p5aa115d9e7)" d="M 440.598352 174.822453 
L 456.331978 174.822453 
L 456.331978 174.822453 
L 440.598352 174.822453 
z
" style="fill:#bf00bf;opacity:0.4;stroke:#000000;stroke-linejoin:miter;stroke-width:0.39;"/>
   </g>
   <g id="patch_23">
    <path clip-path="url(#p5aa115d9e7)" d="M 456.331978 174.822453 
L 472.065605 174.822453 
L 472.065605 117.220157 
L 456.331978 117.220157 
z
" style="fill:#bf00bf;opacity:0.4;stroke:#000000;stroke-linejoin:miter;stroke-width:0.39;"/>
   </g>
   <g id="patch_24">
    <path clip-path="url(#p5aa115d9e7)" d="M 472.065605 174.822453 
L 487.799231 174.822453 
L 487.799231 116.88526 
L 472.065605 116.88526 
z
" style="fill:#bf00bf;opacity:0.4;stroke:#000000;stroke-linejoin:miter;stroke-width:0.39;"/>
   </g>
   <g id="patch_25">
    <path clip-path="url(#p5aa115d9e7)" d="M 487.799231 174.822453 
L 503.532857 174.822453 
L 503.532857 142.337438 
L 487.799231 142.337438 
z
" style="fill:#bf00bf;opacity:0.4;stroke:#000000;stroke-linejoin:miter;stroke-width:0.39;"/>
   </g>
   <g id="patch_26">
    <path clip-path="url(#p5aa115d9e7)" d="M 503.532857 174.822453 
L 519.266484 174.822453 
L 519.266484 165.110438 
L 503.532857 165.110438 
z
" style="fill:#bf00bf;opacity:0.4;stroke:#000000;stroke-linejoin:miter;stroke-width:0.39;"/>
   </g>
   <g id="patch_27">
    <path clip-path="url(#p5aa115d9e7)" d="M 519.266484 174.822453 
L 535.00011 174.822453 
L 535.00011 149.370276 
L 519.266484 149.370276 
z
" style="fill:#bf00bf;opacity:0.4;stroke:#000000;stroke-linejoin:miter;stroke-width:0.39;"/>
   </g>
   <g id="patch_28">
    <path clip-path="url(#p5aa115d9e7)" d="M 535.00011 174.822453 
L 550.733737 174.822453 
L 550.733737 153.054144 
L 535.00011 153.054144 
z
" style="fill:#bf00bf;opacity:0.4;stroke:#000000;stroke-linejoin:miter;stroke-width:0.39;"/>
   </g>
   <g id="line2d_16">
    <path clip-path="url(#p5aa115d9e7)" d="M 85.651767 174.712308 
L 93.857903 174.591514 
L 102.06404 174.178827 
L 106.167108 173.792329 
L 110.270176 173.234801 
L 114.373244 172.466168 
L 118.476312 171.451544 
L 122.57938 170.167939 
L 126.682448 168.610914 
L 130.785516 166.800093 
L 134.888585 164.782373 
L 147.197789 158.3367 
L 151.300857 156.419479 
L 155.403925 154.797906 
L 159.506993 153.549185 
L 163.610062 152.711179 
L 167.71313 152.273972 
L 171.816198 152.177547 
L 180.022334 152.549962 
L 184.125402 152.719715 
L 188.22847 152.66737 
L 192.331539 152.255031 
L 196.434607 151.382119 
L 200.537675 149.996772 
L 204.640743 148.099447 
L 208.743811 145.738179 
L 212.846879 142.99698 
L 216.949947 139.980541 
L 233.36222 127.232433 
L 237.465288 124.282854 
L 241.568356 121.534519 
L 245.671424 119.009285 
L 249.774492 116.707542 
L 253.877561 114.606075 
L 262.083697 110.805477 
L 274.392901 105.239433 
L 282.599038 101.465335 
L 286.702106 99.771703 
L 290.805174 98.390579 
L 294.908242 97.472026 
L 299.01131 97.143482 
L 303.114378 97.482579 
L 307.217446 98.496045 
L 311.320515 100.109589 
L 315.423583 102.171802 
L 323.629719 106.768571 
L 327.732787 108.820486 
L 331.835855 110.415651 
L 335.938923 111.389027 
L 340.041992 111.629217 
L 344.14506 111.075553 
L 348.248128 109.711142 
L 352.351196 107.557799 
L 356.454264 104.676543 
L 360.557332 101.173363 
L 364.6604 97.206102 
L 372.866537 88.769864 
L 376.969605 84.836806 
L 381.072673 81.458977 
L 385.175741 78.866152 
L 389.278809 77.216446 
L 393.381877 76.578772 
L 397.484945 76.930824 
L 401.588014 78.172016 
L 405.691082 80.147467 
L 409.79415 82.677231 
L 413.897218 85.584733 
L 422.103354 91.968832 
L 442.618695 108.364181 
L 450.824831 114.621176 
L 459.030968 120.442623 
L 479.546308 134.280013 
L 487.752445 140.37502 
L 495.958581 146.474925 
L 500.061649 149.261418 
L 504.164717 151.718371 
L 508.267785 153.757281 
L 512.370853 155.332101 
L 516.473921 156.449535 
L 520.57699 157.17047 
L 524.680058 157.6019 
L 532.886194 158.152606 
L 536.989262 158.550038 
L 541.09233 159.173654 
L 545.195398 160.079768 
L 549.298467 161.275669 
L 553.401535 162.72271 
L 561.607671 166.049212 
L 569.813807 169.297193 
L 573.916875 170.680409 
L 578.019944 171.838446 
L 582.123012 172.758887 
L 586.22608 173.45379 
L 590.329148 173.952044 
L 594.432216 174.290795 
L 602.638352 174.635861 
L 606.741421 174.699268 
L 606.741421 174.699268 
" style="fill:none;stroke:#bf00bf;stroke-linecap:round;stroke-width:2.275;"/>
   </g>
   <g id="patch_29">
    <path d="M 59.844594 174.822453 
L 59.844594 13.144453 
" style="fill:none;stroke:#262626;stroke-linecap:square;stroke-linejoin:miter;stroke-width:1.25;"/>
   </g>
   <g id="patch_30">
    <path d="M 59.844594 174.822453 
L 632.548594 174.822453 
" style="fill:none;stroke:#262626;stroke-linecap:square;stroke-linejoin:miter;stroke-width:1.25;"/>
   </g>
   <g id="text_9">
    <g id="patch_31">
     <path d="M 640.284674 36.015945 
L 640.284674 151.950961 
L 660.966049 151.950961 
L 660.966049 36.015945 
z
" style="fill:#ffffff;stroke:#ffffff;stroke-linejoin:miter;stroke-width:0.39;"/>
    </g>
    <!-- gender = Female -->
    <defs>
     <path d="M 6.390625 0 
L 6.390625 71.578125 
L 15.1875 71.578125 
L 15.1875 0 
z
" id="ArialMT-6c"/>
     <path d="M 40.4375 6.390625 
Q 35.546875 2.25 31.03125 0.53125 
Q 26.515625 -1.171875 21.34375 -1.171875 
Q 12.796875 -1.171875 8.203125 3 
Q 3.609375 7.171875 3.609375 13.671875 
Q 3.609375 17.484375 5.34375 20.625 
Q 7.078125 23.78125 9.890625 25.6875 
Q 12.703125 27.59375 16.21875 28.5625 
Q 18.796875 29.25 24.03125 29.890625 
Q 34.671875 31.15625 39.703125 32.90625 
Q 39.75 34.71875 39.75 35.203125 
Q 39.75 40.578125 37.25 42.78125 
Q 33.890625 45.75 27.25 45.75 
Q 21.046875 45.75 18.09375 43.578125 
Q 15.140625 41.40625 13.71875 35.890625 
L 5.125 37.0625 
Q 6.296875 42.578125 8.984375 45.96875 
Q 11.671875 49.359375 16.75 51.1875 
Q 21.828125 53.03125 28.515625 53.03125 
Q 35.15625 53.03125 39.296875 51.46875 
Q 43.453125 49.90625 45.40625 47.53125 
Q 47.359375 45.171875 48.140625 41.546875 
Q 48.578125 39.3125 48.578125 33.453125 
L 48.578125 21.734375 
Q 48.578125 9.46875 49.140625 6.21875 
Q 49.703125 2.984375 51.375 0 
L 42.1875 0 
Q 40.828125 2.734375 40.4375 6.390625 
M 39.703125 26.03125 
Q 34.90625 24.078125 25.34375 22.703125 
Q 19.921875 21.921875 17.671875 20.9375 
Q 15.4375 19.96875 14.203125 18.09375 
Q 12.984375 16.21875 12.984375 13.921875 
Q 12.984375 10.40625 15.640625 8.0625 
Q 18.3125 5.71875 23.4375 5.71875 
Q 28.515625 5.71875 32.46875 7.9375 
Q 36.421875 10.15625 38.28125 14.015625 
Q 39.703125 17 39.703125 22.796875 
z
" id="ArialMT-61"/>
     <path id="ArialMT-20"/>
     <path d="M 40.234375 0 
L 40.234375 6.546875 
Q 35.296875 -1.171875 25.734375 -1.171875 
Q 19.53125 -1.171875 14.328125 2.25 
Q 9.125 5.671875 6.265625 11.796875 
Q 3.421875 17.921875 3.421875 25.875 
Q 3.421875 33.640625 6 39.96875 
Q 8.59375 46.296875 13.765625 49.65625 
Q 18.953125 53.03125 25.34375 53.03125 
Q 30.03125 53.03125 33.6875 51.046875 
Q 37.359375 49.078125 39.65625 45.90625 
L 39.65625 71.578125 
L 48.390625 71.578125 
L 48.390625 0 
z
M 12.453125 25.875 
Q 12.453125 15.921875 16.640625 10.984375 
Q 20.84375 6.0625 26.5625 6.0625 
Q 32.328125 6.0625 36.34375 10.765625 
Q 40.375 15.484375 40.375 25.140625 
Q 40.375 35.796875 36.265625 40.765625 
Q 32.171875 45.75 26.171875 45.75 
Q 20.3125 45.75 16.375 40.96875 
Q 12.453125 36.1875 12.453125 25.875 
" id="ArialMT-64"/>
     <path d="M 6.59375 0 
L 6.59375 51.859375 
L 14.453125 51.859375 
L 14.453125 44.578125 
Q 16.890625 48.390625 20.9375 50.703125 
Q 25 53.03125 30.171875 53.03125 
Q 35.9375 53.03125 39.625 50.640625 
Q 43.3125 48.25 44.828125 43.953125 
Q 50.984375 53.03125 60.84375 53.03125 
Q 68.5625 53.03125 72.703125 48.75 
Q 76.859375 44.484375 76.859375 35.59375 
L 76.859375 0 
L 68.109375 0 
L 68.109375 32.671875 
Q 68.109375 37.9375 67.25 40.25 
Q 66.40625 42.578125 64.15625 43.984375 
Q 61.921875 45.40625 58.890625 45.40625 
Q 53.421875 45.40625 49.796875 41.765625 
Q 46.1875 38.140625 46.1875 30.125 
L 46.1875 0 
L 37.40625 0 
L 37.40625 33.6875 
Q 37.40625 39.546875 35.25 42.46875 
Q 33.109375 45.40625 28.21875 45.40625 
Q 24.515625 45.40625 21.359375 43.453125 
Q 18.21875 41.5 16.796875 37.734375 
Q 15.375 33.984375 15.375 26.90625 
L 15.375 0 
z
" id="ArialMT-6d"/>
     <path d="M 4.984375 -4.296875 
L 13.53125 -5.5625 
Q 14.0625 -9.515625 16.5 -11.328125 
Q 19.78125 -13.765625 25.4375 -13.765625 
Q 31.546875 -13.765625 34.859375 -11.328125 
Q 38.1875 -8.890625 39.359375 -4.5 
Q 40.046875 -1.8125 39.984375 6.78125 
Q 34.234375 0 25.640625 0 
Q 14.9375 0 9.078125 7.71875 
Q 3.21875 15.4375 3.21875 26.21875 
Q 3.21875 33.640625 5.90625 39.90625 
Q 8.59375 46.1875 13.6875 49.609375 
Q 18.796875 53.03125 25.6875 53.03125 
Q 34.859375 53.03125 40.828125 45.609375 
L 40.828125 51.859375 
L 48.921875 51.859375 
L 48.921875 7.03125 
Q 48.921875 -5.078125 46.453125 -10.125 
Q 44 -15.1875 38.640625 -18.109375 
Q 33.296875 -21.046875 25.484375 -21.046875 
Q 16.21875 -21.046875 10.5 -16.875 
Q 4.78125 -12.703125 4.984375 -4.296875 
M 12.25 26.859375 
Q 12.25 16.65625 16.296875 11.96875 
Q 20.359375 7.28125 26.46875 7.28125 
Q 32.515625 7.28125 36.609375 11.9375 
Q 40.71875 16.609375 40.71875 26.5625 
Q 40.71875 36.078125 36.5 40.90625 
Q 32.28125 45.75 26.3125 45.75 
Q 20.453125 45.75 16.34375 40.984375 
Q 12.25 36.234375 12.25 26.859375 
" id="ArialMT-67"/>
     <path d="M 52.828125 42.09375 
L 5.5625 42.09375 
L 5.5625 50.296875 
L 52.828125 50.296875 
z
M 52.828125 20.359375 
L 5.5625 20.359375 
L 5.5625 28.5625 
L 52.828125 28.5625 
z
" id="ArialMT-3d"/>
    </defs>
    <g style="fill:#262626;" transform="translate(647.012376875 39.7339453125)rotate(-270.0)scale(0.14300000000000002 -0.14300000000000002)">
     <use xlink:href="#ArialMT-67"/>
     <use x="55.615234375" xlink:href="#ArialMT-65"/>
     <use x="111.23046875" xlink:href="#ArialMT-6e"/>
     <use x="166.845703125" xlink:href="#ArialMT-64"/>
     <use x="222.4609375" xlink:href="#ArialMT-65"/>
     <use x="278.076171875" xlink:href="#ArialMT-72"/>
     <use x="311.376953125" xlink:href="#ArialMT-20"/>
     <use x="339.16015625" xlink:href="#ArialMT-3d"/>
     <use x="397.55859375" xlink:href="#ArialMT-20"/>
     <use x="425.341796875" xlink:href="#ArialMT-46"/>
     <use x="486.42578125" xlink:href="#ArialMT-65"/>
     <use x="542.041015625" xlink:href="#ArialMT-6d"/>
     <use x="625.341796875" xlink:href="#ArialMT-61"/>
     <use x="680.95703125" xlink:href="#ArialMT-6c"/>
     <use x="703.173828125" xlink:href="#ArialMT-65"/>
    </g>
   </g>
  </g>
  <g id="axes_2">
   <g id="patch_32">
    <path d="M 59.844594 365.348453 
L 632.548594 365.348453 
L 632.548594 203.670453 
L 59.844594 203.670453 
z
" style="fill:#ffffff;"/>
   </g>
   <g id="matplotlib.axis_3">
    <g id="xtick_9">
     <g id="line2d_17">
      <g>
       <use style="fill:#262626;stroke:#262626;stroke-width:1.3;" x="59.84459375" xlink:href="#m84f941660b" y="365.348453125"/>
      </g>
     </g>
     <g id="text_10">
      <!-- −2 -->
      <defs>
       <path d="M 52.828125 31.203125 
L 5.5625 31.203125 
L 5.5625 39.40625 
L 52.828125 39.40625 
z
" id="ArialMT-2212"/>
      </defs>
      <g style="fill:#262626;" transform="translate(52.433578125 383.753609375)scale(0.13 -0.13)">
       <use xlink:href="#ArialMT-2212"/>
       <use x="58.3984375" xlink:href="#ArialMT-32"/>
      </g>
     </g>
    </g>
    <g id="xtick_10">
     <g id="line2d_18">
      <g>
       <use style="fill:#262626;stroke:#262626;stroke-width:1.3;" x="141.659450893" xlink:href="#m84f941660b" y="365.348453125"/>
      </g>
     </g>
     <g id="text_11">
      <!-- 0 -->
      <g style="fill:#262626;" transform="translate(138.044841518 383.753609375)scale(0.13 -0.13)">
       <use xlink:href="#ArialMT-30"/>
      </g>
     </g>
    </g>
    <g id="xtick_11">
     <g id="line2d_19">
      <g>
       <use style="fill:#262626;stroke:#262626;stroke-width:1.3;" x="223.474308036" xlink:href="#m84f941660b" y="365.348453125"/>
      </g>
     </g>
     <g id="text_12">
      <!-- 2 -->
      <g style="fill:#262626;" transform="translate(219.859698661 383.753609375)scale(0.13 -0.13)">
       <use xlink:href="#ArialMT-32"/>
      </g>
     </g>
    </g>
    <g id="xtick_12">
     <g id="line2d_20">
      <g>
       <use style="fill:#262626;stroke:#262626;stroke-width:1.3;" x="305.289165179" xlink:href="#m84f941660b" y="365.348453125"/>
      </g>
     </g>
     <g id="text_13">
      <!-- 4 -->
      <defs>
       <path d="M 32.328125 0 
L 32.328125 17.140625 
L 1.265625 17.140625 
L 1.265625 25.203125 
L 33.9375 71.578125 
L 41.109375 71.578125 
L 41.109375 25.203125 
L 50.78125 25.203125 
L 50.78125 17.140625 
L 41.109375 17.140625 
L 41.109375 0 
z
M 32.328125 25.203125 
L 32.328125 57.46875 
L 9.90625 25.203125 
z
" id="ArialMT-34"/>
      </defs>
      <g style="fill:#262626;" transform="translate(301.674555804 383.753609375)scale(0.13 -0.13)">
       <use xlink:href="#ArialMT-34"/>
      </g>
     </g>
    </g>
    <g id="xtick_13">
     <g id="line2d_21">
      <g>
       <use style="fill:#262626;stroke:#262626;stroke-width:1.3;" x="387.104022321" xlink:href="#m84f941660b" y="365.348453125"/>
      </g>
     </g>
     <g id="text_14">
      <!-- 6 -->
      <defs>
       <path d="M 49.75 54.046875 
L 41.015625 53.375 
Q 39.84375 58.546875 37.703125 60.890625 
Q 34.125 64.65625 28.90625 64.65625 
Q 24.703125 64.65625 21.53125 62.3125 
Q 17.390625 59.28125 14.984375 53.46875 
Q 12.59375 47.65625 12.5 36.921875 
Q 15.671875 41.75 20.265625 44.09375 
Q 24.859375 46.4375 29.890625 46.4375 
Q 38.671875 46.4375 44.84375 39.96875 
Q 51.03125 33.5 51.03125 23.25 
Q 51.03125 16.5 48.125 10.71875 
Q 45.21875 4.9375 40.140625 1.859375 
Q 35.0625 -1.21875 28.609375 -1.21875 
Q 17.625 -1.21875 10.6875 6.859375 
Q 3.765625 14.9375 3.765625 33.5 
Q 3.765625 54.25 11.421875 63.671875 
Q 18.109375 71.875 29.4375 71.875 
Q 37.890625 71.875 43.28125 67.140625 
Q 48.6875 62.40625 49.75 54.046875 
M 13.875 23.1875 
Q 13.875 18.65625 15.796875 14.5 
Q 17.71875 10.359375 21.1875 8.171875 
Q 24.65625 6 28.46875 6 
Q 34.03125 6 38.03125 10.484375 
Q 42.046875 14.984375 42.046875 22.703125 
Q 42.046875 30.125 38.078125 34.390625 
Q 34.125 38.671875 28.125 38.671875 
Q 22.171875 38.671875 18.015625 34.390625 
Q 13.875 30.125 13.875 23.1875 
" id="ArialMT-36"/>
      </defs>
      <g style="fill:#262626;" transform="translate(383.489412946 383.753609375)scale(0.13 -0.13)">
       <use xlink:href="#ArialMT-36"/>
      </g>
     </g>
    </g>
    <g id="xtick_14">
     <g id="line2d_22">
      <g>
       <use style="fill:#262626;stroke:#262626;stroke-width:1.3;" x="468.918879464" xlink:href="#m84f941660b" y="365.348453125"/>
      </g>
     </g>
     <g id="text_15">
      <!-- 8 -->
      <defs>
       <path d="M 17.671875 38.8125 
Q 12.203125 40.828125 9.5625 44.53125 
Q 6.9375 48.25 6.9375 53.421875 
Q 6.9375 61.234375 12.546875 66.546875 
Q 18.171875 71.875 27.484375 71.875 
Q 36.859375 71.875 42.578125 66.421875 
Q 48.296875 60.984375 48.296875 53.171875 
Q 48.296875 48.1875 45.671875 44.5 
Q 43.0625 40.828125 37.75 38.8125 
Q 44.34375 36.671875 47.78125 31.875 
Q 51.21875 27.09375 51.21875 20.453125 
Q 51.21875 11.28125 44.71875 5.03125 
Q 38.234375 -1.21875 27.640625 -1.21875 
Q 17.046875 -1.21875 10.546875 5.046875 
Q 4.046875 11.328125 4.046875 20.703125 
Q 4.046875 27.6875 7.59375 32.390625 
Q 11.140625 37.109375 17.671875 38.8125 
M 15.921875 53.71875 
Q 15.921875 48.640625 19.1875 45.40625 
Q 22.46875 42.1875 27.6875 42.1875 
Q 32.765625 42.1875 36.015625 45.375 
Q 39.265625 48.578125 39.265625 53.21875 
Q 39.265625 58.0625 35.90625 61.359375 
Q 32.5625 64.65625 27.59375 64.65625 
Q 22.5625 64.65625 19.234375 61.421875 
Q 15.921875 58.203125 15.921875 53.71875 
M 13.09375 20.65625 
Q 13.09375 16.890625 14.875 13.375 
Q 16.65625 9.859375 20.171875 7.921875 
Q 23.6875 6 27.734375 6 
Q 34.03125 6 38.125 10.046875 
Q 42.234375 14.109375 42.234375 20.359375 
Q 42.234375 26.703125 38.015625 30.859375 
Q 33.796875 35.015625 27.4375 35.015625 
Q 21.234375 35.015625 17.15625 30.90625 
Q 13.09375 26.8125 13.09375 20.65625 
" id="ArialMT-38"/>
      </defs>
      <g style="fill:#262626;" transform="translate(465.304270089 383.753609375)scale(0.13 -0.13)">
       <use xlink:href="#ArialMT-38"/>
      </g>
     </g>
    </g>
    <g id="xtick_15">
     <g id="line2d_23">
      <g>
       <use style="fill:#262626;stroke:#262626;stroke-width:1.3;" x="550.733736607" xlink:href="#m84f941660b" y="365.348453125"/>
      </g>
     </g>
     <g id="text_16">
      <!-- 10 -->
      <g style="fill:#262626;" transform="translate(543.504517857 383.753609375)scale(0.13 -0.13)">
       <use xlink:href="#ArialMT-31"/>
       <use x="55.615234375" xlink:href="#ArialMT-30"/>
      </g>
     </g>
    </g>
    <g id="xtick_16">
     <g id="line2d_24">
      <g>
       <use style="fill:#262626;stroke:#262626;stroke-width:1.3;" x="632.54859375" xlink:href="#m84f941660b" y="365.348453125"/>
      </g>
     </g>
     <g id="text_17">
      <!-- 12 -->
      <g style="fill:#262626;" transform="translate(625.319375 383.753609375)scale(0.13 -0.13)">
       <use xlink:href="#ArialMT-31"/>
       <use x="55.615234375" xlink:href="#ArialMT-32"/>
      </g>
     </g>
    </g>
    <g id="text_18">
     <!-- Yes Counts -->
     <defs>
      <path d="M 3.328125 25.921875 
Q 3.328125 40.328125 11.328125 47.265625 
Q 18.015625 53.03125 27.640625 53.03125 
Q 38.328125 53.03125 45.109375 46.015625 
Q 51.90625 39.015625 51.90625 26.65625 
Q 51.90625 16.65625 48.90625 10.90625 
Q 45.90625 5.171875 40.15625 2 
Q 34.421875 -1.171875 27.640625 -1.171875 
Q 16.75 -1.171875 10.03125 5.8125 
Q 3.328125 12.796875 3.328125 25.921875 
M 12.359375 25.921875 
Q 12.359375 15.96875 16.703125 11.015625 
Q 21.046875 6.0625 27.640625 6.0625 
Q 34.1875 6.0625 38.53125 11.03125 
Q 42.875 16.015625 42.875 26.21875 
Q 42.875 35.84375 38.5 40.796875 
Q 34.125 45.75 27.640625 45.75 
Q 21.046875 45.75 16.703125 40.8125 
Q 12.359375 35.890625 12.359375 25.921875 
" id="ArialMT-6f"/>
      <path d="M 25.78125 7.859375 
L 27.046875 0.09375 
Q 23.34375 -0.6875 20.40625 -0.6875 
Q 15.625 -0.6875 12.984375 0.828125 
Q 10.359375 2.34375 9.28125 4.8125 
Q 8.203125 7.28125 8.203125 15.1875 
L 8.203125 45.015625 
L 1.765625 45.015625 
L 1.765625 51.859375 
L 8.203125 51.859375 
L 8.203125 64.703125 
L 16.9375 69.96875 
L 16.9375 51.859375 
L 25.78125 51.859375 
L 25.78125 45.015625 
L 16.9375 45.015625 
L 16.9375 14.703125 
Q 16.9375 10.9375 17.40625 9.859375 
Q 17.875 8.796875 18.921875 8.15625 
Q 19.96875 7.515625 21.921875 7.515625 
Q 23.390625 7.515625 25.78125 7.859375 
" id="ArialMT-74"/>
      <path d="M 3.078125 15.484375 
L 11.765625 16.84375 
Q 12.5 11.625 15.84375 8.84375 
Q 19.1875 6.0625 25.203125 6.0625 
Q 31.25 6.0625 34.171875 8.515625 
Q 37.109375 10.984375 37.109375 14.3125 
Q 37.109375 17.28125 34.515625 19 
Q 32.71875 20.171875 25.53125 21.96875 
Q 15.875 24.421875 12.140625 26.203125 
Q 8.40625 27.984375 6.46875 31.125 
Q 4.546875 34.28125 4.546875 38.09375 
Q 4.546875 41.546875 6.125 44.5 
Q 7.71875 47.46875 10.453125 49.421875 
Q 12.5 50.921875 16.03125 51.96875 
Q 19.578125 53.03125 23.640625 53.03125 
Q 29.734375 53.03125 34.34375 51.265625 
Q 38.96875 49.515625 41.15625 46.5 
Q 43.359375 43.5 44.1875 38.484375 
L 35.59375 37.3125 
Q 35.015625 41.3125 32.203125 43.546875 
Q 29.390625 45.796875 24.265625 45.796875 
Q 18.21875 45.796875 15.625 43.796875 
Q 13.03125 41.796875 13.03125 39.109375 
Q 13.03125 37.40625 14.109375 36.03125 
Q 15.1875 34.625 17.484375 33.6875 
Q 18.796875 33.203125 25.25 31.453125 
Q 34.578125 28.953125 38.25 27.359375 
Q 41.9375 25.78125 44.03125 22.75 
Q 46.140625 19.734375 46.140625 15.234375 
Q 46.140625 10.84375 43.578125 6.953125 
Q 41.015625 3.078125 36.171875 0.953125 
Q 31.34375 -1.171875 25.25 -1.171875 
Q 15.140625 -1.171875 9.84375 3.03125 
Q 4.546875 7.234375 3.078125 15.484375 
" id="ArialMT-73"/>
      <path d="M 27.875 0 
L 27.875 30.328125 
L 0.296875 71.578125 
L 11.8125 71.578125 
L 25.921875 50 
Q 29.828125 43.953125 33.203125 37.890625 
Q 36.421875 43.5 41.015625 50.53125 
L 54.890625 71.578125 
L 65.921875 71.578125 
L 37.359375 30.328125 
L 37.359375 0 
z
" id="ArialMT-59"/>
      <path d="M 58.796875 25.09375 
L 68.265625 22.703125 
Q 65.28125 11.03125 57.546875 4.90625 
Q 49.8125 -1.21875 38.625 -1.21875 
Q 27.046875 -1.21875 19.796875 3.484375 
Q 12.546875 8.203125 8.765625 17.140625 
Q 4.984375 26.078125 4.984375 36.328125 
Q 4.984375 47.515625 9.25 55.828125 
Q 13.53125 64.15625 21.40625 68.46875 
Q 29.296875 72.796875 38.765625 72.796875 
Q 49.515625 72.796875 56.828125 67.328125 
Q 64.15625 61.859375 67.046875 51.953125 
L 57.71875 49.75 
Q 55.21875 57.5625 50.484375 61.125 
Q 45.75 64.703125 38.578125 64.703125 
Q 30.328125 64.703125 24.78125 60.734375 
Q 19.234375 56.78125 16.984375 50.109375 
Q 14.75 43.453125 14.75 36.375 
Q 14.75 27.25 17.40625 20.4375 
Q 20.0625 13.625 25.671875 10.25 
Q 31.296875 6.890625 37.84375 6.890625 
Q 45.796875 6.890625 51.3125 11.46875 
Q 56.84375 16.0625 58.796875 25.09375 
" id="ArialMT-43"/>
     </defs>
     <g style="fill:#262626;" transform="translate(309.246734375 401.57303125)scale(0.14300000000000002 -0.14300000000000002)">
      <use xlink:href="#ArialMT-59"/>
      <use x="66.55859375" xlink:href="#ArialMT-65"/>
      <use x="122.173828125" xlink:href="#ArialMT-73"/>
      <use x="172.173828125" xlink:href="#ArialMT-20"/>
      <use x="199.95703125" xlink:href="#ArialMT-43"/>
      <use x="272.173828125" xlink:href="#ArialMT-6f"/>
      <use x="327.7890625" xlink:href="#ArialMT-75"/>
      <use x="383.404296875" xlink:href="#ArialMT-6e"/>
      <use x="439.01953125" xlink:href="#ArialMT-74"/>
      <use x="466.802734375" xlink:href="#ArialMT-73"/>
     </g>
    </g>
   </g>
   <g id="matplotlib.axis_4">
    <g id="ytick_8">
     <g id="line2d_25">
      <g>
       <use style="fill:#262626;stroke:#262626;stroke-width:1.3;" x="59.84459375" xlink:href="#m84f941660b" y="365.348453125"/>
      </g>
     </g>
     <g id="text_19">
      <!-- 0.00 -->
      <g style="fill:#262626;" transform="translate(25.445375 368.70915625)scale(0.13 -0.13)">
       <use xlink:href="#ArialMT-30"/>
       <use x="55.615234375" xlink:href="#ArialMT-2e"/>
       <use x="83.3984375" xlink:href="#ArialMT-30"/>
       <use x="139.013671875" xlink:href="#ArialMT-30"/>
      </g>
     </g>
    </g>
    <g id="ytick_9">
     <g id="line2d_26">
      <g>
       <use style="fill:#262626;stroke:#262626;stroke-width:1.3;" x="59.84459375" xlink:href="#m84f941660b" y="338.402119792"/>
      </g>
     </g>
     <g id="text_20">
      <!-- 0.05 -->
      <g style="fill:#262626;" transform="translate(25.445375 341.762822917)scale(0.13 -0.13)">
       <use xlink:href="#ArialMT-30"/>
       <use x="55.615234375" xlink:href="#ArialMT-2e"/>
       <use x="83.3984375" xlink:href="#ArialMT-30"/>
       <use x="139.013671875" xlink:href="#ArialMT-35"/>
      </g>
     </g>
    </g>
    <g id="ytick_10">
     <g id="line2d_27">
      <g>
       <use style="fill:#262626;stroke:#262626;stroke-width:1.3;" x="59.84459375" xlink:href="#m84f941660b" y="311.455786458"/>
      </g>
     </g>
     <g id="text_21">
      <!-- 0.10 -->
      <g style="fill:#262626;" transform="translate(25.445375 314.816489583)scale(0.13 -0.13)">
       <use xlink:href="#ArialMT-30"/>
       <use x="55.615234375" xlink:href="#ArialMT-2e"/>
       <use x="83.3984375" xlink:href="#ArialMT-31"/>
       <use x="139.013671875" xlink:href="#ArialMT-30"/>
      </g>
     </g>
    </g>
    <g id="ytick_11">
     <g id="line2d_28">
      <g>
       <use style="fill:#262626;stroke:#262626;stroke-width:1.3;" x="59.84459375" xlink:href="#m84f941660b" y="284.509453125"/>
      </g>
     </g>
     <g id="text_22">
      <!-- 0.15 -->
      <g style="fill:#262626;" transform="translate(25.445375 287.87015625)scale(0.13 -0.13)">
       <use xlink:href="#ArialMT-30"/>
       <use x="55.615234375" xlink:href="#ArialMT-2e"/>
       <use x="83.3984375" xlink:href="#ArialMT-31"/>
       <use x="139.013671875" xlink:href="#ArialMT-35"/>
      </g>
     </g>
    </g>
    <g id="ytick_12">
     <g id="line2d_29">
      <g>
       <use style="fill:#262626;stroke:#262626;stroke-width:1.3;" x="59.84459375" xlink:href="#m84f941660b" y="257.563119792"/>
      </g>
     </g>
     <g id="text_23">
      <!-- 0.20 -->
      <g style="fill:#262626;" transform="translate(25.445375 260.923822917)scale(0.13 -0.13)">
       <use xlink:href="#ArialMT-30"/>
       <use x="55.615234375" xlink:href="#ArialMT-2e"/>
       <use x="83.3984375" xlink:href="#ArialMT-32"/>
       <use x="139.013671875" xlink:href="#ArialMT-30"/>
      </g>
     </g>
    </g>
    <g id="ytick_13">
     <g id="line2d_30">
      <g>
       <use style="fill:#262626;stroke:#262626;stroke-width:1.3;" x="59.84459375" xlink:href="#m84f941660b" y="230.616786458"/>
      </g>
     </g>
     <g id="text_24">
      <!-- 0.25 -->
      <g style="fill:#262626;" transform="translate(25.445375 233.977489583)scale(0.13 -0.13)">
       <use xlink:href="#ArialMT-30"/>
       <use x="55.615234375" xlink:href="#ArialMT-2e"/>
       <use x="83.3984375" xlink:href="#ArialMT-32"/>
       <use x="139.013671875" xlink:href="#ArialMT-35"/>
      </g>
     </g>
    </g>
    <g id="ytick_14">
     <g id="line2d_31">
      <g>
       <use style="fill:#262626;stroke:#262626;stroke-width:1.3;" x="59.84459375" xlink:href="#m84f941660b" y="203.670453125"/>
      </g>
     </g>
     <g id="text_25">
      <!-- 0.30 -->
      <g style="fill:#262626;" transform="translate(25.445375 207.03115625)scale(0.13 -0.13)">
       <use xlink:href="#ArialMT-30"/>
       <use x="55.615234375" xlink:href="#ArialMT-2e"/>
       <use x="83.3984375" xlink:href="#ArialMT-33"/>
       <use x="139.013671875" xlink:href="#ArialMT-30"/>
      </g>
     </g>
    </g>
    <g id="text_26">
     <!-- Frequency -->
     <g style="fill:#262626;" transform="translate(17.435671875 318.287617187)rotate(-90.0)scale(0.14300000000000002 -0.14300000000000002)">
      <use xlink:href="#ArialMT-46"/>
      <use x="61.083984375" xlink:href="#ArialMT-72"/>
      <use x="94.384765625" xlink:href="#ArialMT-65"/>
      <use x="150.0" xlink:href="#ArialMT-71"/>
      <use x="205.615234375" xlink:href="#ArialMT-75"/>
      <use x="261.23046875" xlink:href="#ArialMT-65"/>
      <use x="316.845703125" xlink:href="#ArialMT-6e"/>
      <use x="372.4609375" xlink:href="#ArialMT-63"/>
      <use x="422.4609375" xlink:href="#ArialMT-79"/>
     </g>
    </g>
   </g>
   <g id="patch_33">
    <path clip-path="url(#p15e3043b1d)" d="M 141.659451 365.348453 
L 160.253737 365.348453 
L 160.253737 359.12908 
L 141.659451 359.12908 
z
" style="fill:#0000ff;opacity:0.4;stroke:#000000;stroke-linejoin:miter;stroke-width:0.39;"/>
   </g>
   <g id="patch_34">
    <path clip-path="url(#p15e3043b1d)" d="M 160.253737 365.348453 
L 178.848022 365.348453 
L 178.848022 365.348453 
L 160.253737 365.348453 
z
" style="fill:#0000ff;opacity:0.4;stroke:#000000;stroke-linejoin:miter;stroke-width:0.39;"/>
   </g>
   <g id="patch_35">
    <path clip-path="url(#p15e3043b1d)" d="M 178.848022 365.348453 
L 197.442308 365.348453 
L 197.442308 347.53843 
L 178.848022 347.53843 
z
" style="fill:#0000ff;opacity:0.4;stroke:#000000;stroke-linejoin:miter;stroke-width:0.39;"/>
   </g>
   <g id="patch_36">
    <path clip-path="url(#p15e3043b1d)" d="M 197.442308 365.348453 
L 216.036594 365.348453 
L 216.036594 336.513178 
L 197.442308 336.513178 
z
" style="fill:#0000ff;opacity:0.4;stroke:#000000;stroke-linejoin:miter;stroke-width:0.39;"/>
   </g>
   <g id="patch_37">
    <path clip-path="url(#p15e3043b1d)" d="M 216.036594 365.348453 
L 234.630879 365.348453 
L 234.630879 326.053323 
L 216.036594 326.053323 
z
" style="fill:#0000ff;opacity:0.4;stroke:#000000;stroke-linejoin:miter;stroke-width:0.39;"/>
   </g>
   <g id="patch_38">
    <path clip-path="url(#p15e3043b1d)" d="M 234.630879 365.348453 
L 253.225165 365.348453 
L 253.225165 317.57236 
L 234.630879 317.57236 
z
" style="fill:#0000ff;opacity:0.4;stroke:#000000;stroke-linejoin:miter;stroke-width:0.39;"/>
   </g>
   <g id="patch_39">
    <path clip-path="url(#p15e3043b1d)" d="M 253.225165 365.348453 
L 271.819451 365.348453 
L 271.819451 330.293805 
L 253.225165 330.293805 
z
" style="fill:#0000ff;opacity:0.4;stroke:#000000;stroke-linejoin:miter;stroke-width:0.39;"/>
   </g>
   <g id="patch_40">
    <path clip-path="url(#p15e3043b1d)" d="M 271.819451 365.348453 
L 290.413737 365.348453 
L 290.413737 273.188652 
L 271.819451 273.188652 
z
" style="fill:#0000ff;opacity:0.4;stroke:#000000;stroke-linejoin:miter;stroke-width:0.39;"/>
   </g>
   <g id="patch_41">
    <path clip-path="url(#p15e3043b1d)" d="M 290.413737 365.348453 
L 309.008022 365.348453 
L 309.008022 288.737085 
L 290.413737 288.737085 
z
" style="fill:#0000ff;opacity:0.4;stroke:#000000;stroke-linejoin:miter;stroke-width:0.39;"/>
   </g>
   <g id="patch_42">
    <path clip-path="url(#p15e3043b1d)" d="M 309.008022 365.348453 
L 327.602308 365.348453 
L 327.602308 317.006962 
L 309.008022 317.006962 
z
" style="fill:#0000ff;opacity:0.4;stroke:#000000;stroke-linejoin:miter;stroke-width:0.39;"/>
   </g>
   <g id="patch_43">
    <path clip-path="url(#p15e3043b1d)" d="M 327.602308 365.348453 
L 346.196594 365.348453 
L 346.196594 309.091397 
L 327.602308 309.091397 
z
" style="fill:#0000ff;opacity:0.4;stroke:#000000;stroke-linejoin:miter;stroke-width:0.39;"/>
   </g>
   <g id="patch_44">
    <path clip-path="url(#p15e3043b1d)" d="M 346.196594 365.348453 
L 364.790879 365.348453 
L 364.790879 270.927062 
L 346.196594 270.927062 
z
" style="fill:#0000ff;opacity:0.4;stroke:#000000;stroke-linejoin:miter;stroke-width:0.39;"/>
   </g>
   <g id="patch_45">
    <path clip-path="url(#p15e3043b1d)" d="M 364.790879 365.348453 
L 383.385165 365.348453 
L 383.385165 283.365808 
L 364.790879 283.365808 
z
" style="fill:#0000ff;opacity:0.4;stroke:#000000;stroke-linejoin:miter;stroke-width:0.39;"/>
   </g>
   <g id="patch_46">
    <path clip-path="url(#p15e3043b1d)" d="M 383.385165 365.348453 
L 401.979451 365.348453 
L 401.979451 282.800411 
L 383.385165 282.800411 
z
" style="fill:#0000ff;opacity:0.4;stroke:#000000;stroke-linejoin:miter;stroke-width:0.39;"/>
   </g>
   <g id="patch_47">
    <path clip-path="url(#p15e3043b1d)" d="M 401.979451 365.348453 
L 420.573737 365.348453 
L 420.573737 270.644363 
L 401.979451 270.644363 
z
" style="fill:#0000ff;opacity:0.4;stroke:#000000;stroke-linejoin:miter;stroke-width:0.39;"/>
   </g>
   <g id="patch_48">
    <path clip-path="url(#p15e3043b1d)" d="M 420.573737 365.348453 
L 439.168022 365.348453 
L 439.168022 309.656794 
L 420.573737 309.656794 
z
" style="fill:#0000ff;opacity:0.4;stroke:#000000;stroke-linejoin:miter;stroke-width:0.39;"/>
   </g>
   <g id="patch_49">
    <path clip-path="url(#p15e3043b1d)" d="M 439.168022 365.348453 
L 457.762308 365.348453 
L 457.762308 297.783446 
L 439.168022 297.783446 
z
" style="fill:#0000ff;opacity:0.4;stroke:#000000;stroke-linejoin:miter;stroke-width:0.39;"/>
   </g>
   <g id="patch_50">
    <path clip-path="url(#p15e3043b1d)" d="M 457.762308 365.348453 
L 476.356594 365.348453 
L 476.356594 313.331878 
L 457.762308 313.331878 
z
" style="fill:#0000ff;opacity:0.4;stroke:#000000;stroke-linejoin:miter;stroke-width:0.39;"/>
   </g>
   <g id="patch_51">
    <path clip-path="url(#p15e3043b1d)" d="M 476.356594 365.348453 
L 494.950879 365.348453 
L 494.950879 288.171687 
L 476.356594 288.171687 
z
" style="fill:#0000ff;opacity:0.4;stroke:#000000;stroke-linejoin:miter;stroke-width:0.39;"/>
   </g>
   <g id="patch_52">
    <path clip-path="url(#p15e3043b1d)" d="M 494.950879 365.348453 
L 513.545165 365.348453 
L 513.545165 320.682047 
L 494.950879 320.682047 
z
" style="fill:#0000ff;opacity:0.4;stroke:#000000;stroke-linejoin:miter;stroke-width:0.39;"/>
   </g>
   <g id="patch_53">
    <path clip-path="url(#p15e3043b1d)" d="M 513.545165 365.348453 
L 532.139451 365.348453 
L 532.139451 327.749516 
L 513.545165 327.749516 
z
" style="fill:#0000ff;opacity:0.4;stroke:#000000;stroke-linejoin:miter;stroke-width:0.39;"/>
   </g>
   <g id="patch_54">
    <path clip-path="url(#p15e3043b1d)" d="M 532.139451 365.348453 
L 550.733737 365.348453 
L 550.733737 316.441565 
L 532.139451 316.441565 
z
" style="fill:#0000ff;opacity:0.4;stroke:#000000;stroke-linejoin:miter;stroke-width:0.39;"/>
   </g>
   <g id="line2d_32">
    <path clip-path="url(#p15e3043b1d)" d="M 82.858453 365.204613 
L 87.005511 365.23985 
L 91.152568 365.231991 
L 99.446683 365.103766 
L 107.740797 364.805405 
L 116.034912 364.307672 
L 128.476084 363.255252 
L 140.917256 361.993854 
L 149.211371 360.863469 
L 153.358428 360.089681 
L 157.505485 359.112417 
L 161.652543 357.895454 
L 165.7996 356.421921 
L 169.946657 354.698042 
L 174.093715 352.752013 
L 182.387829 348.381485 
L 198.976059 339.1533 
L 207.270173 334.901517 
L 211.417231 332.956188 
L 215.564288 331.158072 
L 219.711345 329.520125 
L 223.858403 328.042146 
L 232.152517 325.452217 
L 240.446632 322.867173 
L 244.593689 321.303397 
L 248.740747 319.40597 
L 252.887804 317.099354 
L 257.034861 314.371665 
L 261.181919 311.292672 
L 269.476033 304.764067 
L 273.623091 301.792979 
L 277.770148 299.352381 
L 281.917205 297.64182 
L 286.064263 296.777784 
L 290.21132 296.776022 
L 294.358377 297.551207 
L 298.505434 298.931696 
L 310.946606 304.252455 
L 315.093664 305.566166 
L 319.240721 306.300801 
L 323.387778 306.33661 
L 327.534836 305.630516 
L 331.681893 304.218254 
L 335.82895 302.208396 
L 339.976008 299.768165 
L 348.270122 294.423675 
L 352.41718 291.929514 
L 356.564237 289.771061 
L 360.711294 288.038567 
L 364.858352 286.755025 
L 369.005409 285.883125 
L 373.152466 285.343098 
L 377.299524 285.037185 
L 385.593638 284.796349 
L 393.887753 284.859549 
L 398.03481 285.093633 
L 402.181868 285.569586 
L 406.328925 286.369841 
L 410.475982 287.549672 
L 414.62304 289.11771 
L 418.770097 291.026681 
L 427.064212 295.435942 
L 431.211269 297.65793 
L 435.358326 299.715253 
L 439.505384 301.515253 
L 443.652441 303.008975 
L 447.799498 304.187331 
L 451.946556 305.068951 
L 456.093613 305.686072 
L 460.24067 306.074729 
L 464.387728 306.272824 
L 472.681842 306.29445 
L 480.975957 306.333779 
L 485.123014 306.619352 
L 489.270072 307.219466 
L 493.417129 308.200614 
L 497.564186 309.578528 
L 501.711244 311.311679 
L 505.858301 313.30823 
L 518.299473 319.65363 
L 522.44653 321.563094 
L 530.740645 324.998197 
L 534.887702 326.69191 
L 539.034759 328.537509 
L 543.181817 330.66198 
L 547.328874 333.157555 
L 551.475931 336.057808 
L 555.622989 339.325435 
L 572.211218 353.37109 
L 576.358275 356.309132 
L 580.505333 358.782668 
L 584.65239 360.763569 
L 588.799447 362.273201 
L 592.946505 363.368375 
L 597.093562 364.124702 
L 601.240619 364.621504 
L 605.387677 364.930762 
L 609.534734 365.110883 
L 609.534734 365.110883 
" style="fill:none;stroke:#0000ff;stroke-linecap:round;stroke-width:2.275;"/>
   </g>
   <g id="patch_55">
    <path d="M 59.844594 365.348453 
L 59.844594 203.670453 
" style="fill:none;stroke:#262626;stroke-linecap:square;stroke-linejoin:miter;stroke-width:1.25;"/>
   </g>
   <g id="patch_56">
    <path d="M 59.844594 365.348453 
L 632.548594 365.348453 
" style="fill:none;stroke:#262626;stroke-linecap:square;stroke-linejoin:miter;stroke-width:1.25;"/>
   </g>
   <g id="text_27">
    <g id="patch_57">
     <path d="M 640.284674 234.885102 
L 640.284674 334.133805 
L 660.966049 334.133805 
L 660.966049 234.885102 
z
" style="fill:#ffffff;stroke:#ffffff;stroke-linejoin:miter;stroke-width:0.39;"/>
    </g>
    <!-- gender = Male -->
    <defs>
     <path d="M 7.421875 0 
L 7.421875 71.578125 
L 21.6875 71.578125 
L 38.625 20.90625 
Q 40.96875 13.8125 42.046875 10.296875 
Q 43.265625 14.203125 45.84375 21.78125 
L 62.984375 71.578125 
L 75.734375 71.578125 
L 75.734375 0 
L 66.609375 0 
L 66.609375 59.90625 
L 45.796875 0 
L 37.25 0 
L 16.546875 60.9375 
L 16.546875 0 
z
" id="ArialMT-4d"/>
    </defs>
    <g style="fill:#262626;" transform="translate(647.012376875 238.603101562)rotate(-270.0)scale(0.14300000000000002 -0.14300000000000002)">
     <use xlink:href="#ArialMT-67"/>
     <use x="55.615234375" xlink:href="#ArialMT-65"/>
     <use x="111.23046875" xlink:href="#ArialMT-6e"/>
     <use x="166.845703125" xlink:href="#ArialMT-64"/>
     <use x="222.4609375" xlink:href="#ArialMT-65"/>
     <use x="278.076171875" xlink:href="#ArialMT-72"/>
     <use x="311.376953125" xlink:href="#ArialMT-20"/>
     <use x="339.16015625" xlink:href="#ArialMT-3d"/>
     <use x="397.55859375" xlink:href="#ArialMT-20"/>
     <use x="425.341796875" xlink:href="#ArialMT-4d"/>
     <use x="508.642578125" xlink:href="#ArialMT-61"/>
     <use x="564.2578125" xlink:href="#ArialMT-6c"/>
     <use x="586.474609375" xlink:href="#ArialMT-65"/>
    </g>
   </g>
  </g>
 </g>
 <defs>
  <clipPath id="p5aa115d9e7">
   <rect height="161.678" width="572.704" x="59.84459375" y="13.144453125"/>
  </clipPath>
  <clipPath id="p15e3043b1d">
   <rect height="161.678" width="572.704" x="59.84459375" y="203.670453125"/>
  </clipPath>
 </defs>
</svg>
