<?xml version="1.0" encoding="utf-8" standalone="no"?>
<!DOCTYPE svg PUBLIC "-//W3C//DTD SVG 1.1//EN"
  "http://www.w3.org/Graphics/SVG/1.1/DTD/svg11.dtd">
<!-- Created with matplotlib (http://matplotlib.org/) -->
<svg height="555pt" version="1.1" viewBox="0 0 1174 555" width="1174pt" xmlns="http://www.w3.org/2000/svg" xmlns:xlink="http://www.w3.org/1999/xlink">
 <defs>
  <style type="text/css">
*{stroke-linecap:butt;stroke-linejoin:round;stroke-miterlimit:100000;}
  </style>
 </defs>
 <g id="figure_1">
  <g id="patch_1">
   <path d="M 0 555.87225 
L 1174.85606 555.87225 
L 1174.85606 0 
L 0 0 
L 0 555.87225 
z
" style="fill:none;"/>
  </g>
  <g id="axes_1">
   <g id="patch_2">
    <path d="M 70.8395 244.962 
L 1130.1675 244.962 
L 1130.1675 23.916 
L 70.8395 23.916 
L 70.8395 244.962 
z
" style="fill:none;"/>
   </g>
   <g id="matplotlib.axis_1">
    <g id="xtick_1">
     <g id="line2d_1">
      <defs>
       <path d="M 0 0 
L 0 0 
" id="m3298214e0d" style="stroke:#262626;stroke-width:1.6;"/>
      </defs>
      <g>
       <use style="fill:#262626;stroke:#262626;stroke-width:1.6;" x="70.8395" xlink:href="#m3298214e0d" y="244.962"/>
      </g>
     </g>
    </g>
    <g id="xtick_2">
     <g id="line2d_2">
      <g>
       <use style="fill:#262626;stroke:#262626;stroke-width:1.6;" x="188.542611111" xlink:href="#m3298214e0d" y="244.962"/>
      </g>
     </g>
    </g>
    <g id="xtick_3">
     <g id="line2d_3">
      <g>
       <use style="fill:#262626;stroke:#262626;stroke-width:1.6;" x="306.245722222" xlink:href="#m3298214e0d" y="244.962"/>
      </g>
     </g>
    </g>
    <g id="xtick_4">
     <g id="line2d_4">
      <g>
       <use style="fill:#262626;stroke:#262626;stroke-width:1.6;" x="423.948833333" xlink:href="#m3298214e0d" y="244.962"/>
      </g>
     </g>
    </g>
    <g id="xtick_5">
     <g id="line2d_5">
      <g>
       <use style="fill:#262626;stroke:#262626;stroke-width:1.6;" x="541.651944444" xlink:href="#m3298214e0d" y="244.962"/>
      </g>
     </g>
    </g>
    <g id="xtick_6">
     <g id="line2d_6">
      <g>
       <use style="fill:#262626;stroke:#262626;stroke-width:1.6;" x="659.355055556" xlink:href="#m3298214e0d" y="244.962"/>
      </g>
     </g>
    </g>
    <g id="xtick_7">
     <g id="line2d_7">
      <g>
       <use style="fill:#262626;stroke:#262626;stroke-width:1.6;" x="777.058166667" xlink:href="#m3298214e0d" y="244.962"/>
      </g>
     </g>
    </g>
    <g id="xtick_8">
     <g id="line2d_8">
      <g>
       <use style="fill:#262626;stroke:#262626;stroke-width:1.6;" x="894.761277778" xlink:href="#m3298214e0d" y="244.962"/>
      </g>
     </g>
    </g>
    <g id="xtick_9">
     <g id="line2d_9">
      <g>
       <use style="fill:#262626;stroke:#262626;stroke-width:1.6;" x="1012.46438889" xlink:href="#m3298214e0d" y="244.962"/>
      </g>
     </g>
    </g>
    <g id="xtick_10">
     <g id="line2d_10">
      <g>
       <use style="fill:#262626;stroke:#262626;stroke-width:1.6;" x="1130.1675" xlink:href="#m3298214e0d" y="244.962"/>
      </g>
     </g>
    </g>
   </g>
   <g id="matplotlib.axis_2">
    <g id="ytick_1">
     <g id="line2d_11">
      <g>
       <use style="fill:#262626;stroke:#262626;stroke-width:1.6;" x="70.8395" xlink:href="#m3298214e0d" y="244.962"/>
      </g>
     </g>
     <g id="text_1">
      <!-- 0.00 -->
      <defs>
       <path d="M 9.078125 0 
L 9.078125 10.015625 
L 19.09375 10.015625 
L 19.09375 0 
z
" id="ArialMT-2e"/>
       <path d="M 4.15625 35.296875 
Q 4.15625 48 6.765625 55.734375 
Q 9.375 63.484375 14.515625 67.671875 
Q 19.671875 71.875 27.484375 71.875 
Q 33.25 71.875 37.59375 69.546875 
Q 41.9375 67.234375 44.765625 62.859375 
Q 47.609375 58.5 49.21875 52.21875 
Q 50.828125 45.953125 50.828125 35.296875 
Q 50.828125 22.703125 48.234375 14.96875 
Q 45.65625 7.234375 40.5 3 
Q 35.359375 -1.21875 27.484375 -1.21875 
Q 17.140625 -1.21875 11.234375 6.203125 
Q 4.15625 15.140625 4.15625 35.296875 
M 13.1875 35.296875 
Q 13.1875 17.671875 17.3125 11.828125 
Q 21.4375 6 27.484375 6 
Q 33.546875 6 37.671875 11.859375 
Q 41.796875 17.71875 41.796875 35.296875 
Q 41.796875 52.984375 37.671875 58.78125 
Q 33.546875 64.59375 27.390625 64.59375 
Q 21.34375 64.59375 17.71875 59.46875 
Q 13.1875 52.9375 13.1875 35.296875 
" id="ArialMT-30"/>
      </defs>
      <g style="fill:#262626;" transform="translate(28.502 249.09825)scale(0.16 -0.16)">
       <use xlink:href="#ArialMT-30"/>
       <use x="55.615234375" xlink:href="#ArialMT-2e"/>
       <use x="83.3984375" xlink:href="#ArialMT-30"/>
       <use x="139.013671875" xlink:href="#ArialMT-30"/>
      </g>
     </g>
    </g>
    <g id="ytick_2">
     <g id="line2d_12">
      <g>
       <use style="fill:#262626;stroke:#262626;stroke-width:1.6;" x="70.8395" xlink:href="#m3298214e0d" y="213.384"/>
      </g>
     </g>
     <g id="text_2">
      <!-- 0.05 -->
      <defs>
       <path d="M 4.15625 18.75 
L 13.375 19.53125 
Q 14.40625 12.796875 18.140625 9.390625 
Q 21.875 6 27.15625 6 
Q 33.5 6 37.890625 10.78125 
Q 42.28125 15.578125 42.28125 23.484375 
Q 42.28125 31 38.0625 35.34375 
Q 33.84375 39.703125 27 39.703125 
Q 22.75 39.703125 19.328125 37.765625 
Q 15.921875 35.84375 13.96875 32.765625 
L 5.71875 33.84375 
L 12.640625 70.609375 
L 48.25 70.609375 
L 48.25 62.203125 
L 19.671875 62.203125 
L 15.828125 42.96875 
Q 22.265625 47.46875 29.34375 47.46875 
Q 38.71875 47.46875 45.15625 40.96875 
Q 51.609375 34.46875 51.609375 24.265625 
Q 51.609375 14.546875 45.953125 7.46875 
Q 39.0625 -1.21875 27.15625 -1.21875 
Q 17.390625 -1.21875 11.203125 4.25 
Q 5.03125 9.71875 4.15625 18.75 
" id="ArialMT-35"/>
      </defs>
      <g style="fill:#262626;" transform="translate(28.502 217.52025)scale(0.16 -0.16)">
       <use xlink:href="#ArialMT-30"/>
       <use x="55.615234375" xlink:href="#ArialMT-2e"/>
       <use x="83.3984375" xlink:href="#ArialMT-30"/>
       <use x="139.013671875" xlink:href="#ArialMT-35"/>
      </g>
     </g>
    </g>
    <g id="ytick_3">
     <g id="line2d_13">
      <g>
       <use style="fill:#262626;stroke:#262626;stroke-width:1.6;" x="70.8395" xlink:href="#m3298214e0d" y="181.806"/>
      </g>
     </g>
     <g id="text_3">
      <!-- 0.10 -->
      <defs>
       <path d="M 37.25 0 
L 28.46875 0 
L 28.46875 56 
Q 25.296875 52.984375 20.140625 49.953125 
Q 14.984375 46.921875 10.890625 45.40625 
L 10.890625 53.90625 
Q 18.265625 57.375 23.78125 62.296875 
Q 29.296875 67.234375 31.59375 71.875 
L 37.25 71.875 
z
" id="ArialMT-31"/>
      </defs>
      <g style="fill:#262626;" transform="translate(28.502 185.94225)scale(0.16 -0.16)">
       <use xlink:href="#ArialMT-30"/>
       <use x="55.615234375" xlink:href="#ArialMT-2e"/>
       <use x="83.3984375" xlink:href="#ArialMT-31"/>
       <use x="139.013671875" xlink:href="#ArialMT-30"/>
      </g>
     </g>
    </g>
    <g id="ytick_4">
     <g id="line2d_14">
      <g>
       <use style="fill:#262626;stroke:#262626;stroke-width:1.6;" x="70.8395" xlink:href="#m3298214e0d" y="150.228"/>
      </g>
     </g>
     <g id="text_4">
      <!-- 0.15 -->
      <g style="fill:#262626;" transform="translate(28.502 154.36425)scale(0.16 -0.16)">
       <use xlink:href="#ArialMT-30"/>
       <use x="55.615234375" xlink:href="#ArialMT-2e"/>
       <use x="83.3984375" xlink:href="#ArialMT-31"/>
       <use x="139.013671875" xlink:href="#ArialMT-35"/>
      </g>
     </g>
    </g>
    <g id="ytick_5">
     <g id="line2d_15">
      <g>
       <use style="fill:#262626;stroke:#262626;stroke-width:1.6;" x="70.8395" xlink:href="#m3298214e0d" y="118.65"/>
      </g>
     </g>
     <g id="text_5">
      <!-- 0.20 -->
      <defs>
       <path d="M 50.34375 8.453125 
L 50.34375 0 
L 3.03125 0 
Q 2.9375 3.171875 4.046875 6.109375 
Q 5.859375 10.9375 9.828125 15.625 
Q 13.8125 20.3125 21.34375 26.46875 
Q 33.015625 36.03125 37.109375 41.625 
Q 41.21875 47.21875 41.21875 52.203125 
Q 41.21875 57.421875 37.46875 61 
Q 33.734375 64.59375 27.734375 64.59375 
Q 21.390625 64.59375 17.578125 60.78125 
Q 13.765625 56.984375 13.71875 50.25 
L 4.6875 51.171875 
Q 5.609375 61.28125 11.65625 66.578125 
Q 17.71875 71.875 27.9375 71.875 
Q 38.234375 71.875 44.234375 66.15625 
Q 50.25 60.453125 50.25 52 
Q 50.25 47.703125 48.484375 43.546875 
Q 46.734375 39.40625 42.65625 34.8125 
Q 38.578125 30.21875 29.109375 22.21875 
Q 21.1875 15.578125 18.9375 13.203125 
Q 16.703125 10.84375 15.234375 8.453125 
z
" id="ArialMT-32"/>
      </defs>
      <g style="fill:#262626;" transform="translate(28.502 122.78625)scale(0.16 -0.16)">
       <use xlink:href="#ArialMT-30"/>
       <use x="55.615234375" xlink:href="#ArialMT-2e"/>
       <use x="83.3984375" xlink:href="#ArialMT-32"/>
       <use x="139.013671875" xlink:href="#ArialMT-30"/>
      </g>
     </g>
    </g>
    <g id="ytick_6">
     <g id="line2d_16">
      <g>
       <use style="fill:#262626;stroke:#262626;stroke-width:1.6;" x="70.8395" xlink:href="#m3298214e0d" y="87.072"/>
      </g>
     </g>
     <g id="text_6">
      <!-- 0.25 -->
      <g style="fill:#262626;" transform="translate(28.502 91.20825)scale(0.16 -0.16)">
       <use xlink:href="#ArialMT-30"/>
       <use x="55.615234375" xlink:href="#ArialMT-2e"/>
       <use x="83.3984375" xlink:href="#ArialMT-32"/>
       <use x="139.013671875" xlink:href="#ArialMT-35"/>
      </g>
     </g>
    </g>
    <g id="ytick_7">
     <g id="line2d_17">
      <g>
       <use style="fill:#262626;stroke:#262626;stroke-width:1.6;" x="70.8395" xlink:href="#m3298214e0d" y="55.494"/>
      </g>
     </g>
     <g id="text_7">
      <!-- 0.30 -->
      <defs>
       <path d="M 4.203125 18.890625 
L 12.984375 20.0625 
Q 14.5 12.59375 18.140625 9.296875 
Q 21.78125 6 27 6 
Q 33.203125 6 37.46875 10.296875 
Q 41.75 14.59375 41.75 20.953125 
Q 41.75 27 37.796875 30.921875 
Q 33.84375 34.859375 27.734375 34.859375 
Q 25.25 34.859375 21.53125 33.890625 
L 22.515625 41.609375 
Q 23.390625 41.5 23.921875 41.5 
Q 29.546875 41.5 34.03125 44.421875 
Q 38.53125 47.359375 38.53125 53.46875 
Q 38.53125 58.296875 35.25 61.46875 
Q 31.984375 64.65625 26.8125 64.65625 
Q 21.6875 64.65625 18.265625 61.421875 
Q 14.84375 58.203125 13.875 51.765625 
L 5.078125 53.328125 
Q 6.6875 62.15625 12.390625 67.015625 
Q 18.109375 71.875 26.609375 71.875 
Q 32.46875 71.875 37.390625 69.359375 
Q 42.328125 66.84375 44.9375 62.5 
Q 47.5625 58.15625 47.5625 53.265625 
Q 47.5625 48.640625 45.0625 44.828125 
Q 42.578125 41.015625 37.703125 38.765625 
Q 44.046875 37.3125 47.5625 32.6875 
Q 51.078125 28.078125 51.078125 21.140625 
Q 51.078125 11.765625 44.234375 5.25 
Q 37.40625 -1.265625 26.953125 -1.265625 
Q 17.53125 -1.265625 11.296875 4.34375 
Q 5.078125 9.96875 4.203125 18.890625 
" id="ArialMT-33"/>
      </defs>
      <g style="fill:#262626;" transform="translate(28.502 59.63025)scale(0.16 -0.16)">
       <use xlink:href="#ArialMT-30"/>
       <use x="55.615234375" xlink:href="#ArialMT-2e"/>
       <use x="83.3984375" xlink:href="#ArialMT-33"/>
       <use x="139.013671875" xlink:href="#ArialMT-30"/>
      </g>
     </g>
    </g>
    <g id="ytick_8">
     <g id="line2d_18">
      <g>
       <use style="fill:#262626;stroke:#262626;stroke-width:1.6;" x="70.8395" xlink:href="#m3298214e0d" y="23.916"/>
      </g>
     </g>
     <g id="text_8">
      <!-- 0.35 -->
      <g style="fill:#262626;" transform="translate(28.502 28.05225)scale(0.16 -0.16)">
       <use xlink:href="#ArialMT-30"/>
       <use x="55.615234375" xlink:href="#ArialMT-2e"/>
       <use x="83.3984375" xlink:href="#ArialMT-33"/>
       <use x="139.013671875" xlink:href="#ArialMT-35"/>
      </g>
     </g>
    </g>
    <g id="text_9">
     <!-- Frequency -->
     <defs>
      <path d="M 40.4375 19 
L 49.078125 17.875 
Q 47.65625 8.9375 41.8125 3.875 
Q 35.984375 -1.171875 27.484375 -1.171875 
Q 16.84375 -1.171875 10.375 5.78125 
Q 3.90625 12.75 3.90625 25.734375 
Q 3.90625 34.125 6.6875 40.421875 
Q 9.46875 46.734375 15.15625 49.875 
Q 20.84375 53.03125 27.546875 53.03125 
Q 35.984375 53.03125 41.359375 48.75 
Q 46.734375 44.484375 48.25 36.625 
L 39.703125 35.296875 
Q 38.484375 40.53125 35.375 43.15625 
Q 32.28125 45.796875 27.875 45.796875 
Q 21.234375 45.796875 17.078125 41.03125 
Q 12.9375 36.28125 12.9375 25.984375 
Q 12.9375 15.53125 16.9375 10.796875 
Q 20.953125 6.0625 27.390625 6.0625 
Q 32.5625 6.0625 36.03125 9.234375 
Q 39.5 12.40625 40.4375 19 
" id="ArialMT-63"/>
      <path d="M 39.65625 -19.875 
L 39.65625 5.515625 
Q 37.59375 2.640625 33.90625 0.734375 
Q 30.21875 -1.171875 26.078125 -1.171875 
Q 16.84375 -1.171875 10.171875 6.203125 
Q 3.515625 13.578125 3.515625 26.421875 
Q 3.515625 34.234375 6.21875 40.421875 
Q 8.9375 46.625 14.078125 49.828125 
Q 19.234375 53.03125 25.390625 53.03125 
Q 35.015625 53.03125 40.53125 44.921875 
L 40.53125 51.859375 
L 48.4375 51.859375 
L 48.4375 -19.875 
z
M 12.546875 26.078125 
Q 12.546875 16.0625 16.75 11.0625 
Q 20.953125 6.0625 26.8125 6.0625 
Q 32.421875 6.0625 36.46875 10.8125 
Q 40.53125 15.578125 40.53125 25.296875 
Q 40.53125 35.640625 36.25 40.859375 
Q 31.984375 46.09375 26.21875 46.09375 
Q 20.515625 46.09375 16.53125 41.234375 
Q 12.546875 36.375 12.546875 26.078125 
" id="ArialMT-71"/>
      <path d="M 42.09375 16.703125 
L 51.171875 15.578125 
Q 49.03125 7.625 43.21875 3.21875 
Q 37.40625 -1.171875 28.375 -1.171875 
Q 17 -1.171875 10.328125 5.828125 
Q 3.65625 12.84375 3.65625 25.484375 
Q 3.65625 38.578125 10.390625 45.796875 
Q 17.140625 53.03125 27.875 53.03125 
Q 38.28125 53.03125 44.875 45.953125 
Q 51.46875 38.875 51.46875 26.03125 
Q 51.46875 25.25 51.421875 23.6875 
L 12.75 23.6875 
Q 13.234375 15.140625 17.578125 10.59375 
Q 21.921875 6.0625 28.421875 6.0625 
Q 33.25 6.0625 36.671875 8.59375 
Q 40.09375 11.140625 42.09375 16.703125 
M 13.234375 30.90625 
L 42.1875 30.90625 
Q 41.609375 37.453125 38.875 40.71875 
Q 34.671875 45.796875 27.984375 45.796875 
Q 21.921875 45.796875 17.796875 41.75 
Q 13.671875 37.703125 13.234375 30.90625 
" id="ArialMT-65"/>
      <path d="M 40.578125 0 
L 40.578125 7.625 
Q 34.515625 -1.171875 24.125 -1.171875 
Q 19.53125 -1.171875 15.546875 0.578125 
Q 11.578125 2.34375 9.640625 5 
Q 7.71875 7.671875 6.9375 11.53125 
Q 6.390625 14.109375 6.390625 19.734375 
L 6.390625 51.859375 
L 15.1875 51.859375 
L 15.1875 23.09375 
Q 15.1875 16.21875 15.71875 13.8125 
Q 16.546875 10.359375 19.234375 8.375 
Q 21.921875 6.390625 25.875 6.390625 
Q 29.828125 6.390625 33.296875 8.421875 
Q 36.765625 10.453125 38.203125 13.9375 
Q 39.65625 17.4375 39.65625 24.078125 
L 39.65625 51.859375 
L 48.4375 51.859375 
L 48.4375 0 
z
" id="ArialMT-75"/>
      <path d="M 6.203125 -19.96875 
L 5.21875 -11.71875 
Q 8.109375 -12.5 10.25 -12.5 
Q 13.1875 -12.5 14.9375 -11.515625 
Q 16.703125 -10.546875 17.828125 -8.796875 
Q 18.65625 -7.46875 20.515625 -2.25 
Q 20.75 -1.515625 21.296875 -0.09375 
L 1.609375 51.859375 
L 11.078125 51.859375 
L 21.875 21.828125 
Q 23.96875 16.109375 25.640625 9.8125 
Q 27.15625 15.875 29.25 21.625 
L 40.328125 51.859375 
L 49.125 51.859375 
L 29.390625 -0.875 
Q 26.21875 -9.421875 24.46875 -12.640625 
Q 22.125 -17 19.09375 -19.015625 
Q 16.0625 -21.046875 11.859375 -21.046875 
Q 9.328125 -21.046875 6.203125 -19.96875 
" id="ArialMT-79"/>
      <path d="M 8.203125 0 
L 8.203125 71.578125 
L 56.5 71.578125 
L 56.5 63.140625 
L 17.671875 63.140625 
L 17.671875 40.96875 
L 51.265625 40.96875 
L 51.265625 32.515625 
L 17.671875 32.515625 
L 17.671875 0 
z
" id="ArialMT-46"/>
      <path d="M 6.5 0 
L 6.5 51.859375 
L 14.40625 51.859375 
L 14.40625 44 
Q 17.4375 49.515625 20 51.265625 
Q 22.5625 53.03125 25.640625 53.03125 
Q 30.078125 53.03125 34.671875 50.203125 
L 31.640625 42.046875 
Q 28.421875 43.953125 25.203125 43.953125 
Q 22.3125 43.953125 20.015625 42.21875 
Q 17.71875 40.484375 16.75 37.40625 
Q 15.28125 32.71875 15.28125 27.15625 
L 15.28125 0 
z
" id="ArialMT-72"/>
      <path d="M 6.59375 0 
L 6.59375 51.859375 
L 14.5 51.859375 
L 14.5 44.484375 
Q 20.21875 53.03125 31 53.03125 
Q 35.6875 53.03125 39.625 51.34375 
Q 43.5625 49.65625 45.515625 46.921875 
Q 47.46875 44.1875 48.25 40.4375 
Q 48.734375 37.984375 48.734375 31.890625 
L 48.734375 0 
L 39.9375 0 
L 39.9375 31.546875 
Q 39.9375 36.921875 38.90625 39.578125 
Q 37.890625 42.234375 35.28125 43.8125 
Q 32.671875 45.40625 29.15625 45.40625 
Q 23.53125 45.40625 19.453125 41.84375 
Q 15.375 38.28125 15.375 28.328125 
L 15.375 0 
z
" id="ArialMT-6e"/>
     </defs>
     <g style="fill:#262626;" transform="translate(19.79775 176.012125)rotate(-90.0)scale(0.17600000000000002 -0.17600000000000002)">
      <use xlink:href="#ArialMT-46"/>
      <use x="61.083984375" xlink:href="#ArialMT-72"/>
      <use x="94.384765625" xlink:href="#ArialMT-65"/>
      <use x="150.0" xlink:href="#ArialMT-71"/>
      <use x="205.615234375" xlink:href="#ArialMT-75"/>
      <use x="261.23046875" xlink:href="#ArialMT-65"/>
      <use x="316.845703125" xlink:href="#ArialMT-6e"/>
      <use x="372.4609375" xlink:href="#ArialMT-63"/>
      <use x="422.4609375" xlink:href="#ArialMT-79"/>
     </g>
    </g>
   </g>
   <g id="patch_3">
    <path clip-path="url(#pc7bb4a9073)" d="M 188.542611 244.962 
L 270.934789 244.962 
L 270.934789 84.635293 
L 188.542611 84.635293 
z
" style="fill:#bf00bf;opacity:0.4;stroke:#000000;stroke-linejoin:miter;stroke-width:0.48;"/>
   </g>
   <g id="patch_4">
    <path clip-path="url(#pc7bb4a9073)" d="M 270.934789 244.962 
L 353.326967 244.962 
L 353.326967 137.574374 
L 270.934789 137.574374 
z
" style="fill:#bf00bf;opacity:0.4;stroke:#000000;stroke-linejoin:miter;stroke-width:0.48;"/>
   </g>
   <g id="patch_5">
    <path clip-path="url(#pc7bb4a9073)" d="M 353.326967 244.962 
L 435.719144 244.962 
L 435.719144 159.030335 
L 353.326967 159.030335 
z
" style="fill:#bf00bf;opacity:0.4;stroke:#000000;stroke-linejoin:miter;stroke-width:0.48;"/>
   </g>
   <g id="patch_6">
    <path clip-path="url(#pc7bb4a9073)" d="M 435.719144 244.962 
L 518.111322 244.962 
L 518.111322 214.341432 
L 435.719144 214.341432 
z
" style="fill:#bf00bf;opacity:0.4;stroke:#000000;stroke-linejoin:miter;stroke-width:0.48;"/>
   </g>
   <g id="patch_7">
    <path clip-path="url(#pc7bb4a9073)" d="M 518.111322 244.962 
L 600.5035 244.962 
L 600.5035 221.34966 
L 518.111322 221.34966 
z
" style="fill:#bf00bf;opacity:0.4;stroke:#000000;stroke-linejoin:miter;stroke-width:0.48;"/>
   </g>
   <g id="patch_8">
    <path clip-path="url(#pc7bb4a9073)" d="M 600.5035 244.962 
L 682.895678 244.962 
L 682.895678 210.675589 
L 600.5035 210.675589 
z
" style="fill:#bf00bf;opacity:0.4;stroke:#000000;stroke-linejoin:miter;stroke-width:0.48;"/>
   </g>
   <g id="patch_9">
    <path clip-path="url(#pc7bb4a9073)" d="M 682.895678 244.962 
L 765.287856 244.962 
L 765.287856 242.805622 
L 682.895678 242.805622 
z
" style="fill:#bf00bf;opacity:0.4;stroke:#000000;stroke-linejoin:miter;stroke-width:0.48;"/>
   </g>
   <g id="patch_10">
    <path clip-path="url(#pc7bb4a9073)" d="M 765.287856 244.962 
L 847.680033 244.962 
L 847.680033 240.541425 
L 765.287856 240.541425 
z
" style="fill:#bf00bf;opacity:0.4;stroke:#000000;stroke-linejoin:miter;stroke-width:0.48;"/>
   </g>
   <g id="patch_11">
    <path clip-path="url(#pc7bb4a9073)" d="M 847.680033 244.962 
L 930.072211 244.962 
L 930.072211 244.962 
L 847.680033 244.962 
z
" style="fill:#bf00bf;opacity:0.4;stroke:#000000;stroke-linejoin:miter;stroke-width:0.48;"/>
   </g>
   <g id="patch_12">
    <path clip-path="url(#pc7bb4a9073)" d="M 930.072211 244.962 
L 1012.464389 244.962 
L 1012.464389 242.589984 
L 930.072211 242.589984 
z
" style="fill:#bf00bf;opacity:0.4;stroke:#000000;stroke-linejoin:miter;stroke-width:0.48;"/>
   </g>
   <g id="line2d_19">
    <path clip-path="url(#pc7bb4a9073)" d="M 110.097455 243.718088 
L 117.820385 242.125689 
L 125.543315 238.982787 
L 133.266245 233.3844 
L 140.989174 224.389589 
L 148.712104 211.411432 
L 156.435034 194.716811 
L 164.157964 175.790703 
L 171.880894 157.250804 
L 179.603824 142.140904 
L 187.326753 132.782246 
L 195.049683 129.724468 
L 202.772613 131.424985 
L 210.495543 134.951018 
L 218.218473 137.399222 
L 225.941403 137.251887 
L 233.664333 134.880635 
L 241.387262 131.910255 
L 249.110192 129.863518 
L 256.833122 128.969658 
L 264.556052 127.92751 
L 272.278982 124.809239 
L 280.001912 118.544587 
L 287.724841 110.016032 
L 295.447771 102.000413 
L 303.170701 97.902281 
L 310.893631 99.994131 
L 318.616561 108.209485 
L 326.339491 120.204564 
L 334.06242 132.62678 
L 341.78535 142.811062 
L 349.50828 149.920879 
L 357.23121 154.956616 
L 364.95414 159.770559 
L 372.67707 165.78701 
L 380.4 173.204429 
L 388.122929 181.062429 
L 395.845859 187.988235 
L 403.568789 193.062815 
L 411.291719 196.265445 
L 419.014649 198.296995 
L 442.183438 203.365878 
L 449.906368 204.277252 
L 457.629298 204.105679 
L 465.352228 203.027231 
L 473.075158 201.775142 
L 480.798087 201.253898 
L 488.521017 202.019145 
L 496.243947 203.957694 
L 503.966877 206.369086 
L 511.689807 208.392405 
L 519.412737 209.507402 
L 527.135667 209.802408 
L 534.858596 209.858676 
L 542.581526 210.344706 
L 550.304456 211.588018 
L 565.750316 215.186243 
L 573.473246 216.421133 
L 581.196175 216.902574 
L 596.642035 216.960742 
L 604.364965 217.538675 
L 612.087895 218.733805 
L 619.810825 220.24514 
L 627.533754 221.58926 
L 635.256684 222.423939 
L 650.702544 223.028589 
L 658.425474 223.718921 
L 666.148404 225.22864 
L 673.871333 227.598765 
L 689.317193 233.542286 
L 697.040123 236.207426 
L 704.763053 238.283108 
L 712.485983 239.744479 
L 720.208913 240.706855 
L 727.931842 241.319543 
L 735.654772 241.693125 
L 743.377702 241.885274 
L 758.823562 241.86916 
L 774.269421 241.709599 
L 789.715281 241.812901 
L 805.161141 241.993179 
L 836.05286 242.021492 
L 843.77579 242.257632 
L 859.22165 243.118068 
L 874.667509 244.053766 
L 890.113369 244.644029 
L 905.559229 244.88248 
L 928.728018 244.937996 
L 944.173878 244.858882 
L 959.619738 244.567195 
L 975.065597 243.883494 
L 998.234387 242.403548 
L 1005.957317 242.088981 
L 1013.680247 242.001923 
L 1021.403176 242.164023 
L 1029.126106 242.535728 
L 1052.294896 244.018033 
L 1060.017826 244.378082 
L 1067.740755 244.617644 
L 1075.463685 244.733605 
L 1083.186615 244.703072 
L 1090.909545 244.437136 
L 1090.909545 244.437136 
" style="fill:none;stroke:#bf00bf;stroke-linecap:round;stroke-width:2.8000000000000003;"/>
   </g>
   <g id="patch_13">
    <path d="M 70.8395 244.962 
L 1130.1675 244.962 
" style="fill:none;stroke:#262626;stroke-linecap:square;stroke-linejoin:miter;stroke-width:1.25;"/>
   </g>
   <g id="patch_14">
    <path d="M 70.8395 244.962 
L 70.8395 23.916 
" style="fill:none;stroke:#262626;stroke-linecap:square;stroke-linejoin:miter;stroke-width:1.25;"/>
   </g>
   <g id="text_10">
    <g id="patch_15">
     <path d="M 1147.30606 63.622375 
L 1147.30606 205.255625 
L 1171.70406 205.255625 
L 1171.70406 63.622375 
z
" style="fill:#ffffff;stroke:#ffffff;stroke-linejoin:miter;stroke-width:0.48;"/>
    </g>
    <!-- gender = Female -->
    <defs>
     <path d="M 40.234375 0 
L 40.234375 6.546875 
Q 35.296875 -1.171875 25.734375 -1.171875 
Q 19.53125 -1.171875 14.328125 2.25 
Q 9.125 5.671875 6.265625 11.796875 
Q 3.421875 17.921875 3.421875 25.875 
Q 3.421875 33.640625 6 39.96875 
Q 8.59375 46.296875 13.765625 49.65625 
Q 18.953125 53.03125 25.34375 53.03125 
Q 30.03125 53.03125 33.6875 51.046875 
Q 37.359375 49.078125 39.65625 45.90625 
L 39.65625 71.578125 
L 48.390625 71.578125 
L 48.390625 0 
z
M 12.453125 25.875 
Q 12.453125 15.921875 16.640625 10.984375 
Q 20.84375 6.0625 26.5625 6.0625 
Q 32.328125 6.0625 36.34375 10.765625 
Q 40.375 15.484375 40.375 25.140625 
Q 40.375 35.796875 36.265625 40.765625 
Q 32.171875 45.75 26.171875 45.75 
Q 20.3125 45.75 16.375 40.96875 
Q 12.453125 36.1875 12.453125 25.875 
" id="ArialMT-64"/>
     <path d="M 40.4375 6.390625 
Q 35.546875 2.25 31.03125 0.53125 
Q 26.515625 -1.171875 21.34375 -1.171875 
Q 12.796875 -1.171875 8.203125 3 
Q 3.609375 7.171875 3.609375 13.671875 
Q 3.609375 17.484375 5.34375 20.625 
Q 7.078125 23.78125 9.890625 25.6875 
Q 12.703125 27.59375 16.21875 28.5625 
Q 18.796875 29.25 24.03125 29.890625 
Q 34.671875 31.15625 39.703125 32.90625 
Q 39.75 34.71875 39.75 35.203125 
Q 39.75 40.578125 37.25 42.78125 
Q 33.890625 45.75 27.25 45.75 
Q 21.046875 45.75 18.09375 43.578125 
Q 15.140625 41.40625 13.71875 35.890625 
L 5.125 37.0625 
Q 6.296875 42.578125 8.984375 45.96875 
Q 11.671875 49.359375 16.75 51.1875 
Q 21.828125 53.03125 28.515625 53.03125 
Q 35.15625 53.03125 39.296875 51.46875 
Q 43.453125 49.90625 45.40625 47.53125 
Q 47.359375 45.171875 48.140625 41.546875 
Q 48.578125 39.3125 48.578125 33.453125 
L 48.578125 21.734375 
Q 48.578125 9.46875 49.140625 6.21875 
Q 49.703125 2.984375 51.375 0 
L 42.1875 0 
Q 40.828125 2.734375 40.4375 6.390625 
M 39.703125 26.03125 
Q 34.90625 24.078125 25.34375 22.703125 
Q 19.921875 21.921875 17.671875 20.9375 
Q 15.4375 19.96875 14.203125 18.09375 
Q 12.984375 16.21875 12.984375 13.921875 
Q 12.984375 10.40625 15.640625 8.0625 
Q 18.3125 5.71875 23.4375 5.71875 
Q 28.515625 5.71875 32.46875 7.9375 
Q 36.421875 10.15625 38.28125 14.015625 
Q 39.703125 17 39.703125 22.796875 
z
" id="ArialMT-61"/>
     <path d="M 6.390625 0 
L 6.390625 71.578125 
L 15.1875 71.578125 
L 15.1875 0 
z
" id="ArialMT-6c"/>
     <path d="M 6.59375 0 
L 6.59375 51.859375 
L 14.453125 51.859375 
L 14.453125 44.578125 
Q 16.890625 48.390625 20.9375 50.703125 
Q 25 53.03125 30.171875 53.03125 
Q 35.9375 53.03125 39.625 50.640625 
Q 43.3125 48.25 44.828125 43.953125 
Q 50.984375 53.03125 60.84375 53.03125 
Q 68.5625 53.03125 72.703125 48.75 
Q 76.859375 44.484375 76.859375 35.59375 
L 76.859375 0 
L 68.109375 0 
L 68.109375 32.671875 
Q 68.109375 37.9375 67.25 40.25 
Q 66.40625 42.578125 64.15625 43.984375 
Q 61.921875 45.40625 58.890625 45.40625 
Q 53.421875 45.40625 49.796875 41.765625 
Q 46.1875 38.140625 46.1875 30.125 
L 46.1875 0 
L 37.40625 0 
L 37.40625 33.6875 
Q 37.40625 39.546875 35.25 42.46875 
Q 33.109375 45.40625 28.21875 45.40625 
Q 24.515625 45.40625 21.359375 43.453125 
Q 18.21875 41.5 16.796875 37.734375 
Q 15.375 33.984375 15.375 26.90625 
L 15.375 0 
z
" id="ArialMT-6d"/>
     <path id="ArialMT-20"/>
     <path d="M 52.828125 42.09375 
L 5.5625 42.09375 
L 5.5625 50.296875 
L 52.828125 50.296875 
z
M 52.828125 20.359375 
L 5.5625 20.359375 
L 5.5625 28.5625 
L 52.828125 28.5625 
z
" id="ArialMT-3d"/>
     <path d="M 4.984375 -4.296875 
L 13.53125 -5.5625 
Q 14.0625 -9.515625 16.5 -11.328125 
Q 19.78125 -13.765625 25.4375 -13.765625 
Q 31.546875 -13.765625 34.859375 -11.328125 
Q 38.1875 -8.890625 39.359375 -4.5 
Q 40.046875 -1.8125 39.984375 6.78125 
Q 34.234375 0 25.640625 0 
Q 14.9375 0 9.078125 7.71875 
Q 3.21875 15.4375 3.21875 26.21875 
Q 3.21875 33.640625 5.90625 39.90625 
Q 8.59375 46.1875 13.6875 49.609375 
Q 18.796875 53.03125 25.6875 53.03125 
Q 34.859375 53.03125 40.828125 45.609375 
L 40.828125 51.859375 
L 48.921875 51.859375 
L 48.921875 7.03125 
Q 48.921875 -5.078125 46.453125 -10.125 
Q 44 -15.1875 38.640625 -18.109375 
Q 33.296875 -21.046875 25.484375 -21.046875 
Q 16.21875 -21.046875 10.5 -16.875 
Q 4.78125 -12.703125 4.984375 -4.296875 
M 12.25 26.859375 
Q 12.25 16.65625 16.296875 11.96875 
Q 20.359375 7.28125 26.46875 7.28125 
Q 32.515625 7.28125 36.609375 11.9375 
Q 40.71875 16.609375 40.71875 26.5625 
Q 40.71875 36.078125 36.5 40.90625 
Q 32.28125 45.75 26.3125 45.75 
Q 20.453125 45.75 16.34375 40.984375 
Q 12.25 36.234375 12.25 26.859375 
" id="ArialMT-67"/>
    </defs>
    <g style="fill:#262626;" transform="translate(1155.05831 67.670375)rotate(-270.0)scale(0.17600000000000002 -0.17600000000000002)">
     <use xlink:href="#ArialMT-67"/>
     <use x="55.615234375" xlink:href="#ArialMT-65"/>
     <use x="111.23046875" xlink:href="#ArialMT-6e"/>
     <use x="166.845703125" xlink:href="#ArialMT-64"/>
     <use x="222.4609375" xlink:href="#ArialMT-65"/>
     <use x="278.076171875" xlink:href="#ArialMT-72"/>
     <use x="311.376953125" xlink:href="#ArialMT-20"/>
     <use x="339.16015625" xlink:href="#ArialMT-3d"/>
     <use x="397.55859375" xlink:href="#ArialMT-20"/>
     <use x="425.341796875" xlink:href="#ArialMT-46"/>
     <use x="486.42578125" xlink:href="#ArialMT-65"/>
     <use x="542.041015625" xlink:href="#ArialMT-6d"/>
     <use x="625.341796875" xlink:href="#ArialMT-61"/>
     <use x="680.95703125" xlink:href="#ArialMT-6c"/>
     <use x="703.173828125" xlink:href="#ArialMT-65"/>
    </g>
   </g>
  </g>
  <g id="axes_2">
   <g id="patch_16">
    <path d="M 70.8395 501.744 
L 1130.1675 501.744 
L 1130.1675 280.698 
L 70.8395 280.698 
L 70.8395 501.744 
z
" style="fill:none;"/>
   </g>
   <g id="matplotlib.axis_3">
    <g id="xtick_11">
     <g id="line2d_20">
      <g>
       <use style="fill:#262626;stroke:#262626;stroke-width:1.6;" x="70.8395" xlink:href="#m3298214e0d" y="501.744"/>
      </g>
     </g>
     <g id="text_11">
      <!-- −2 -->
      <defs>
       <path d="M 52.828125 31.203125 
L 5.5625 31.203125 
L 5.5625 39.40625 
L 52.828125 39.40625 
z
" id="ArialMT-2212"/>
      </defs>
      <g style="fill:#262626;" transform="translate(61.71825 524.3965)scale(0.16 -0.16)">
       <use xlink:href="#ArialMT-2212"/>
       <use x="58.3984375" xlink:href="#ArialMT-32"/>
      </g>
     </g>
    </g>
    <g id="xtick_12">
     <g id="line2d_21">
      <g>
       <use style="fill:#262626;stroke:#262626;stroke-width:1.6;" x="188.542611111" xlink:href="#m3298214e0d" y="501.744"/>
      </g>
     </g>
     <g id="text_12">
      <!-- 0 -->
      <g style="fill:#262626;" transform="translate(184.093861111 524.3965)scale(0.16 -0.16)">
       <use xlink:href="#ArialMT-30"/>
      </g>
     </g>
    </g>
    <g id="xtick_13">
     <g id="line2d_22">
      <g>
       <use style="fill:#262626;stroke:#262626;stroke-width:1.6;" x="306.245722222" xlink:href="#m3298214e0d" y="501.744"/>
      </g>
     </g>
     <g id="text_13">
      <!-- 2 -->
      <g style="fill:#262626;" transform="translate(301.796972222 524.3965)scale(0.16 -0.16)">
       <use xlink:href="#ArialMT-32"/>
      </g>
     </g>
    </g>
    <g id="xtick_14">
     <g id="line2d_23">
      <g>
       <use style="fill:#262626;stroke:#262626;stroke-width:1.6;" x="423.948833333" xlink:href="#m3298214e0d" y="501.744"/>
      </g>
     </g>
     <g id="text_14">
      <!-- 4 -->
      <defs>
       <path d="M 32.328125 0 
L 32.328125 17.140625 
L 1.265625 17.140625 
L 1.265625 25.203125 
L 33.9375 71.578125 
L 41.109375 71.578125 
L 41.109375 25.203125 
L 50.78125 25.203125 
L 50.78125 17.140625 
L 41.109375 17.140625 
L 41.109375 0 
z
M 32.328125 25.203125 
L 32.328125 57.46875 
L 9.90625 25.203125 
z
" id="ArialMT-34"/>
      </defs>
      <g style="fill:#262626;" transform="translate(419.500083333 524.3965)scale(0.16 -0.16)">
       <use xlink:href="#ArialMT-34"/>
      </g>
     </g>
    </g>
    <g id="xtick_15">
     <g id="line2d_24">
      <g>
       <use style="fill:#262626;stroke:#262626;stroke-width:1.6;" x="541.651944444" xlink:href="#m3298214e0d" y="501.744"/>
      </g>
     </g>
     <g id="text_15">
      <!-- 6 -->
      <defs>
       <path d="M 49.75 54.046875 
L 41.015625 53.375 
Q 39.84375 58.546875 37.703125 60.890625 
Q 34.125 64.65625 28.90625 64.65625 
Q 24.703125 64.65625 21.53125 62.3125 
Q 17.390625 59.28125 14.984375 53.46875 
Q 12.59375 47.65625 12.5 36.921875 
Q 15.671875 41.75 20.265625 44.09375 
Q 24.859375 46.4375 29.890625 46.4375 
Q 38.671875 46.4375 44.84375 39.96875 
Q 51.03125 33.5 51.03125 23.25 
Q 51.03125 16.5 48.125 10.71875 
Q 45.21875 4.9375 40.140625 1.859375 
Q 35.0625 -1.21875 28.609375 -1.21875 
Q 17.625 -1.21875 10.6875 6.859375 
Q 3.765625 14.9375 3.765625 33.5 
Q 3.765625 54.25 11.421875 63.671875 
Q 18.109375 71.875 29.4375 71.875 
Q 37.890625 71.875 43.28125 67.140625 
Q 48.6875 62.40625 49.75 54.046875 
M 13.875 23.1875 
Q 13.875 18.65625 15.796875 14.5 
Q 17.71875 10.359375 21.1875 8.171875 
Q 24.65625 6 28.46875 6 
Q 34.03125 6 38.03125 10.484375 
Q 42.046875 14.984375 42.046875 22.703125 
Q 42.046875 30.125 38.078125 34.390625 
Q 34.125 38.671875 28.125 38.671875 
Q 22.171875 38.671875 18.015625 34.390625 
Q 13.875 30.125 13.875 23.1875 
" id="ArialMT-36"/>
      </defs>
      <g style="fill:#262626;" transform="translate(537.203194444 524.3965)scale(0.16 -0.16)">
       <use xlink:href="#ArialMT-36"/>
      </g>
     </g>
    </g>
    <g id="xtick_16">
     <g id="line2d_25">
      <g>
       <use style="fill:#262626;stroke:#262626;stroke-width:1.6;" x="659.355055556" xlink:href="#m3298214e0d" y="501.744"/>
      </g>
     </g>
     <g id="text_16">
      <!-- 8 -->
      <defs>
       <path d="M 17.671875 38.8125 
Q 12.203125 40.828125 9.5625 44.53125 
Q 6.9375 48.25 6.9375 53.421875 
Q 6.9375 61.234375 12.546875 66.546875 
Q 18.171875 71.875 27.484375 71.875 
Q 36.859375 71.875 42.578125 66.421875 
Q 48.296875 60.984375 48.296875 53.171875 
Q 48.296875 48.1875 45.671875 44.5 
Q 43.0625 40.828125 37.75 38.8125 
Q 44.34375 36.671875 47.78125 31.875 
Q 51.21875 27.09375 51.21875 20.453125 
Q 51.21875 11.28125 44.71875 5.03125 
Q 38.234375 -1.21875 27.640625 -1.21875 
Q 17.046875 -1.21875 10.546875 5.046875 
Q 4.046875 11.328125 4.046875 20.703125 
Q 4.046875 27.6875 7.59375 32.390625 
Q 11.140625 37.109375 17.671875 38.8125 
M 15.921875 53.71875 
Q 15.921875 48.640625 19.1875 45.40625 
Q 22.46875 42.1875 27.6875 42.1875 
Q 32.765625 42.1875 36.015625 45.375 
Q 39.265625 48.578125 39.265625 53.21875 
Q 39.265625 58.0625 35.90625 61.359375 
Q 32.5625 64.65625 27.59375 64.65625 
Q 22.5625 64.65625 19.234375 61.421875 
Q 15.921875 58.203125 15.921875 53.71875 
M 13.09375 20.65625 
Q 13.09375 16.890625 14.875 13.375 
Q 16.65625 9.859375 20.171875 7.921875 
Q 23.6875 6 27.734375 6 
Q 34.03125 6 38.125 10.046875 
Q 42.234375 14.109375 42.234375 20.359375 
Q 42.234375 26.703125 38.015625 30.859375 
Q 33.796875 35.015625 27.4375 35.015625 
Q 21.234375 35.015625 17.15625 30.90625 
Q 13.09375 26.8125 13.09375 20.65625 
" id="ArialMT-38"/>
      </defs>
      <g style="fill:#262626;" transform="translate(654.906305556 524.3965)scale(0.16 -0.16)">
       <use xlink:href="#ArialMT-38"/>
      </g>
     </g>
    </g>
    <g id="xtick_17">
     <g id="line2d_26">
      <g>
       <use style="fill:#262626;stroke:#262626;stroke-width:1.6;" x="777.058166667" xlink:href="#m3298214e0d" y="501.744"/>
      </g>
     </g>
     <g id="text_17">
      <!-- 10 -->
      <g style="fill:#262626;" transform="translate(768.160666667 524.3965)scale(0.16 -0.16)">
       <use xlink:href="#ArialMT-31"/>
       <use x="55.615234375" xlink:href="#ArialMT-30"/>
      </g>
     </g>
    </g>
    <g id="xtick_18">
     <g id="line2d_27">
      <g>
       <use style="fill:#262626;stroke:#262626;stroke-width:1.6;" x="894.761277778" xlink:href="#m3298214e0d" y="501.744"/>
      </g>
     </g>
     <g id="text_18">
      <!-- 12 -->
      <g style="fill:#262626;" transform="translate(885.863777778 524.3965)scale(0.16 -0.16)">
       <use xlink:href="#ArialMT-31"/>
       <use x="55.615234375" xlink:href="#ArialMT-32"/>
      </g>
     </g>
    </g>
    <g id="xtick_19">
     <g id="line2d_28">
      <g>
       <use style="fill:#262626;stroke:#262626;stroke-width:1.6;" x="1012.46438889" xlink:href="#m3298214e0d" y="501.744"/>
      </g>
     </g>
     <g id="text_19">
      <!-- 14 -->
      <g style="fill:#262626;" transform="translate(1003.56688889 524.3965)scale(0.16 -0.16)">
       <use xlink:href="#ArialMT-31"/>
       <use x="55.615234375" xlink:href="#ArialMT-34"/>
      </g>
     </g>
    </g>
    <g id="xtick_20">
     <g id="line2d_29">
      <g>
       <use style="fill:#262626;stroke:#262626;stroke-width:1.6;" x="1130.1675" xlink:href="#m3298214e0d" y="501.744"/>
      </g>
     </g>
     <g id="text_20">
      <!-- 16 -->
      <g style="fill:#262626;" transform="translate(1121.27 524.3965)scale(0.16 -0.16)">
       <use xlink:href="#ArialMT-31"/>
       <use x="55.615234375" xlink:href="#ArialMT-36"/>
      </g>
     </g>
    </g>
    <g id="text_21">
     <!-- Counts -->
     <defs>
      <path d="M 58.796875 25.09375 
L 68.265625 22.703125 
Q 65.28125 11.03125 57.546875 4.90625 
Q 49.8125 -1.21875 38.625 -1.21875 
Q 27.046875 -1.21875 19.796875 3.484375 
Q 12.546875 8.203125 8.765625 17.140625 
Q 4.984375 26.078125 4.984375 36.328125 
Q 4.984375 47.515625 9.25 55.828125 
Q 13.53125 64.15625 21.40625 68.46875 
Q 29.296875 72.796875 38.765625 72.796875 
Q 49.515625 72.796875 56.828125 67.328125 
Q 64.15625 61.859375 67.046875 51.953125 
L 57.71875 49.75 
Q 55.21875 57.5625 50.484375 61.125 
Q 45.75 64.703125 38.578125 64.703125 
Q 30.328125 64.703125 24.78125 60.734375 
Q 19.234375 56.78125 16.984375 50.109375 
Q 14.75 43.453125 14.75 36.375 
Q 14.75 27.25 17.40625 20.4375 
Q 20.0625 13.625 25.671875 10.25 
Q 31.296875 6.890625 37.84375 6.890625 
Q 45.796875 6.890625 51.3125 11.46875 
Q 56.84375 16.0625 58.796875 25.09375 
" id="ArialMT-43"/>
      <path d="M 25.78125 7.859375 
L 27.046875 0.09375 
Q 23.34375 -0.6875 20.40625 -0.6875 
Q 15.625 -0.6875 12.984375 0.828125 
Q 10.359375 2.34375 9.28125 4.8125 
Q 8.203125 7.28125 8.203125 15.1875 
L 8.203125 45.015625 
L 1.765625 45.015625 
L 1.765625 51.859375 
L 8.203125 51.859375 
L 8.203125 64.703125 
L 16.9375 69.96875 
L 16.9375 51.859375 
L 25.78125 51.859375 
L 25.78125 45.015625 
L 16.9375 45.015625 
L 16.9375 14.703125 
Q 16.9375 10.9375 17.40625 9.859375 
Q 17.875 8.796875 18.921875 8.15625 
Q 19.96875 7.515625 21.921875 7.515625 
Q 23.390625 7.515625 25.78125 7.859375 
" id="ArialMT-74"/>
      <path d="M 3.328125 25.921875 
Q 3.328125 40.328125 11.328125 47.265625 
Q 18.015625 53.03125 27.640625 53.03125 
Q 38.328125 53.03125 45.109375 46.015625 
Q 51.90625 39.015625 51.90625 26.65625 
Q 51.90625 16.65625 48.90625 10.90625 
Q 45.90625 5.171875 40.15625 2 
Q 34.421875 -1.171875 27.640625 -1.171875 
Q 16.75 -1.171875 10.03125 5.8125 
Q 3.328125 12.796875 3.328125 25.921875 
M 12.359375 25.921875 
Q 12.359375 15.96875 16.703125 11.015625 
Q 21.046875 6.0625 27.640625 6.0625 
Q 34.1875 6.0625 38.53125 11.03125 
Q 42.875 16.015625 42.875 26.21875 
Q 42.875 35.84375 38.5 40.796875 
Q 34.125 45.75 27.640625 45.75 
Q 21.046875 45.75 16.703125 40.8125 
Q 12.359375 35.890625 12.359375 25.921875 
" id="ArialMT-6f"/>
      <path d="M 3.078125 15.484375 
L 11.765625 16.84375 
Q 12.5 11.625 15.84375 8.84375 
Q 19.1875 6.0625 25.203125 6.0625 
Q 31.25 6.0625 34.171875 8.515625 
Q 37.109375 10.984375 37.109375 14.3125 
Q 37.109375 17.28125 34.515625 19 
Q 32.71875 20.171875 25.53125 21.96875 
Q 15.875 24.421875 12.140625 26.203125 
Q 8.40625 27.984375 6.46875 31.125 
Q 4.546875 34.28125 4.546875 38.09375 
Q 4.546875 41.546875 6.125 44.5 
Q 7.71875 47.46875 10.453125 49.421875 
Q 12.5 50.921875 16.03125 51.96875 
Q 19.578125 53.03125 23.640625 53.03125 
Q 29.734375 53.03125 34.34375 51.265625 
Q 38.96875 49.515625 41.15625 46.5 
Q 43.359375 43.5 44.1875 38.484375 
L 35.59375 37.3125 
Q 35.015625 41.3125 32.203125 43.546875 
Q 29.390625 45.796875 24.265625 45.796875 
Q 18.21875 45.796875 15.625 43.796875 
Q 13.03125 41.796875 13.03125 39.109375 
Q 13.03125 37.40625 14.109375 36.03125 
Q 15.1875 34.625 17.484375 33.6875 
Q 18.796875 33.203125 25.25 31.453125 
Q 34.578125 28.953125 38.25 27.359375 
Q 41.9375 25.78125 44.03125 22.75 
Q 46.140625 19.734375 46.140625 15.234375 
Q 46.140625 10.84375 43.578125 6.953125 
Q 41.015625 3.078125 36.171875 0.953125 
Q 31.34375 -1.171875 25.25 -1.171875 
Q 15.140625 -1.171875 9.84375 3.03125 
Q 4.546875 7.234375 3.078125 15.484375 
" id="ArialMT-73"/>
     </defs>
     <g style="fill:#262626;" transform="translate(572.622625 545.17425)scale(0.17600000000000002 -0.17600000000000002)">
      <use xlink:href="#ArialMT-43"/>
      <use x="72.216796875" xlink:href="#ArialMT-6f"/>
      <use x="127.83203125" xlink:href="#ArialMT-75"/>
      <use x="183.447265625" xlink:href="#ArialMT-6e"/>
      <use x="239.0625" xlink:href="#ArialMT-74"/>
      <use x="266.845703125" xlink:href="#ArialMT-73"/>
     </g>
    </g>
   </g>
   <g id="matplotlib.axis_4">
    <g id="ytick_9">
     <g id="line2d_30">
      <g>
       <use style="fill:#262626;stroke:#262626;stroke-width:1.6;" x="70.8395" xlink:href="#m3298214e0d" y="501.744"/>
      </g>
     </g>
     <g id="text_22">
      <!-- 0.00 -->
      <g style="fill:#262626;" transform="translate(28.502 505.88025)scale(0.16 -0.16)">
       <use xlink:href="#ArialMT-30"/>
       <use x="55.615234375" xlink:href="#ArialMT-2e"/>
       <use x="83.3984375" xlink:href="#ArialMT-30"/>
       <use x="139.013671875" xlink:href="#ArialMT-30"/>
      </g>
     </g>
    </g>
    <g id="ytick_10">
     <g id="line2d_31">
      <g>
       <use style="fill:#262626;stroke:#262626;stroke-width:1.6;" x="70.8395" xlink:href="#m3298214e0d" y="470.166"/>
      </g>
     </g>
     <g id="text_23">
      <!-- 0.05 -->
      <g style="fill:#262626;" transform="translate(28.502 474.30225)scale(0.16 -0.16)">
       <use xlink:href="#ArialMT-30"/>
       <use x="55.615234375" xlink:href="#ArialMT-2e"/>
       <use x="83.3984375" xlink:href="#ArialMT-30"/>
       <use x="139.013671875" xlink:href="#ArialMT-35"/>
      </g>
     </g>
    </g>
    <g id="ytick_11">
     <g id="line2d_32">
      <g>
       <use style="fill:#262626;stroke:#262626;stroke-width:1.6;" x="70.8395" xlink:href="#m3298214e0d" y="438.588"/>
      </g>
     </g>
     <g id="text_24">
      <!-- 0.10 -->
      <g style="fill:#262626;" transform="translate(28.502 442.72425)scale(0.16 -0.16)">
       <use xlink:href="#ArialMT-30"/>
       <use x="55.615234375" xlink:href="#ArialMT-2e"/>
       <use x="83.3984375" xlink:href="#ArialMT-31"/>
       <use x="139.013671875" xlink:href="#ArialMT-30"/>
      </g>
     </g>
    </g>
    <g id="ytick_12">
     <g id="line2d_33">
      <g>
       <use style="fill:#262626;stroke:#262626;stroke-width:1.6;" x="70.8395" xlink:href="#m3298214e0d" y="407.01"/>
      </g>
     </g>
     <g id="text_25">
      <!-- 0.15 -->
      <g style="fill:#262626;" transform="translate(28.502 411.14625)scale(0.16 -0.16)">
       <use xlink:href="#ArialMT-30"/>
       <use x="55.615234375" xlink:href="#ArialMT-2e"/>
       <use x="83.3984375" xlink:href="#ArialMT-31"/>
       <use x="139.013671875" xlink:href="#ArialMT-35"/>
      </g>
     </g>
    </g>
    <g id="ytick_13">
     <g id="line2d_34">
      <g>
       <use style="fill:#262626;stroke:#262626;stroke-width:1.6;" x="70.8395" xlink:href="#m3298214e0d" y="375.432"/>
      </g>
     </g>
     <g id="text_26">
      <!-- 0.20 -->
      <g style="fill:#262626;" transform="translate(28.502 379.56825)scale(0.16 -0.16)">
       <use xlink:href="#ArialMT-30"/>
       <use x="55.615234375" xlink:href="#ArialMT-2e"/>
       <use x="83.3984375" xlink:href="#ArialMT-32"/>
       <use x="139.013671875" xlink:href="#ArialMT-30"/>
      </g>
     </g>
    </g>
    <g id="ytick_14">
     <g id="line2d_35">
      <g>
       <use style="fill:#262626;stroke:#262626;stroke-width:1.6;" x="70.8395" xlink:href="#m3298214e0d" y="343.854"/>
      </g>
     </g>
     <g id="text_27">
      <!-- 0.25 -->
      <g style="fill:#262626;" transform="translate(28.502 347.99025)scale(0.16 -0.16)">
       <use xlink:href="#ArialMT-30"/>
       <use x="55.615234375" xlink:href="#ArialMT-2e"/>
       <use x="83.3984375" xlink:href="#ArialMT-32"/>
       <use x="139.013671875" xlink:href="#ArialMT-35"/>
      </g>
     </g>
    </g>
    <g id="ytick_15">
     <g id="line2d_36">
      <g>
       <use style="fill:#262626;stroke:#262626;stroke-width:1.6;" x="70.8395" xlink:href="#m3298214e0d" y="312.276"/>
      </g>
     </g>
     <g id="text_28">
      <!-- 0.30 -->
      <g style="fill:#262626;" transform="translate(28.502 316.41225)scale(0.16 -0.16)">
       <use xlink:href="#ArialMT-30"/>
       <use x="55.615234375" xlink:href="#ArialMT-2e"/>
       <use x="83.3984375" xlink:href="#ArialMT-33"/>
       <use x="139.013671875" xlink:href="#ArialMT-30"/>
      </g>
     </g>
    </g>
    <g id="ytick_16">
     <g id="line2d_37">
      <g>
       <use style="fill:#262626;stroke:#262626;stroke-width:1.6;" x="70.8395" xlink:href="#m3298214e0d" y="280.698"/>
      </g>
     </g>
     <g id="text_29">
      <!-- 0.35 -->
      <g style="fill:#262626;" transform="translate(28.502 284.83425)scale(0.16 -0.16)">
       <use xlink:href="#ArialMT-30"/>
       <use x="55.615234375" xlink:href="#ArialMT-2e"/>
       <use x="83.3984375" xlink:href="#ArialMT-33"/>
       <use x="139.013671875" xlink:href="#ArialMT-35"/>
      </g>
     </g>
    </g>
    <g id="text_30">
     <!-- Frequency -->
     <g style="fill:#262626;" transform="translate(19.79775 432.794125)rotate(-90.0)scale(0.17600000000000002 -0.17600000000000002)">
      <use xlink:href="#ArialMT-46"/>
      <use x="61.083984375" xlink:href="#ArialMT-72"/>
      <use x="94.384765625" xlink:href="#ArialMT-65"/>
      <use x="150.0" xlink:href="#ArialMT-71"/>
      <use x="205.615234375" xlink:href="#ArialMT-75"/>
      <use x="261.23046875" xlink:href="#ArialMT-65"/>
      <use x="316.845703125" xlink:href="#ArialMT-6e"/>
      <use x="372.4609375" xlink:href="#ArialMT-63"/>
      <use x="422.4609375" xlink:href="#ArialMT-79"/>
     </g>
    </g>
   </g>
   <g id="patch_17">
    <path clip-path="url(#pa5b0506365)" d="M 188.542611 501.744 
L 253.279322 501.744 
L 253.279322 285.446952 
L 188.542611 285.446952 
z
" style="fill:#0000ff;opacity:0.4;stroke:#000000;stroke-linejoin:miter;stroke-width:0.48;"/>
   </g>
   <g id="patch_18">
    <path clip-path="url(#pa5b0506365)" d="M 253.279322 501.744 
L 318.016033 501.744 
L 318.016033 402.767566 
L 253.279322 402.767566 
z
" style="fill:#0000ff;opacity:0.4;stroke:#000000;stroke-linejoin:miter;stroke-width:0.48;"/>
   </g>
   <g id="patch_19">
    <path clip-path="url(#pa5b0506365)" d="M 318.016033 501.744 
L 382.752744 501.744 
L 382.752744 430.694527 
L 318.016033 430.694527 
z
" style="fill:#0000ff;opacity:0.4;stroke:#000000;stroke-linejoin:miter;stroke-width:0.48;"/>
   </g>
   <g id="patch_20">
    <path clip-path="url(#pa5b0506365)" d="M 382.752744 501.744 
L 447.489456 501.744 
L 447.489456 440.414204 
L 382.752744 440.414204 
z
" style="fill:#0000ff;opacity:0.4;stroke:#000000;stroke-linejoin:miter;stroke-width:0.48;"/>
   </g>
   <g id="patch_21">
    <path clip-path="url(#pa5b0506365)" d="M 447.489456 501.744 
L 512.226167 501.744 
L 512.226167 444.658007 
L 447.489456 444.658007 
z
" style="fill:#0000ff;opacity:0.4;stroke:#000000;stroke-linejoin:miter;stroke-width:0.48;"/>
   </g>
   <g id="patch_22">
    <path clip-path="url(#pa5b0506365)" d="M 512.226167 501.744 
L 576.962878 501.744 
L 576.962878 469.43634 
L 512.226167 469.43634 
z
" style="fill:#0000ff;opacity:0.4;stroke:#000000;stroke-linejoin:miter;stroke-width:0.48;"/>
   </g>
   <g id="patch_23">
    <path clip-path="url(#pa5b0506365)" d="M 576.962878 501.744 
L 641.699589 501.744 
L 641.699589 495.446744 
L 576.962878 495.446744 
z
" style="fill:#0000ff;opacity:0.4;stroke:#000000;stroke-linejoin:miter;stroke-width:0.48;"/>
   </g>
   <g id="patch_24">
    <path clip-path="url(#pa5b0506365)" d="M 641.699589 501.744 
L 706.4363 501.744 
L 706.4363 479.977398 
L 641.699589 479.977398 
z
" style="fill:#0000ff;opacity:0.4;stroke:#000000;stroke-linejoin:miter;stroke-width:0.48;"/>
   </g>
   <g id="patch_25">
    <path clip-path="url(#pa5b0506365)" d="M 706.4363 501.744 
L 771.173011 501.744 
L 771.173011 497.910888 
L 706.4363 497.910888 
z
" style="fill:#0000ff;opacity:0.4;stroke:#000000;stroke-linejoin:miter;stroke-width:0.48;"/>
   </g>
   <g id="patch_26">
    <path clip-path="url(#pa5b0506365)" d="M 771.173011 501.744 
L 835.909722 501.744 
L 835.909722 496.541919 
L 771.173011 496.541919 
z
" style="fill:#0000ff;opacity:0.4;stroke:#000000;stroke-linejoin:miter;stroke-width:0.48;"/>
   </g>
   <g id="line2d_38">
    <path clip-path="url(#pa5b0506365)" d="M 110.134899 500.835205 
L 116.467045 499.963009 
L 122.799191 498.41863 
L 129.131337 495.869618 
L 135.463483 491.940479 
L 141.795629 486.29019 
L 148.127775 478.727114 
L 154.459921 469.334268 
L 160.792067 458.555288 
L 167.124213 447.183273 
L 173.456359 436.21434 
L 179.788504 426.577407 
L 186.12065 418.816102 
L 192.452796 412.847176 
L 198.784942 407.920589 
L 205.117088 402.845323 
L 211.449234 396.437834 
L 217.78138 388.040721 
L 224.113526 377.901082 
L 230.445672 367.227909 
L 236.777818 357.864665 
L 243.109964 351.673451 
L 249.44211 349.860762 
L 255.774256 352.516979 
L 262.106402 358.565656 
L 268.438548 366.152339 
L 274.770694 373.318441 
L 281.10284 378.686484 
L 287.434986 381.882442 
L 293.767132 383.537923 
L 300.099277 384.89556 
L 306.431423 387.204742 
L 312.763569 391.171569 
L 319.095715 396.687615 
L 325.427861 402.929483 
L 331.760007 408.757722 
L 338.092153 413.221639 
L 344.424299 415.945735 
L 350.756445 417.24075 
L 357.088591 417.911768 
L 363.420737 418.867813 
L 369.752883 420.715381 
L 376.085029 423.51323 
L 382.417175 426.784883 
L 388.749321 429.768133 
L 395.081467 431.779247 
L 401.413613 432.526148 
L 407.745759 432.234918 
L 414.077904 431.541128 
L 420.41005 431.201889 
L 426.742196 431.760954 
L 433.074342 433.315806 
L 445.738634 437.601859 
L 452.07078 439.002717 
L 458.402926 439.353447 
L 464.735072 438.801307 
L 471.067218 437.932223 
L 477.399364 437.539514 
L 483.73151 438.307747 
L 490.063656 440.546234 
L 496.395802 444.080962 
L 509.060094 452.602647 
L 515.39224 456.257061 
L 521.724386 459.033695 
L 528.056532 461.054696 
L 534.388677 462.739793 
L 540.720823 464.607102 
L 547.052969 467.060823 
L 553.385115 470.249068 
L 559.717261 474.035617 
L 566.049407 478.077768 
L 572.381553 481.962051 
L 578.713699 485.335608 
L 585.045845 487.984849 
L 591.377991 489.844012 
L 597.710137 490.948434 
L 604.042283 491.367487 
L 610.374429 491.154196 
L 616.706575 490.334877 
L 623.038721 488.940164 
L 629.370867 487.058081 
L 642.035159 482.700508 
L 648.367305 480.890351 
L 654.69945 479.798405 
L 661.031596 479.664935 
L 667.363742 480.550494 
L 673.695888 482.318991 
L 680.028034 484.680328 
L 692.692326 489.773333 
L 699.024472 491.94102 
L 705.356618 493.675781 
L 711.688764 494.988645 
L 718.02091 495.960197 
L 724.353056 496.689292 
L 730.685202 497.254685 
L 743.349494 498.037459 
L 756.013786 498.407447 
L 825.667391 499.016318 
L 838.331683 499.162056 
L 850.995975 499.642927 
L 882.656705 501.2363 
L 895.320996 501.520052 
L 907.985288 501.494725 
L 914.317434 501.288838 
L 914.317434 501.288838 
" style="fill:none;stroke:#0000ff;stroke-linecap:round;stroke-width:2.8000000000000003;"/>
   </g>
   <g id="patch_27">
    <path d="M 70.8395 501.744 
L 1130.1675 501.744 
" style="fill:none;stroke:#262626;stroke-linecap:square;stroke-linejoin:miter;stroke-width:1.25;"/>
   </g>
   <g id="patch_28">
    <path d="M 70.8395 501.744 
L 70.8395 280.698 
" style="fill:none;stroke:#262626;stroke-linecap:square;stroke-linejoin:miter;stroke-width:1.25;"/>
   </g>
   <g id="text_31">
    <g id="patch_29">
     <path d="M 1147.30606 330.672875 
L 1147.30606 451.769125 
L 1171.70406 451.769125 
L 1171.70406 330.672875 
z
" style="fill:#ffffff;stroke:#ffffff;stroke-linejoin:miter;stroke-width:0.48;"/>
    </g>
    <!-- gender = Male -->
    <defs>
     <path d="M 7.421875 0 
L 7.421875 71.578125 
L 21.6875 71.578125 
L 38.625 20.90625 
Q 40.96875 13.8125 42.046875 10.296875 
Q 43.265625 14.203125 45.84375 21.78125 
L 62.984375 71.578125 
L 75.734375 71.578125 
L 75.734375 0 
L 66.609375 0 
L 66.609375 59.90625 
L 45.796875 0 
L 37.25 0 
L 16.546875 60.9375 
L 16.546875 0 
z
" id="ArialMT-4d"/>
    </defs>
    <g style="fill:#262626;" transform="translate(1155.05831 334.720875)rotate(-270.0)scale(0.17600000000000002 -0.17600000000000002)">
     <use xlink:href="#ArialMT-67"/>
     <use x="55.615234375" xlink:href="#ArialMT-65"/>
     <use x="111.23046875" xlink:href="#ArialMT-6e"/>
     <use x="166.845703125" xlink:href="#ArialMT-64"/>
     <use x="222.4609375" xlink:href="#ArialMT-65"/>
     <use x="278.076171875" xlink:href="#ArialMT-72"/>
     <use x="311.376953125" xlink:href="#ArialMT-20"/>
     <use x="339.16015625" xlink:href="#ArialMT-3d"/>
     <use x="397.55859375" xlink:href="#ArialMT-20"/>
     <use x="425.341796875" xlink:href="#ArialMT-4d"/>
     <use x="508.642578125" xlink:href="#ArialMT-61"/>
     <use x="564.2578125" xlink:href="#ArialMT-6c"/>
     <use x="586.474609375" xlink:href="#ArialMT-65"/>
    </g>
   </g>
  </g>
  <g id="text_32">
   <!-- Matches per Person: Male vs. Female -->
   <defs>
    <path d="M 9.03125 41.84375 
L 9.03125 51.859375 
L 19.046875 51.859375 
L 19.046875 41.84375 
z
M 9.03125 0 
L 9.03125 10.015625 
L 19.046875 10.015625 
L 19.046875 0 
z
" id="ArialMT-3a"/>
    <path d="M 7.71875 0 
L 7.71875 71.578125 
L 34.71875 71.578125 
Q 41.84375 71.578125 45.609375 70.90625 
Q 50.875 70.015625 54.4375 67.546875 
Q 58.015625 65.09375 60.1875 60.640625 
Q 62.359375 56.203125 62.359375 50.875 
Q 62.359375 41.75 56.546875 35.421875 
Q 50.734375 29.109375 35.546875 29.109375 
L 17.1875 29.109375 
L 17.1875 0 
z
M 17.1875 37.546875 
L 35.6875 37.546875 
Q 44.875 37.546875 48.734375 40.96875 
Q 52.59375 44.390625 52.59375 50.59375 
Q 52.59375 55.078125 50.3125 58.265625 
Q 48.046875 61.46875 44.34375 62.5 
Q 41.9375 63.140625 35.5 63.140625 
L 17.1875 63.140625 
z
" id="ArialMT-50"/>
    <path d="M 6.59375 0 
L 6.59375 71.578125 
L 15.375 71.578125 
L 15.375 45.90625 
Q 21.53125 53.03125 30.90625 53.03125 
Q 36.671875 53.03125 40.921875 50.75 
Q 45.171875 48.484375 47 44.484375 
Q 48.828125 40.484375 48.828125 32.859375 
L 48.828125 0 
L 40.046875 0 
L 40.046875 32.859375 
Q 40.046875 39.453125 37.1875 42.453125 
Q 34.328125 45.453125 29.109375 45.453125 
Q 25.203125 45.453125 21.75 43.421875 
Q 18.3125 41.40625 16.84375 37.9375 
Q 15.375 34.46875 15.375 28.375 
L 15.375 0 
z
" id="ArialMT-68"/>
    <path d="M 21 0 
L 1.265625 51.859375 
L 10.546875 51.859375 
L 21.6875 20.796875 
Q 23.484375 15.765625 25 10.359375 
Q 26.171875 14.453125 28.265625 20.21875 
L 39.796875 51.859375 
L 48.828125 51.859375 
L 29.203125 0 
z
" id="ArialMT-76"/>
    <path d="M 6.59375 -19.875 
L 6.59375 51.859375 
L 14.59375 51.859375 
L 14.59375 45.125 
Q 17.4375 49.078125 21 51.046875 
Q 24.5625 53.03125 29.640625 53.03125 
Q 36.28125 53.03125 41.359375 49.609375 
Q 46.4375 46.1875 49.015625 39.953125 
Q 51.609375 33.734375 51.609375 26.3125 
Q 51.609375 18.359375 48.75 11.984375 
Q 45.90625 5.609375 40.453125 2.21875 
Q 35.015625 -1.171875 29 -1.171875 
Q 24.609375 -1.171875 21.109375 0.6875 
Q 17.625 2.546875 15.375 5.375 
L 15.375 -19.875 
z
M 14.546875 25.640625 
Q 14.546875 15.625 18.59375 10.84375 
Q 22.65625 6.0625 28.421875 6.0625 
Q 34.28125 6.0625 38.453125 11.015625 
Q 42.625 15.96875 42.625 26.375 
Q 42.625 36.28125 38.546875 41.203125 
Q 34.46875 46.140625 28.8125 46.140625 
Q 23.1875 46.140625 18.859375 40.890625 
Q 14.546875 35.640625 14.546875 25.640625 
" id="ArialMT-70"/>
   </defs>
   <g style="fill:#262626;" transform="translate(389.7961 23.6916)scale(0.23040000000000002 -0.23040000000000002)">
    <use xlink:href="#ArialMT-4d"/>
    <use x="83.30078125" xlink:href="#ArialMT-61"/>
    <use x="138.916015625" xlink:href="#ArialMT-74"/>
    <use x="166.69921875" xlink:href="#ArialMT-63"/>
    <use x="216.69921875" xlink:href="#ArialMT-68"/>
    <use x="272.314453125" xlink:href="#ArialMT-65"/>
    <use x="327.9296875" xlink:href="#ArialMT-73"/>
    <use x="377.9296875" xlink:href="#ArialMT-20"/>
    <use x="405.712890625" xlink:href="#ArialMT-70"/>
    <use x="461.328125" xlink:href="#ArialMT-65"/>
    <use x="516.943359375" xlink:href="#ArialMT-72"/>
    <use x="550.244140625" xlink:href="#ArialMT-20"/>
    <use x="578.02734375" xlink:href="#ArialMT-50"/>
    <use x="644.7265625" xlink:href="#ArialMT-65"/>
    <use x="700.341796875" xlink:href="#ArialMT-72"/>
    <use x="733.642578125" xlink:href="#ArialMT-73"/>
    <use x="783.642578125" xlink:href="#ArialMT-6f"/>
    <use x="839.2578125" xlink:href="#ArialMT-6e"/>
    <use x="894.873046875" xlink:href="#ArialMT-3a"/>
    <use x="922.65625" xlink:href="#ArialMT-20"/>
    <use x="950.439453125" xlink:href="#ArialMT-4d"/>
    <use x="1033.740234375" xlink:href="#ArialMT-61"/>
    <use x="1089.35546875" xlink:href="#ArialMT-6c"/>
    <use x="1111.572265625" xlink:href="#ArialMT-65"/>
    <use x="1167.1875" xlink:href="#ArialMT-20"/>
    <use x="1194.970703125" xlink:href="#ArialMT-76"/>
    <use x="1244.970703125" xlink:href="#ArialMT-73"/>
    <use x="1294.970703125" xlink:href="#ArialMT-2e"/>
    <use x="1322.75390625" xlink:href="#ArialMT-20"/>
    <use x="1350.537109375" xlink:href="#ArialMT-46"/>
    <use x="1411.62109375" xlink:href="#ArialMT-65"/>
    <use x="1467.236328125" xlink:href="#ArialMT-6d"/>
    <use x="1550.537109375" xlink:href="#ArialMT-61"/>
    <use x="1606.15234375" xlink:href="#ArialMT-6c"/>
    <use x="1628.369140625" xlink:href="#ArialMT-65"/>
   </g>
  </g>
 </g>
 <defs>
  <clipPath id="pc7bb4a9073">
   <rect height="221.046" width="1059.328" x="70.8395" y="23.916"/>
  </clipPath>
  <clipPath id="pa5b0506365">
   <rect height="221.046" width="1059.328" x="70.8395" y="280.698"/>
  </clipPath>
 </defs>
</svg>
